<svg width="28" height="28" viewBox="0 0 28 28" fill="none" xmlns="http://www.w3.org/2000/svg">
<path d="M26.25 2.43833C25.2 3.5 23.485 4.35167 21.3617 4.95833C19.2864 3.25616 16.684 2.32822 14 2.33333C11.2117 2.33333 8.645 3.31333 6.63833 4.95833C4.515 4.35167 2.8 3.5 1.75 2.43833C1.785 4.34 2.74167 6.07833 4.34 7.46667C3.02667 9.39182 2.32709 11.6695 2.33333 14C2.33333 17.0942 3.5625 20.0617 5.75042 22.2496C6.83377 23.3329 8.11989 24.1923 9.53536 24.7786C10.9508 25.3649 12.4679 25.6667 14 25.6667C17.0942 25.6667 20.0617 24.4375 22.2496 22.2496C24.4375 20.0617 25.6667 17.0942 25.6667 14C25.6667 11.5733 24.9317 9.33333 23.66 7.46667C25.2583 6.07833 26.215 4.34 26.25 2.43833ZM8.75 9.91667L12.25 11.6667C12.25 12.6 11.4333 13.4167 10.5 13.4167C9.56667 13.4167 8.75 12.6 8.75 11.6667V9.91667ZM14 20.1017C11.9583 20.1017 10.1617 19.25 9.11167 17.99L10.7683 16.3333C11.2933 17.1733 12.5417 17.7683 14 17.7683C15.4583 17.7683 16.7067 17.1733 17.2317 16.3333L18.8883 17.99C17.8383 19.25 16.0417 20.1017 14 20.1017ZM19.25 11.6667C19.25 12.6 18.4333 13.4167 17.5 13.4167C16.5667 13.4167 15.75 12.6 15.75 11.6667L19.25 9.91667V11.6667Z" fill="#4A0404"/>
</svg>
