<svg width="1920" height="1080" viewBox="0 0 1920 1080" fill="none" xmlns="http://www.w3.org/2000/svg">
<g opacity="0.4" clip-path="url(#clip0_3_6)">
<rect width="1920" height="1080" fill="#1C1C1C"/>
<path d="M1682.61 743.086C1754.57 743.065 1821.1 779.734 1878.56 848.974C1871.4 828.876 1844.2 786.903 1827.77 773.393C1857.59 783.934 1890.84 817.902 1904.73 853.453V896.476C1891.32 878.179 1876.7 863.13 1857.58 846.286C1876.72 877.431 1895.27 929.764 1904.73 969.83V1069.07H1885.43C1871.11 1003.72 1850.62 955.319 1812.87 906.157C1826.71 948.251 1830.47 992.982 1827.97 1042.64C1820.75 1011.09 1804.74 977.498 1775.15 942.887C1788.41 988.373 1791.02 1030.24 1778.63 1069.08H1737.3C1739.15 1046.68 1736.5 1029.64 1727.14 1012.48C1727.53 1021.61 1726.68 1031.07 1724.34 1041.06C1720.01 1016.9 1711.63 996.297 1697.24 975.576C1702.68 1003.98 1701.06 1034.46 1689.74 1069.08H1625.65C1629.38 1047.02 1627.53 1022.84 1619.71 994.259C1618.48 1022.16 1611.39 1047.23 1596.25 1069.08H1558.99V1008.64C1564.1 1018.36 1566.73 1029.18 1568.36 1040.08C1573.92 1009.4 1575.56 980.782 1573.42 954.731C1590.22 969.601 1597.99 1000.75 1599.16 1038.86C1613.73 978.717 1612.23 922.568 1590.29 871.436C1641.42 888.176 1675.17 969.432 1681.88 1051.51C1690.8 972.197 1671.28 906.226 1632.5 856.315C1657.94 863.277 1681.36 886.943 1700.88 918.808C1685.67 870.826 1659.96 832.657 1627.44 803.632C1709.52 801.314 1777.15 869.286 1816.1 954.729C1803.8 904.486 1779.37 862.986 1746.45 830.181C1806.87 839.344 1840.26 886.171 1868.06 964.343C1842.73 843.854 1770.36 777.553 1646.86 746.057C1658.91 744.072 1670.83 743.089 1682.61 743.086H1682.61ZM1782.6 797.516C1804.64 812.7 1839.5 854.702 1864.49 896.717C1851.35 847.985 1824.91 806.629 1782.6 797.516ZM1591.39 842.615C1606.67 842.909 1622.75 855.142 1631.1 879.653C1610.03 863.202 1588.55 856.976 1565.29 856.687C1572.17 847.155 1581.61 842.426 1591.4 842.615H1591.39ZM1708.53 870.868C1739.3 925.891 1757.45 988.646 1766.82 1056.77C1780.58 981.638 1756.98 901.585 1708.53 870.868H1708.53Z" fill="#FF5733"/>
<path d="M237.393 743.086C165.43 743.065 98.8977 779.734 41.44 848.974C48.603 828.876 75.798 786.903 92.2283 773.393C62.4079 783.934 29.1621 817.902 15.2654 853.453V896.476C28.6764 878.179 43.303 863.13 62.4187 846.286C43.2755 877.431 24.7322 929.764 15.2654 969.83V1069.07H34.5748C48.8862 1003.72 69.3793 955.319 107.134 906.157C93.2949 948.251 89.5255 992.982 92.0259 1042.64C99.2482 1011.09 115.256 977.498 144.848 942.887C131.591 988.373 128.982 1030.24 141.37 1069.08H182.697C180.845 1046.68 183.501 1029.64 192.859 1012.48C192.474 1021.61 193.324 1031.07 195.659 1041.06C199.992 1016.9 208.367 996.297 222.759 975.576C217.32 1003.98 218.941 1034.46 230.256 1069.08H294.347C290.62 1047.02 292.471 1022.84 300.286 994.259C301.517 1022.16 308.607 1047.23 323.751 1069.08H361.013V1008.64C355.901 1018.36 353.266 1029.18 351.64 1040.08C346.079 1009.4 344.44 980.782 346.582 954.731C329.783 969.601 322.006 1000.75 320.838 1038.86C306.269 978.717 307.767 922.568 329.712 871.436C278.579 888.176 244.833 969.432 238.115 1051.51C229.199 972.197 248.724 906.226 287.504 856.315C262.056 863.277 238.637 886.943 219.123 918.808C234.334 870.826 260.04 832.657 292.562 803.632C210.476 801.314 142.852 869.286 103.904 954.729C116.198 904.486 140.635 862.986 173.55 830.181C113.133 839.344 79.7422 886.171 51.9416 964.343C77.2736 843.854 149.642 777.553 273.141 746.057C261.09 744.072 249.167 743.089 237.391 743.086H237.393ZM137.395 797.516C115.358 812.7 80.5024 854.702 55.5087 896.717C68.6523 847.985 95.0871 806.629 137.395 797.516ZM328.606 842.615C313.333 842.909 297.248 855.142 288.903 879.653C309.968 863.202 331.448 856.976 354.711 856.687C347.834 847.155 338.393 842.426 328.605 842.615H328.606ZM211.467 870.868C180.7 925.891 162.554 988.646 153.181 1056.77C139.425 981.638 163.019 901.585 211.467 870.868H211.467Z" fill="#FF5733"/>
<g clip-path="url(#clip1_3_6)">
<path d="M560.42 761.192C560.42 761.192 537.991 771.085 532.485 782.25C526.572 794.145 530.922 823.321 530.922 823.321C537.039 800.842 546.691 780.083 560.42 761.192ZM443.514 798.707C449.359 853.55 420.432 897.833 426.046 940.467C395.032 921.545 397.329 855.827 387.494 822.222C382.322 833.45 377.523 844.756 373.234 856.22V1130.87H696.766V888.725C686.842 866.819 681.88 841.616 685.619 810.476C645.993 835.648 654.081 908.511 659.791 943.215C636.749 930.103 599.57 909.453 617.242 853.157C593.793 867.84 584.957 923.9 579.384 950.046C581.966 915.813 545.399 886.919 557.158 821.673C532.213 850.802 517.668 949.81 518.008 991.973C512.502 966.063 514.066 858.732 489.665 845.463C491.5 870.588 475.663 911.966 466.691 915.577C473.828 872.08 455.069 824.97 443.514 798.707Z" fill="#C70039"/>
<path d="M560.42 792.192C560.42 792.192 537.991 802.085 532.485 813.25C526.572 825.145 530.922 854.321 530.922 854.321C537.039 831.842 546.691 811.083 560.42 792.192ZM443.514 829.707C449.359 884.55 420.432 928.833 426.046 971.467C395.032 952.545 397.329 886.827 387.494 853.222C382.322 864.45 377.523 875.756 373.234 887.22V1161.87H696.766V919.725C686.842 897.819 681.88 872.616 685.619 841.476C645.993 866.648 654.081 939.511 659.791 974.215C636.749 961.103 599.57 940.453 617.242 884.157C593.793 898.84 584.957 954.9 579.384 981.046C581.966 946.813 545.399 917.919 557.158 852.673C532.213 881.802 517.668 980.81 518.008 1022.97C512.502 997.063 514.066 889.732 489.665 876.463C491.5 901.588 475.663 942.966 466.691 946.577C473.828 903.08 455.069 855.97 443.514 829.707Z" fill="#FF5733"/>
</g>
<g clip-path="url(#clip2_3_6)">
<path d="M247.42 779.192C247.42 779.192 224.991 789.085 219.485 800.25C213.572 812.145 217.922 841.321 217.922 841.321C224.039 818.842 233.691 798.083 247.42 779.192ZM130.514 816.707C136.359 871.55 107.432 915.833 113.046 958.467C82.032 939.545 84.3293 873.827 74.4942 840.222C69.3218 851.45 64.5232 862.756 60.2344 874.22V1148.87H383.766V906.725C373.842 884.819 368.88 859.616 372.619 828.476C332.993 853.648 341.081 926.511 346.791 961.215C323.749 948.103 286.57 927.453 304.242 871.157C280.793 885.84 271.957 941.9 266.384 968.046C268.966 933.813 232.399 904.919 244.158 839.673C219.213 868.802 204.668 967.81 205.008 1009.97C199.502 984.063 201.066 876.732 176.665 863.463C178.5 888.588 162.663 929.966 153.691 933.577C160.828 890.08 142.069 842.97 130.514 816.707Z" fill="#C70039"/>
<path d="M247.42 851.192C247.42 851.192 224.991 861.085 219.485 872.25C213.572 884.145 217.922 913.321 217.922 913.321C224.039 890.842 233.691 870.083 247.42 851.192ZM130.514 888.707C136.359 943.55 107.432 987.833 113.046 1030.47C82.032 1011.54 84.3293 945.827 74.4942 912.222C69.3218 923.45 64.5232 934.756 60.2344 946.22V1220.87H383.766V978.725C373.842 956.819 368.88 931.616 372.619 900.476C332.993 925.648 341.081 998.511 346.791 1033.21C323.749 1020.1 286.57 999.453 304.242 943.157C280.793 957.84 271.957 1013.9 266.384 1040.05C268.966 1005.81 232.399 976.919 244.158 911.673C219.213 940.802 204.668 1039.81 205.008 1081.97C199.502 1056.06 201.066 948.732 176.665 935.463C178.5 960.588 162.663 1001.97 153.691 1005.58C160.828 962.08 142.069 914.97 130.514 888.707Z" fill="#FF5733"/>
</g>
<path d="M1465.42 723.192C1465.42 723.192 1442.99 733.085 1437.49 744.25C1431.57 756.145 1435.92 785.321 1435.92 785.321C1442.04 762.842 1451.69 742.083 1465.42 723.192ZM1348.51 760.707C1354.36 815.55 1325.43 859.833 1331.05 902.467C1300.03 883.545 1302.33 817.827 1292.49 784.222C1287.32 795.45 1282.52 806.756 1278.23 818.22V1092.87H1601.77V850.725C1591.84 828.819 1586.88 803.616 1590.62 772.476C1550.99 797.648 1559.08 870.511 1564.79 905.215C1541.75 892.103 1504.57 871.453 1522.24 815.157C1498.79 829.84 1489.96 885.9 1484.38 912.046C1486.97 877.813 1450.4 848.919 1462.16 783.673C1437.21 812.802 1422.67 911.81 1423.01 953.973C1417.5 928.063 1419.07 820.732 1394.66 807.463C1396.5 832.588 1380.66 873.966 1371.69 877.577C1378.83 834.08 1360.07 786.97 1348.51 760.707Z" fill="#C70039"/>
<path d="M1465.42 835.192C1465.42 835.192 1442.99 845.085 1437.49 856.25C1431.57 868.145 1435.92 897.321 1435.92 897.321C1442.04 874.842 1451.69 854.083 1465.42 835.192ZM1348.51 872.707C1354.36 927.55 1325.43 971.833 1331.05 1014.47C1300.03 995.545 1302.33 929.827 1292.49 896.222C1287.32 907.45 1282.52 918.756 1278.23 930.22V1204.87H1601.77V962.725C1591.84 940.819 1586.88 915.616 1590.62 884.476C1550.99 909.648 1559.08 982.511 1564.79 1017.21C1541.75 1004.1 1504.57 983.453 1522.24 927.157C1498.79 941.84 1489.96 997.9 1484.38 1024.05C1486.97 989.813 1450.4 960.919 1462.16 895.673C1437.21 924.802 1422.67 1023.81 1423.01 1065.97C1417.5 1040.06 1419.07 932.732 1394.66 919.463C1396.5 944.588 1380.66 985.966 1371.69 989.577C1378.83 946.08 1360.07 898.97 1348.51 872.707Z" fill="#FF5733"/>
<path d="M1465.42 835.192C1465.42 835.192 1442.99 845.085 1437.49 856.25C1431.57 868.145 1435.92 897.321 1435.92 897.321C1442.04 874.842 1451.69 854.083 1465.42 835.192ZM1348.51 872.707C1354.36 927.55 1325.43 971.833 1331.05 1014.47C1300.03 995.545 1302.33 929.827 1292.49 896.222C1287.32 907.45 1282.52 918.756 1278.23 930.22V1204.87H1601.77V962.725C1591.84 940.819 1586.88 915.616 1590.62 884.476C1550.99 909.648 1559.08 982.511 1564.79 1017.21C1541.75 1004.1 1504.57 983.453 1522.24 927.157C1498.79 941.84 1489.96 997.9 1484.38 1024.05C1486.97 989.813 1450.4 960.919 1462.16 895.673C1437.21 924.802 1422.67 1023.81 1423.01 1065.97C1417.5 1040.06 1419.07 932.732 1394.66 919.463C1396.5 944.588 1380.66 985.966 1371.69 989.577C1378.83 946.08 1360.07 898.97 1348.51 872.707Z" fill="#FF5733"/>
<g clip-path="url(#clip3_3_6)">
<path d="M1771.42 785.192C1771.42 785.192 1748.99 795.085 1743.49 806.25C1737.57 818.145 1741.92 847.321 1741.92 847.321C1748.04 824.842 1757.69 804.083 1771.42 785.192ZM1654.51 822.707C1660.36 877.55 1631.43 921.833 1637.05 964.467C1606.03 945.545 1608.33 879.827 1598.49 846.222C1593.32 857.45 1588.52 868.756 1584.23 880.22V1154.87H1907.77V912.725C1897.84 890.819 1892.88 865.616 1896.62 834.476C1856.99 859.648 1865.08 932.511 1870.79 967.215C1847.75 954.103 1810.57 933.453 1828.24 877.157C1804.79 891.84 1795.96 947.9 1790.38 974.046C1792.97 939.813 1756.4 910.919 1768.16 845.673C1743.21 874.802 1728.67 973.81 1729.01 1015.97C1723.5 990.063 1725.07 882.732 1700.66 869.463C1702.5 894.588 1686.66 935.966 1677.69 939.577C1684.83 896.08 1666.07 848.97 1654.51 822.707Z" fill="#C70039"/>
<path d="M1771.42 835.192C1771.42 835.192 1748.99 845.085 1743.49 856.25C1737.57 868.145 1741.92 897.321 1741.92 897.321C1748.04 874.842 1757.69 854.083 1771.42 835.192ZM1654.51 872.707C1660.36 927.55 1631.43 971.833 1637.05 1014.47C1606.03 995.545 1608.33 929.827 1598.49 896.222C1593.32 907.45 1588.52 918.756 1584.23 930.22V1204.87H1907.77V962.725C1897.84 940.819 1892.88 915.616 1896.62 884.476C1856.99 909.648 1865.08 982.511 1870.79 1017.21C1847.75 1004.1 1810.57 983.453 1828.24 927.157C1804.79 941.84 1795.96 997.9 1790.38 1024.05C1792.97 989.813 1756.4 960.919 1768.16 895.673C1743.21 924.802 1728.67 1023.81 1729.01 1065.97C1723.5 1040.06 1725.07 932.732 1700.66 919.463C1702.5 944.588 1686.66 985.966 1677.69 989.577C1684.83 946.08 1666.07 898.97 1654.51 872.707Z" fill="#FF5733"/>
</g>
<g clip-path="url(#clip4_3_6)">
<path d="M859.42 759.192C859.42 759.192 836.991 769.085 831.485 780.25C825.572 792.145 829.922 821.321 829.922 821.321C836.039 798.842 845.691 778.083 859.42 759.192ZM742.514 796.707C748.359 851.55 719.432 895.833 725.046 938.467C694.032 919.545 696.329 853.827 686.494 820.222C681.322 831.45 676.523 842.756 672.234 854.22V1128.87H995.766V886.725C985.842 864.819 980.88 839.616 984.619 808.476C944.993 833.648 953.081 906.511 958.791 941.215C935.749 928.103 898.57 907.453 916.242 851.157C892.793 865.84 883.957 921.9 878.384 948.046C880.966 913.813 844.399 884.919 856.158 819.673C831.213 848.802 816.668 947.81 817.008 989.973C811.502 964.063 813.066 856.732 788.665 843.463C790.5 868.588 774.663 909.966 765.691 913.577C772.828 870.08 754.069 822.97 742.514 796.707Z" fill="#C70039"/>
<path d="M859.42 794.192C859.42 794.192 836.991 804.085 831.485 815.25C825.572 827.145 829.922 856.321 829.922 856.321C836.039 833.842 845.691 813.083 859.42 794.192ZM742.514 831.707C748.359 886.55 719.432 930.833 725.046 973.467C694.032 954.545 696.329 888.827 686.494 855.222C681.322 866.45 676.523 877.756 672.234 889.22V1163.87H995.766V921.725C985.842 899.819 980.88 874.616 984.619 843.476C944.993 868.648 953.081 941.511 958.791 976.215C935.749 963.103 898.57 942.453 916.242 886.157C892.793 900.84 883.957 956.9 878.384 983.046C880.966 948.813 844.399 919.919 856.158 854.673C831.213 883.802 816.668 982.81 817.008 1024.97C811.502 999.063 813.066 891.732 788.665 878.463C790.5 903.588 774.663 944.966 765.691 948.577C772.828 905.08 754.069 857.97 742.514 831.707Z" fill="#FF5733"/>
</g>
<g clip-path="url(#clip5_3_6)">
<path d="M1159.42 740.192C1159.42 740.192 1136.99 750.085 1131.49 761.25C1125.57 773.145 1129.92 802.321 1129.92 802.321C1136.04 779.842 1145.69 759.083 1159.42 740.192ZM1042.51 777.707C1048.36 832.55 1019.43 876.833 1025.05 919.467C994.032 900.545 996.329 834.827 986.494 801.222C981.322 812.45 976.523 823.756 972.234 835.22V1109.87H1295.77V867.725C1285.84 845.819 1280.88 820.616 1284.62 789.476C1244.99 814.648 1253.08 887.511 1258.79 922.215C1235.75 909.103 1198.57 888.453 1216.24 832.157C1192.79 846.84 1183.96 902.9 1178.38 929.046C1180.97 894.813 1144.4 865.919 1156.16 800.673C1131.21 829.802 1116.67 928.81 1117.01 970.973C1111.5 945.063 1113.07 837.732 1088.66 824.463C1090.5 849.588 1074.66 890.966 1065.69 894.577C1072.83 851.08 1054.07 803.97 1042.51 777.707Z" fill="#C70039"/>
<path d="M1159.42 786.192C1159.42 786.192 1136.99 796.085 1131.49 807.25C1125.57 819.145 1129.92 848.321 1129.92 848.321C1136.04 825.842 1145.69 805.083 1159.42 786.192ZM1042.51 823.707C1048.36 878.55 1019.43 922.833 1025.05 965.467C994.032 946.545 996.329 880.827 986.494 847.222C981.322 858.45 976.523 869.756 972.234 881.22V1155.87H1295.77V913.725C1285.84 891.819 1280.88 866.616 1284.62 835.476C1244.99 860.648 1253.08 933.511 1258.79 968.215C1235.75 955.103 1198.57 934.453 1216.24 878.157C1192.79 892.84 1183.96 948.9 1178.38 975.046C1180.97 940.813 1144.4 911.919 1156.16 846.673C1131.21 875.802 1116.67 974.81 1117.01 1016.97C1111.5 991.063 1113.07 883.732 1088.66 870.463C1090.5 895.588 1074.66 936.966 1065.69 940.577C1072.83 897.08 1054.07 849.97 1042.51 823.707Z" fill="#FF5733"/>
</g>
</g>
<defs>
<clipPath id="clip0_3_6">
<rect width="1920" height="1080" fill="white"/>
</clipPath>
<clipPath id="clip1_3_6">
<rect width="348" height="402" fill="white" transform="translate(361 743)"/>
</clipPath>
<clipPath id="clip2_3_6">
<rect width="348" height="402" fill="white" transform="translate(48 761)"/>
</clipPath>
<clipPath id="clip3_3_6">
<rect width="348" height="402" fill="white" transform="translate(1572 767)"/>
</clipPath>
<clipPath id="clip4_3_6">
<rect width="348" height="402" fill="white" transform="translate(660 741)"/>
</clipPath>
<clipPath id="clip5_3_6">
<rect width="348" height="402" fill="white" transform="translate(960 722)"/>
</clipPath>
</defs>
</svg>
