<svg width="164" height="22" viewBox="0 0 164 22" fill="none" xmlns="http://www.w3.org/2000/svg">
<path d="M0.770281 12.376C0.770281 11.032 1.04228 9.856 1.58628 8.848C2.13028 7.824 2.87428 7.032 3.81828 6.472C4.77828 5.912 5.85028 5.632 7.03428 5.632C8.05828 5.632 9.01028 5.872 9.89028 6.352C10.7703 6.816 11.4423 7.432 11.9063 8.2V1.24H14.1143V19H11.9063V16.528C11.4743 17.312 10.8343 17.96 9.98628 18.472C9.13828 18.968 8.14628 19.216 7.01028 19.216C5.84228 19.216 4.77828 18.928 3.81828 18.352C2.87428 17.776 2.13028 16.968 1.58628 15.928C1.04228 14.888 0.770281 13.704 0.770281 12.376ZM11.9063 12.4C11.9063 11.408 11.7063 10.544 11.3063 9.808C10.9063 9.072 10.3623 8.512 9.67428 8.128C9.00228 7.728 8.25828 7.528 7.44228 7.528C6.62628 7.528 5.88228 7.72 5.21028 8.104C4.53828 8.488 4.00228 9.048 3.60228 9.784C3.20228 10.52 3.00228 11.384 3.00228 12.376C3.00228 13.384 3.20228 14.264 3.60228 15.016C4.00228 15.752 4.53828 16.32 5.21028 16.72C5.88228 17.104 6.62628 17.296 7.44228 17.296C8.25828 17.296 9.00228 17.104 9.67428 16.72C10.3623 16.32 10.9063 15.752 11.3063 15.016C11.7063 14.264 11.9063 13.392 11.9063 12.4ZM29.805 11.92C29.805 12.336 29.781 12.776 29.733 13.24H19.221C19.301 14.536 19.741 15.552 20.541 16.288C21.357 17.008 22.341 17.368 23.493 17.368C24.437 17.368 25.221 17.152 25.845 16.72C26.485 16.272 26.933 15.68 27.189 14.944H29.541C29.189 16.208 28.485 17.24 27.429 18.04C26.373 18.824 25.061 19.216 23.493 19.216C22.245 19.216 21.125 18.936 20.133 18.376C19.157 17.816 18.389 17.024 17.829 16C17.269 14.96 16.989 13.76 16.989 12.4C16.989 11.04 17.261 9.848 17.805 8.824C18.349 7.8 19.109 7.016 20.085 6.472C21.077 5.912 22.213 5.632 23.493 5.632C24.741 5.632 25.845 5.904 26.805 6.448C27.765 6.992 28.501 7.744 29.013 8.704C29.541 9.648 29.805 10.72 29.805 11.92ZM27.549 11.464C27.549 10.632 27.365 9.92 26.997 9.328C26.629 8.72 26.125 8.264 25.485 7.96C24.861 7.64 24.165 7.48 23.397 7.48C22.293 7.48 21.349 7.832 20.565 8.536C19.797 9.24 19.357 10.216 19.245 11.464H27.549ZM37.5838 16.984L41.6638 5.848H43.9918L38.8318 19H36.2878L31.1278 5.848H33.4798L37.5838 16.984ZM47.269 3.712C46.853 3.712 46.501 3.568 46.213 3.28C45.925 2.992 45.781 2.64 45.781 2.224C45.781 1.808 45.925 1.456 46.213 1.168C46.501 0.879999 46.853 0.735999 47.269 0.735999C47.669 0.735999 48.005 0.879999 48.277 1.168C48.565 1.456 48.709 1.808 48.709 2.224C48.709 2.64 48.565 2.992 48.277 3.28C48.005 3.568 47.669 3.712 47.269 3.712ZM48.325 5.848V19H46.141V5.848H48.325ZM54.2312 1.24V19H52.0472V1.24H54.2312ZM68.3445 7.648H65.5845V19H63.4005V7.648H61.6965V5.848H63.4005V4.912C63.4005 3.44 63.7765 2.368 64.5285 1.696C65.2965 1.008 66.5205 0.663999 68.2005 0.663999V2.488C67.2405 2.488 66.5605 2.68 66.1605 3.064C65.7765 3.432 65.5845 4.048 65.5845 4.912V5.848H68.3445V7.648ZM72.019 3.712C71.603 3.712 71.251 3.568 70.963 3.28C70.675 2.992 70.531 2.64 70.531 2.224C70.531 1.808 70.675 1.456 70.963 1.168C71.251 0.879999 71.603 0.735999 72.019 0.735999C72.419 0.735999 72.755 0.879999 73.027 1.168C73.315 1.456 73.459 1.808 73.459 2.224C73.459 2.64 73.315 2.992 73.027 3.28C72.755 3.568 72.419 3.712 72.019 3.712ZM73.075 5.848V19H70.891V5.848H73.075ZM83.2052 5.608C84.8052 5.608 86.1012 6.096 87.0932 7.072C88.0852 8.032 88.5812 9.424 88.5812 11.248V19H86.4212V11.56C86.4212 10.248 86.0932 9.248 85.4372 8.56C84.7812 7.856 83.8852 7.504 82.7492 7.504C81.5972 7.504 80.6772 7.864 79.9892 8.584C79.3172 9.304 78.9812 10.352 78.9812 11.728V19H76.7972V5.848H78.9812V7.72C79.4132 7.048 79.9972 6.528 80.7332 6.16C81.4852 5.792 82.3092 5.608 83.2052 5.608ZM91.3328 12.376C91.3328 11.032 91.6048 9.856 92.1488 8.848C92.6928 7.824 93.4368 7.032 94.3808 6.472C95.3408 5.912 96.4048 5.632 97.5728 5.632C98.7248 5.632 99.7248 5.88 100.573 6.376C101.421 6.872 102.053 7.496 102.469 8.248V5.848H104.677V19H102.469V16.552C102.037 17.32 101.389 17.96 100.525 18.472C99.6768 18.968 98.6848 19.216 97.5488 19.216C96.3808 19.216 95.3248 18.928 94.3808 18.352C93.4368 17.776 92.6928 16.968 92.1488 15.928C91.6048 14.888 91.3328 13.704 91.3328 12.376ZM102.469 12.4C102.469 11.408 102.269 10.544 101.869 9.808C101.469 9.072 100.925 8.512 100.237 8.128C99.5648 7.728 98.8208 7.528 98.0048 7.528C97.1888 7.528 96.4448 7.72 95.7728 8.104C95.1008 8.488 94.5648 9.048 94.1648 9.784C93.7648 10.52 93.5648 11.384 93.5648 12.376C93.5648 13.384 93.7648 14.264 94.1648 15.016C94.5648 15.752 95.1008 16.32 95.7728 16.72C96.4448 17.104 97.1888 17.296 98.0048 17.296C98.8208 17.296 99.5648 17.104 100.237 16.72C100.925 16.32 101.469 15.752 101.869 15.016C102.269 14.264 102.469 13.392 102.469 12.4ZM114.776 5.608C116.376 5.608 117.672 6.096 118.664 7.072C119.656 8.032 120.152 9.424 120.152 11.248V19H117.992V11.56C117.992 10.248 117.664 9.248 117.008 8.56C116.352 7.856 115.456 7.504 114.32 7.504C113.168 7.504 112.248 7.864 111.56 8.584C110.888 9.304 110.552 10.352 110.552 11.728V19H108.368V5.848H110.552V7.72C110.984 7.048 111.568 6.528 112.304 6.16C113.056 5.792 113.88 5.608 114.776 5.608ZM122.903 12.4C122.903 11.04 123.175 9.856 123.719 8.848C124.263 7.824 125.015 7.032 125.975 6.472C126.951 5.912 128.063 5.632 129.311 5.632C130.927 5.632 132.255 6.024 133.295 6.808C134.351 7.592 135.047 8.68 135.383 10.072H133.031C132.807 9.272 132.367 8.64 131.711 8.176C131.071 7.712 130.271 7.48 129.311 7.48C128.063 7.48 127.055 7.912 126.287 8.776C125.519 9.624 125.135 10.832 125.135 12.4C125.135 13.984 125.519 15.208 126.287 16.072C127.055 16.936 128.063 17.368 129.311 17.368C130.271 17.368 131.071 17.144 131.711 16.696C132.351 16.248 132.791 15.608 133.031 14.776H135.383C135.031 16.12 134.327 17.2 133.271 18.016C132.215 18.816 130.895 19.216 129.311 19.216C128.063 19.216 126.951 18.936 125.975 18.376C125.015 17.816 124.263 17.024 123.719 16C123.175 14.976 122.903 13.776 122.903 12.4ZM150.297 11.92C150.297 12.336 150.273 12.776 150.225 13.24H139.713C139.793 14.536 140.233 15.552 141.033 16.288C141.849 17.008 142.833 17.368 143.985 17.368C144.929 17.368 145.713 17.152 146.337 16.72C146.977 16.272 147.425 15.68 147.681 14.944H150.033C149.681 16.208 148.977 17.24 147.921 18.04C146.865 18.824 145.553 19.216 143.985 19.216C142.737 19.216 141.617 18.936 140.625 18.376C139.649 17.816 138.881 17.024 138.321 16C137.761 14.96 137.481 13.76 137.481 12.4C137.481 11.04 137.753 9.848 138.297 8.824C138.841 7.8 139.601 7.016 140.577 6.472C141.569 5.912 142.705 5.632 143.985 5.632C145.233 5.632 146.337 5.904 147.297 6.448C148.257 6.992 148.993 7.744 149.505 8.704C150.033 9.648 150.297 10.72 150.297 11.92ZM148.041 11.464C148.041 10.632 147.857 9.92 147.489 9.328C147.121 8.72 146.617 8.264 145.977 7.96C145.353 7.64 144.657 7.48 143.889 7.48C142.785 7.48 141.841 7.832 141.057 8.536C140.289 9.24 139.849 10.216 139.737 11.464H148.041Z" fill="#F2F2F2"/>
<path d="M58.6495 19.144C58.2335 19.144 57.8815 19 57.5935 18.712C57.3055 18.424 57.1615 18.072 57.1615 17.656C57.1615 17.24 57.3055 16.888 57.5935 16.6C57.8815 16.312 58.2335 16.168 58.6495 16.168C59.0495 16.168 59.3855 16.312 59.6575 16.6C59.9455 16.888 60.0895 17.24 60.0895 17.656C60.0895 18.072 59.9455 18.424 59.6575 18.712C59.3855 19 59.0495 19.144 58.6495 19.144ZM163.98 14.416C163.98 15.184 163.788 15.92 163.404 16.624C163.02 17.312 162.452 17.888 161.7 18.352C160.964 18.816 160.076 19.08 159.036 19.144V21.088H157.74V19.144C156.284 19.016 155.1 18.552 154.188 17.752C153.276 16.936 152.812 15.904 152.796 14.656H155.124C155.188 15.328 155.436 15.912 155.868 16.408C156.316 16.904 156.94 17.216 157.74 17.344V11.344C156.668 11.072 155.804 10.792 155.148 10.504C154.492 10.216 153.932 9.768 153.468 9.16C153.004 8.552 152.772 7.736 152.772 6.712C152.772 5.416 153.22 4.344 154.116 3.496C155.028 2.648 156.236 2.176 157.74 2.08V0.0879989H159.036V2.08C160.396 2.192 161.492 2.632 162.324 3.4C163.156 4.152 163.636 5.136 163.764 6.352H161.436C161.356 5.792 161.108 5.288 160.692 4.84C160.276 4.376 159.724 4.072 159.036 3.928V9.784C160.092 10.056 160.948 10.336 161.604 10.624C162.276 10.896 162.836 11.336 163.284 11.944C163.748 12.552 163.98 13.376 163.98 14.416ZM155.004 6.592C155.004 7.376 155.236 7.976 155.7 8.392C156.164 8.808 156.844 9.152 157.74 9.424V3.88C156.908 3.96 156.244 4.232 155.748 4.696C155.252 5.144 155.004 5.776 155.004 6.592ZM159.036 17.368C159.9 17.272 160.572 16.96 161.052 16.432C161.548 15.904 161.796 15.272 161.796 14.536C161.796 13.752 161.556 13.152 161.076 12.736C160.596 12.304 159.916 11.96 159.036 11.704V17.368Z" fill="#C70039"/>
</svg>
