<svg width="28" height="28" viewBox="0 0 28 28" fill="none" xmlns="http://www.w3.org/2000/svg">
<path d="M5.63445 0.89895C4.77913 1.718 3.98562 4.28323 4.98175 6.06342C9.03913 13.3148 4.8376 16.9079 2.8216 11.134C1.29144 16.0361 3.19588 21.9452 8.35706 24.9255L11.4212 21.8613L10.4795 20.9059C9.25853 19.6879 9.21533 17.7111 10.4352 16.4934L12.6807 14.2478L12.1902 13.7591L15.3262 12.6038L14.1693 15.7329L13.6907 15.2561L11.4502 17.4641C10.7674 18.1457 10.765 19.2072 11.4502 19.8909L12.4209 20.8616L16.4508 16.8317L15.7005 16.0832L19.8465 14.5553L18.3169 18.6928L17.4659 17.8435L13.4258 21.8664L14.4496 22.8902C15.1345 23.572 16.1926 23.5723 16.8763 22.8901L19.2996 20.4667L18.8194 19.9866L21.9554 18.8313L20.7983 21.9605L20.2976 21.4613L17.8897 23.9052C16.6691 25.1229 14.6555 25.1211 13.4343 23.9052L12.4157 22.8714L9.68132 25.5921C11.4984 26.3833 13.645 26.8447 16.1175 26.8447C29.8273 26.8447 29.1758 9.81367 20.8206 7.60495C22.6863 9.6612 20.958 12.1367 18.0075 11.7459C14.3596 11.2626 14.077 7.73675 14.7878 6.30612C16.1315 3.60155 13.8275 0.754794 9.69335 1.01002C15.3557 5.23479 6.78797 9.90226 5.63445 0.89895Z" fill="#4A0404"/>
</svg>
