<svg width="300" height="300" viewBox="0 0 300 300" fill="none" xmlns="http://www.w3.org/2000/svg">
<g clip-path="url(#clip0_16_41)">
<path d="M90.57 9.29L87.61 18.58C69.52 18.58 68.15 18.62 68.19 18.84C68.21 18.98 71.58 21.52 75.65 24.46C79.74 27.42 83.25 29.95 83.44 30.08C83.8 30.32 83.73 30.56 80.76 39.61C79.09 44.71 77.77 48.92 77.83 48.97C77.89 49.03 78.12 48.95 78.33 48.81C78.56 48.67 82.03 46.15 86.07 43.22C90.1 40.28 93.49 37.81 93.58 37.73C93.69 37.66 97.05 39.99 101.45 43.21C105.68 46.3 109.25 48.87 109.38 48.94C109.5 49 109.64 49.02 109.7 48.96C109.76 48.91 108.45 44.68 106.79 39.55C105.13 34.43 103.8 30.22 103.83 30.22C103.87 30.21 107.41 27.64 111.73 24.51C116.04 21.39 119.51 18.77 119.43 18.69C119.35 18.62 114.92 18.53 109.6 18.51L99.91 18.46C94.86 2.51 94 0 93.8 0C93.6 0 92.73 2.54 90.57 9.29ZM203.73 9.24L200.77 18.49C185.78 18.56 181.36 18.65 181.28 18.72C181.18 18.79 184.65 21.41 188.96 24.54C193.27 27.66 196.82 30.24 196.86 30.25C196.9 30.25 195.56 34.46 193.9 39.58C192.24 44.71 190.93 48.94 190.99 48.99C191.05 49.05 191.19 49.03 191.31 48.97C191.44 48.9 195.01 46.33 199.24 43.24C203.64 40.02 207 37.69 207.11 37.76C207.21 37.84 210.6 40.31 214.62 43.25C218.66 46.18 222.13 48.69 222.36 48.84C222.58 48.97 222.8 49.06 222.86 49C222.92 48.95 221.6 44.73 219.93 39.64C216.96 30.59 216.89 30.35 217.25 30.11C217.44 29.98 220.95 27.44 225.04 24.49C229.11 21.55 232.48 19.01 232.5 18.87C232.54 18.64 231.17 18.61 222.81 18.61H213.07C208.06 2.69 207.12 0 206.94 0C206.76 0 205.82 2.69 203.73 9.24Z" fill="#FEDD22"/>
<path d="M142.12 51.54C140.92 51.64 138.39 51.88 136.5 52.09C134.61 52.29 131.64 52.7 129.9 53C128.16 53.29 125.42 53.82 123.83 54.17C122.23 54.52 119.71 55.14 118.22 55.54C116.73 55.94 113.99 56.77 112.15 57.37C110.31 57.97 107.79 58.85 106.54 59.32C105.3 59.79 103.17 60.64 101.83 61.22C100.5 61.78 98.01 62.93 96.31 63.74C94.61 64.55 91.8 66.02 90.06 67C88.32 67.97 85.55 69.62 83.91 70.67C82.26 71.72 79.74 73.42 78.3 74.44C76.86 75.47 74.54 77.23 73.14 78.35C71.75 79.47 69.67 81.2 68.51 82.2C67.37 83.21 65.06 85.37 63.38 87.02C61.71 88.67 59.41 91.02 58.28 92.27C57.15 93.51 55.4 95.55 54.37 96.79C53.35 98.04 51.65 100.19 50.61 101.59C49.56 102.98 47.71 105.64 46.5 107.48C45.29 109.32 43.5 112.22 42.52 113.91C41.56 115.59 40.03 118.45 39.13 120.24C38.23 122.03 37.13 124.31 36.69 125.3C36.25 126.3 35.39 128.34 34.79 129.83C34.2 131.32 33.22 133.96 32.63 135.71C32.04 137.46 31.16 140.27 30.67 141.96C30.19 143.65 29.47 146.5 29.07 148.29C28.66 150.08 28.12 152.72 27.88 154.17C27.63 155.62 27.29 157.69 27.15 158.79C27.01 159.9 26.75 162.01 26.61 163.5C26.45 164.99 26.24 168.33 26.12 170.93C25.96 174.54 25.96 176.72 26.12 180.34C26.24 182.92 26.46 186.27 26.61 187.76C26.75 189.25 27.01 191.38 27.15 192.47C27.29 193.56 27.63 195.64 27.88 197.09C28.12 198.53 28.66 201.18 29.07 202.97C29.47 204.76 30.12 207.37 30.51 208.76C30.89 210.15 31.63 212.56 32.14 214.1C32.64 215.65 33.4 217.85 33.82 218.99C34.25 220.13 35.02 222.09 35.55 223.33C36.07 224.58 37.04 226.78 37.71 228.22C38.37 229.66 39.58 232.09 40.4 233.6C41.21 235.11 42.64 237.65 43.57 239.21C44.5 240.77 46.06 243.24 47.03 244.69C48 246.13 49.71 248.54 50.83 250.03C51.96 251.52 53.93 254.01 55.23 255.55C56.53 257.1 58.7 259.54 60.07 260.98C61.44 262.42 63.71 264.69 65.12 266.03C66.53 267.35 68.94 269.5 70.48 270.8C72.03 272.1 74.51 274.07 76.01 275.19C77.5 276.32 80.06 278.12 81.71 279.22C83.36 280.31 85.8 281.85 87.14 282.66C88.49 283.45 90.72 284.72 92.12 285.46C93.51 286.21 96.05 287.47 97.73 288.26C99.42 289.07 102.29 290.32 104.08 291.04C105.87 291.76 108.89 292.87 110.77 293.52C112.67 294.16 115.52 295.03 117.1 295.48C118.7 295.92 121.22 296.57 122.72 296.91C124.21 297.25 126.57 297.74 127.96 297.99C129.35 298.23 131.31 298.57 132.31 298.71C133.31 298.87 135.27 299.11 136.66 299.26C138.05 299.42 140.29 299.62 141.64 299.72C142.99 299.82 145.67 299.95 147.61 300.01C149.58 300.08 153.07 300.03 155.48 299.93C157.87 299.81 161.06 299.59 162.55 299.45C164.04 299.31 166.16 299.05 167.26 298.91C168.35 298.77 170.43 298.43 171.88 298.18C173.32 297.94 175.97 297.4 177.76 297C179.56 296.59 182.41 295.87 184.11 295.39C185.8 294.91 188.61 294.02 190.35 293.43C192.09 292.84 194.54 291.95 195.78 291.45C197.03 290.96 199.03 290.12 200.23 289.6C201.42 289.08 204.15 287.77 206.29 286.7C208.43 285.62 211.77 283.78 213.72 282.61C215.67 281.46 217.87 280.09 218.61 279.59C219.36 279.09 221.06 277.9 222.41 276.95C223.76 276 226.05 274.26 227.53 273.09C229 271.91 230.96 270.29 231.87 269.48C232.8 268.67 234.65 266.98 235.98 265.73C237.31 264.47 239.55 262.22 240.94 260.72C242.33 259.23 244.47 256.81 245.7 255.34C246.94 253.87 248.81 251.52 249.87 250.1C250.93 248.68 252.67 246.22 253.73 244.62C254.79 243.03 256.31 240.63 257.12 239.28C257.93 237.93 259.14 235.82 259.81 234.57C260.5 233.33 261.64 231.08 262.36 229.59C263.07 228.1 264.15 225.73 264.74 224.34C265.34 222.95 266.36 220.39 267.01 218.64C267.66 216.89 268.56 214.25 269.03 212.75C269.5 211.26 270.32 208.33 270.84 206.24C271.38 204.15 272.1 200.94 272.45 199.09C272.8 197.25 273.24 194.57 273.45 193.12C273.65 191.68 273.94 189.27 274.09 187.78C274.25 186.29 274.46 182.95 274.58 180.36C274.74 176.74 274.74 174.55 274.58 170.95C274.46 168.35 274.24 165.01 274.09 163.52C273.95 162.03 273.62 159.39 273.37 157.64C273.12 155.9 272.62 153.04 272.28 151.29C271.93 149.56 271.4 147.16 271.1 145.95C270.8 144.76 270.23 142.64 269.83 141.25C269.43 139.86 268.7 137.49 268.2 136C267.7 134.51 266.76 131.94 266.11 130.29C265.46 128.66 264.25 125.81 263.41 123.96C262.57 122.12 261.15 119.24 260.24 117.54C259.34 115.85 257.98 113.44 257.24 112.19C256.49 110.95 255.05 108.67 254.03 107.13C253.02 105.58 251.21 103.02 250.02 101.42C248.83 99.83 246.94 97.43 245.81 96.08C244.69 94.73 242.53 92.31 241.03 90.67C239.52 89.05 236.93 86.46 235.3 84.94C233.65 83.43 231.21 81.26 229.87 80.13C228.52 79.01 226.12 77.11 224.52 75.92C222.93 74.73 220.24 72.84 218.55 71.73C216.86 70.62 214.57 69.18 213.48 68.53C212.39 67.88 210.19 66.66 208.6 65.8C207 64.95 204.48 63.68 202.99 62.99C201.49 62.3 199.46 61.39 198.46 60.96C197.46 60.54 195.62 59.81 194.39 59.34C193.14 58.87 190.62 57.99 188.78 57.39C186.94 56.79 184.2 55.96 182.71 55.56C181.22 55.16 178.7 54.54 177.1 54.19C175.51 53.84 173.03 53.35 171.58 53.1C170.14 52.85 167.65 52.49 166.05 52.28C164.46 52.09 162.22 51.84 161.07 51.73C159.93 51.62 155.69 51.5 151.65 51.47C147.59 51.4 143.31 51.45 142.12 51.54Z" fill="#FEFEFE"/>
<path d="M145.28 52.17C144.63 52.21 142.84 52.33 141.3 52.43C139.75 52.54 137.19 52.79 135.59 52.98C134 53.17 131.26 53.58 129.52 53.88C127.78 54.18 125.1 54.7 123.55 55.05C122.01 55.4 119.52 56.01 118.03 56.42C116.54 56.83 113.64 57.71 111.6 58.39C109.56 59.06 106.71 60.08 105.27 60.66C103.83 61.24 101.14 62.38 99.3 63.22C97.45 64.05 94.52 65.5 92.77 66.43C91.03 67.37 88.47 68.81 87.07 69.65C85.68 70.49 83.31 71.99 81.82 72.99C80.32 74 77.94 75.68 76.52 76.74C75.1 77.8 72.73 79.67 71.27 80.91C69.8 82.14 67.3 84.36 65.72 85.84C64.12 87.32 61.59 89.88 60.07 91.52C58.54 93.15 56.56 95.4 55.65 96.5C54.75 97.59 53.27 99.42 52.38 100.57C51.5 101.71 50.04 103.71 49.12 105C48.22 106.29 46.78 108.45 45.92 109.8C45.07 111.15 43.71 113.42 42.88 114.86C42.06 116.3 40.66 118.96 39.77 120.75C38.87 122.54 37.61 125.23 36.96 126.72C36.31 128.21 35.3 130.73 34.7 132.33C34.1 133.92 33.19 136.52 32.67 138.12C32.15 139.71 31.29 142.72 30.76 144.81C30.22 146.9 29.5 150.04 29.15 151.78C28.81 153.52 28.36 156.12 28.15 157.57C27.95 159.01 27.66 161.28 27.51 162.63C27.37 163.98 27.15 166.58 27.03 168.42C26.9 170.51 26.85 173.98 26.92 177.65C26.97 180.88 27.1 184.51 27.22 185.7C27.33 186.9 27.58 189.22 27.78 190.87C27.98 192.5 28.36 195.03 28.6 196.48C28.84 197.92 29.33 200.4 29.68 202C30.04 203.59 30.65 206.12 31.05 207.61C31.46 209.1 32.31 211.95 32.96 213.94C33.61 215.94 34.8 219.19 35.59 221.18C36.4 223.18 37.66 226.11 38.4 227.69C39.16 229.29 40.42 231.81 41.21 233.3C42 234.8 43.31 237.12 44.11 238.47C44.92 239.8 46.44 242.21 47.5 243.81C48.56 245.4 50.41 248 51.61 249.6C52.81 251.19 54.54 253.39 55.46 254.48C56.37 255.57 58.04 257.5 59.17 258.73C60.3 259.98 62.48 262.22 64 263.72C65.53 265.21 67.76 267.29 68.95 268.34C70.14 269.39 71.94 270.9 72.93 271.71C73.93 272.5 75.85 273.98 77.2 274.98C78.53 275.98 81.07 277.73 82.81 278.89C84.55 280.03 87.11 281.63 88.51 282.45C89.9 283.27 92.72 284.77 94.76 285.8C96.8 286.83 99.33 288.06 100.37 288.52C101.42 288.99 103.45 289.84 104.9 290.42C106.34 291 108.87 291.93 110.51 292.5C112.14 293.06 114.6 293.85 115.94 294.23C117.27 294.61 119.52 295.22 120.92 295.56C122.31 295.91 124.67 296.44 126.17 296.74C127.66 297.04 130.23 297.49 131.87 297.74C133.52 297.99 136.04 298.33 137.48 298.47C138.92 298.63 141.41 298.83 143.01 298.93C144.6 299.04 148.02 299.12 150.62 299.12C153.2 299.11 156.51 299.04 157.95 298.94C159.39 298.83 161.47 298.66 162.57 298.57C163.66 298.46 166.03 298.16 167.82 297.92C169.61 297.67 172.51 297.19 174.25 296.84C175.99 296.49 179.13 295.77 181.22 295.24C183.31 294.7 186.45 293.8 188.19 293.23C189.93 292.65 192.75 291.67 194.43 291.02C196.12 290.37 198.78 289.28 200.32 288.58C201.87 287.89 204.75 286.5 206.75 285.47C208.75 284.45 211.51 282.93 212.9 282.1C214.29 281.27 216.75 279.73 218.33 278.69C219.93 277.63 222.54 275.79 224.12 274.59C225.72 273.4 228 271.61 229.18 270.61C230.37 269.61 232.21 268.03 233.25 267.08C234.3 266.13 236.29 264.22 237.68 262.83C239.06 261.44 241.23 259.15 242.46 257.76C243.7 256.37 245.62 254.09 246.74 252.7C247.86 251.31 249.44 249.23 250.29 248.08C251.12 246.93 252.63 244.73 253.64 243.19C254.65 241.65 256.18 239.2 257.02 237.76C257.86 236.32 259.17 233.96 259.93 232.52C260.69 231.07 261.85 228.71 262.51 227.27C263.17 225.83 264.31 223.17 265.03 221.38C265.75 219.59 266.81 216.74 267.37 215.05C267.93 213.36 268.76 210.71 269.2 209.17C269.63 207.62 270.23 205.35 270.53 204.1C270.82 202.86 271.28 200.76 271.53 199.44C271.79 198.13 272.15 196.05 272.35 194.82C272.55 193.61 272.88 191.14 273.07 189.35C273.27 187.56 273.53 184.78 273.62 183.2C273.73 181.6 273.81 178.18 273.81 175.59C273.81 173.01 273.73 169.58 273.62 167.99C273.52 166.39 273.27 163.63 273.07 161.84C272.88 160.04 272.47 157.1 272.17 155.31C271.87 153.52 271.3 150.59 270.91 148.8C270.52 147.01 269.82 144.24 269.38 142.65C268.94 141.06 268.01 138.08 267.31 136.04C266.61 134.01 265.6 131.23 265.06 129.89C264.52 128.56 263.61 126.39 263.03 125.09C262.44 123.8 261.3 121.44 260.49 119.85C259.68 118.25 258.34 115.76 257.51 114.32C256.68 112.88 255.27 110.56 254.37 109.16C253.48 107.77 252 105.57 251.08 104.27C250.17 102.98 248.62 100.9 247.64 99.65C246.65 98.41 244.92 96.3 243.77 94.95C242.62 93.6 240.16 90.97 238.31 89.1C236.47 87.21 233.74 84.62 232.26 83.31C230.78 82 228.43 80 227.02 78.89C225.6 77.76 223.27 76.01 221.83 74.97C220.39 73.94 218.07 72.36 216.67 71.47C215.28 70.58 212.99 69.2 211.6 68.41C210.21 67.62 208.21 66.51 207.17 65.95C206.12 65.4 203.96 64.34 202.36 63.59C200.77 62.86 198.05 61.68 196.3 60.97C194.56 60.27 191.9 59.28 190.41 58.76C188.92 58.26 186.47 57.47 184.98 57.04C183.49 56.6 181.24 55.98 180 55.67C178.75 55.36 176.14 54.79 174.21 54.41C172.26 54.03 169.16 53.5 167.32 53.26C165.48 53.01 162.55 52.67 160.81 52.51C159.07 52.35 155.11 52.2 152.02 52.16C148.99 52.14 145.93 52.14 145.28 52.17Z" fill="#006CB5"/>
<path d="M145.64 60.7C144.89 60.74 142.78 60.89 140.94 61.04C139.09 61.2 136.41 61.48 134.95 61.69C133.51 61.88 130.83 62.34 128.98 62.69C127.14 63.04 124.5 63.62 123.1 63.96C121.71 64.31 119.3 64.96 117.75 65.41C116.21 65.85 113.48 66.76 111.69 67.41C109.89 68.06 107.16 69.13 105.62 69.78C104.07 70.43 101.02 71.87 98.83 72.99C96.64 74.1 93.54 75.78 91.94 76.74C90.35 77.69 87.99 79.18 86.69 80.05C85.4 80.93 83.12 82.55 81.63 83.67C80.13 84.8 78.01 86.47 76.92 87.38C75.83 88.29 73.66 90.2 72.12 91.63C70.57 93.05 68.12 95.51 66.65 97.09C65.2 98.66 63.25 100.85 62.32 101.96C61.41 103.05 59.66 105.25 58.47 106.84C57.27 108.44 55.45 111 54.44 112.55C53.43 114.09 51.93 116.49 51.11 117.89C50.29 119.28 48.67 122.34 47.5 124.68C46.33 127.01 44.94 129.99 44.41 131.28C43.87 132.58 42.96 134.95 42.37 136.53C41.78 138.13 40.9 140.77 40.41 142.42C39.92 144.05 39.23 146.54 38.87 147.94C38.52 149.33 37.96 151.89 37.61 153.64C37.27 155.38 36.78 158.32 36.54 160.15C36.29 162 35.99 164.65 35.85 166.04C35.69 167.66 35.61 171.24 35.61 175.99C35.62 181.72 35.69 184.11 35.93 186.49C36.1 188.18 36.45 190.95 36.7 192.64C36.95 194.33 37.4 196.93 37.7 198.43C38 199.92 38.63 202.61 39.07 204.4C39.53 206.19 40.49 209.45 41.22 211.64C41.94 213.83 42.91 216.6 43.4 217.79C43.87 218.99 44.72 221.02 45.3 222.32C45.88 223.61 46.91 225.81 47.61 227.2C48.31 228.59 49.68 231.12 50.64 232.81C51.61 234.5 53.32 237.27 54.44 238.96C55.56 240.65 57.44 243.35 58.65 244.93C59.85 246.53 61.86 249.03 63.12 250.49C64.38 251.96 66.52 254.31 67.89 255.72C69.26 257.14 71.36 259.19 72.57 260.3C73.77 261.41 75.68 263.09 76.82 264.05C77.96 265 80.11 266.71 81.62 267.82C83.11 268.95 85.6 270.7 87.14 271.71C88.69 272.73 90.81 274.08 91.85 274.7C92.9 275.33 95.1 276.55 96.74 277.43C98.37 278.32 101.24 279.71 103.07 280.55C104.91 281.38 107.81 282.59 109.5 283.24C111.19 283.89 113.63 284.77 114.93 285.19C116.22 285.61 118.7 286.34 120.45 286.82C122.19 287.29 125.21 288.01 127.16 288.42C129.1 288.82 132.11 289.36 133.85 289.61C135.59 289.86 138.44 290.21 140.18 290.38C142.62 290.62 145.02 290.7 150.6 290.7C156.22 290.7 158.54 290.63 161.01 290.38C162.75 290.21 165.57 289.86 167.26 289.62C168.94 289.38 171.76 288.89 173.5 288.54C175.24 288.18 177.9 287.57 179.39 287.18C180.88 286.79 183.33 286.1 184.82 285.64C186.31 285.17 188.97 284.27 190.71 283.61C192.45 282.96 195.34 281.78 197.13 280.99C198.93 280.2 201.66 278.9 203.2 278.09C204.75 277.28 206.87 276.14 207.91 275.53C208.96 274.93 210.95 273.7 212.34 272.83C213.73 271.94 216.05 270.38 217.5 269.34C218.94 268.29 221.07 266.71 222.21 265.78C223.35 264.87 225.14 263.38 226.19 262.47C227.24 261.57 229.22 259.73 230.61 258.38C231.99 257.03 234.07 254.92 235.21 253.68C236.36 252.43 238.12 250.43 239.12 249.25C240.12 248.05 241.78 245.93 242.82 244.54C243.86 243.15 245.63 240.62 246.75 238.93C247.87 237.24 249.44 234.71 250.26 233.32C251.08 231.93 252.68 228.92 253.81 226.63C254.95 224.35 256.39 221.21 257.03 219.66C257.67 218.12 258.6 215.68 259.12 214.23C259.64 212.79 260.38 210.52 260.79 209.17C261.19 207.82 261.8 205.66 262.14 204.37C262.49 203.07 263.09 200.38 263.49 198.4C263.89 196.4 264.38 193.64 264.57 192.25C264.77 190.86 265.07 188.45 265.23 186.9C265.4 185.23 265.55 181.54 265.61 177.77C265.67 173.84 265.63 170.26 265.5 168.36C265.39 166.67 265.18 164.18 265.02 162.83C264.88 161.5 264.5 158.89 264.2 157.04C263.9 155.2 263.37 152.44 263.02 150.89C262.68 149.35 262.06 146.86 261.66 145.37C261.25 143.88 260.45 141.24 259.87 139.49C259.29 137.75 258.24 134.85 257.51 133.06C256.78 131.27 255.61 128.58 254.91 127.09C254.2 125.6 253.02 123.23 252.28 121.84C251.55 120.45 250.2 118.09 249.31 116.59C248.41 115.1 246.93 112.78 246.02 111.43C245.12 110.08 243.64 108.02 242.75 106.81C241.86 105.62 240.24 103.58 239.16 102.29C238.09 100.99 236.05 98.68 234.64 97.15C233.22 95.62 230.77 93.17 229.17 91.69C227.57 90.21 225.37 88.26 224.28 87.35C223.19 86.42 221.07 84.77 219.58 83.64C218.08 82.52 215.79 80.9 214.51 80.02C213.21 79.15 210.84 77.66 209.26 76.71C207.66 75.75 204.57 74.07 202.37 72.96C200.18 71.84 197.13 70.4 195.58 69.75C194.04 69.1 191.31 68.03 189.52 67.38C187.73 66.73 184.99 65.83 183.45 65.38C181.91 64.92 179.51 64.27 178.11 63.93C176.72 63.58 174.06 63 172.22 62.66C170.38 62.31 167.69 61.85 166.25 61.66C164.81 61.46 162.2 61.17 160.46 61.01C158.72 60.85 154.97 60.7 152.13 60.66C149.33 60.65 146.39 60.65 145.64 60.7Z" fill="#FEFEFE"/>
<path d="M142.84 68.01C141.75 68.09 139.7 68.3 138.31 68.45C136.92 68.61 134.39 68.97 132.7 69.26C131.01 69.55 128.65 69.99 127.45 70.26C126.26 70.52 124.06 71.07 122.56 71.46C121.07 71.87 118.55 72.61 116.95 73.14C115.36 73.67 112.67 74.64 110.98 75.32C109.29 75.99 106.68 77.11 105.19 77.81C103.7 78.51 101.33 79.68 99.94 80.44C98.55 81.19 96.39 82.41 95.14 83.17C93.89 83.92 91.94 85.15 90.79 85.92C89.65 86.69 87.57 88.17 86.17 89.2C84.78 90.25 82.78 91.81 81.74 92.69C80.69 93.57 78.62 95.41 77.12 96.78C75.63 98.15 73.25 100.53 71.84 102.06C70.42 103.59 68.56 105.7 67.68 106.75C66.8 107.8 65.24 109.79 64.19 111.18C63.16 112.57 61.68 114.64 60.91 115.8C60.14 116.94 58.9 118.9 58.15 120.14C57.4 121.39 56.18 123.54 55.42 124.94C54.66 126.33 53.46 128.74 52.75 130.28C52.03 131.83 50.98 134.27 50.39 135.71C49.81 137.15 48.96 139.44 48.5 140.78C48.04 142.13 47.31 144.45 46.88 145.94C46.45 147.43 45.8 149.92 45.44 151.47C45.09 153.01 44.55 155.7 44.26 157.44C43.96 159.17 43.55 162.07 43.35 163.86C43.15 165.65 42.89 169.08 42.79 171.47C42.63 174.72 42.63 176.93 42.79 180.24C42.91 182.68 43.16 186.11 43.37 187.85C43.56 189.59 43.97 192.39 44.26 194.09C44.55 195.78 45.07 198.39 45.4 199.88C45.75 201.37 46.41 203.94 46.88 205.59C47.35 207.22 48.06 209.51 48.45 210.65C48.85 211.79 49.75 214.2 50.46 216C51.18 217.79 52.62 221 53.68 223.14C54.74 225.28 56.24 228.14 57.01 229.49C57.79 230.82 59.27 233.23 60.32 234.83C61.37 236.42 63.14 238.94 64.27 240.44C65.39 241.93 66.85 243.81 67.52 244.6C68.19 245.39 69.53 246.94 70.51 248.04C71.48 249.13 73.57 251.3 75.15 252.84C76.74 254.39 78.89 256.39 79.93 257.29C80.98 258.19 82.44 259.42 83.19 260.02C83.94 260.62 85.49 261.81 86.63 262.66C87.77 263.5 90.02 265.05 91.61 266.1C93.21 267.16 95.61 268.64 96.96 269.42C98.31 270.19 101.07 271.64 103.11 272.65C105.15 273.66 107.88 274.93 109.18 275.46C110.47 276 112.75 276.88 114.24 277.42C115.74 277.96 118.42 278.83 120.23 279.36C122.02 279.89 124.75 280.61 126.29 280.97C127.84 281.33 130.28 281.82 131.72 282.08C133.16 282.33 135.61 282.71 137.15 282.9C138.7 283.09 141.1 283.34 142.5 283.46C143.89 283.59 147.6 283.69 150.73 283.69C154.61 283.68 157.51 283.58 159.78 283.38C161.63 283.21 164.28 282.91 165.67 282.71C167.06 282.52 169.5 282.11 171.1 281.81C172.7 281.5 175.58 280.85 177.53 280.36C179.47 279.87 182.6 278.94 184.5 278.3C186.39 277.68 189.2 276.64 190.75 276.02C192.29 275.41 194.81 274.3 196.36 273.58C197.9 272.86 200.15 271.74 201.34 271.09C202.53 270.45 204.45 269.37 205.59 268.7C206.73 268.01 208.9 266.66 210.39 265.66C211.89 264.66 214.09 263.12 215.28 262.22C216.47 261.32 218.14 260.01 218.99 259.31C219.83 258.61 221.5 257.17 222.7 256.1C223.89 255.04 226.26 252.76 227.95 251.03C229.63 249.29 232.01 246.69 233.21 245.25C234.41 243.81 236.13 241.66 237.03 240.47C237.93 239.27 239.35 237.27 240.19 236.04C241.02 234.79 242.37 232.67 243.17 231.33C243.98 229.98 245.19 227.87 245.87 226.63C246.54 225.38 247.53 223.42 248.07 222.28C248.61 221.14 249.51 219.14 250.07 217.85C250.62 216.55 251.5 214.32 252.03 212.87C252.56 211.43 253.35 209.06 253.8 207.62C254.26 206.18 254.95 203.69 255.35 202.1C255.75 200.5 256.32 197.94 256.61 196.39C256.91 194.85 257.28 192.7 257.44 191.59C257.6 190.5 257.85 188.5 257.99 187.16C258.15 185.83 258.36 182.73 258.48 180.29C258.64 176.89 258.64 174.82 258.48 171.42C258.36 168.98 258.14 165.89 257.99 164.55C257.85 163.2 257.59 161.21 257.44 160.12C257.28 159.03 256.91 156.86 256.61 155.32C256.32 153.77 255.71 151.04 255.25 149.25C254.81 147.46 253.8 144.08 253.01 141.74C252.24 139.41 251.05 136.19 250.39 134.59C249.73 133 248.43 130.16 247.49 128.26C246.56 126.37 245.1 123.61 244.23 122.11C243.36 120.62 241.8 118.1 240.74 116.5C239.69 114.91 238.16 112.71 237.35 111.62C236.53 110.53 235.03 108.6 234.01 107.37C232.99 106.12 230.99 103.85 229.59 102.31C228.17 100.77 225.8 98.38 224.3 97C222.81 95.62 220.38 93.5 218.9 92.29C217.42 91.08 214.96 89.19 213.43 88.1C211.89 87.01 209.6 85.44 208.32 84.64C207.05 83.82 204.99 82.58 203.74 81.88C202.5 81.16 200.01 79.86 198.22 78.97C196.43 78.08 193.65 76.82 192.07 76.16C190.47 75.5 187.92 74.51 186.41 73.97C184.88 73.43 182.24 72.59 180.52 72.08C178.8 71.59 176.1 70.89 174.5 70.53C172.91 70.17 170.22 69.64 168.53 69.36C166.84 69.07 164.35 68.72 163.01 68.57C161.66 68.41 159.42 68.21 158.02 68.1C156.63 68 153.08 67.93 150.15 67.94C147.23 67.86 143.94 67.94 142.84 68.01Z" fill="#006CB5"/>
<path d="M149.66 73.76C149.65 74.18 149.47 79.1 149.28 84.7C149.08 90.3 148.93 94.89 148.96 94.9C148.98 94.91 152.41 95.04 156.58 95.18C163.29 95.4 164.16 95.4 164.31 95.16C164.41 95 164.49 94.17 164.49 93.3V91.73C162.74 91.71 160.27 91.63 157.88 91.54C155.49 91.46 153.52 91.36 153.51 91.32C153.49 91.3 153.61 87.27 153.77 82.37C153.94 77.48 154.03 73.43 153.99 73.37C153.94 73.31 152.96 73.21 151.8 73.14L149.7 73.03M131.52 74.17C130.77 74.37 129.68 74.79 129.09 75.12C128.5 75.43 127.56 76.14 127.01 76.69C126.45 77.23 125.74 78.17 125.42 78.77C125.11 79.37 124.72 80.3 124.55 80.85C124.39 81.4 124.21 82.46 124.15 83.21C124.09 83.96 124.13 85.25 124.25 86.11C124.36 86.95 124.57 88.13 124.72 88.73C124.88 89.33 125.32 90.47 125.71 91.27C126.25 92.38 126.71 92.99 127.66 93.89C128.35 94.54 129.35 95.28 129.9 95.56C130.44 95.82 131.38 96.17 131.98 96.33C132.58 96.49 133.58 96.61 134.19 96.61C134.81 96.61 135.96 96.49 136.73 96.32C137.51 96.16 138.63 95.82 139.22 95.53C139.82 95.25 140.73 94.6 141.26 94.1C141.86 93.51 142.44 92.69 142.85 91.86C143.2 91.14 143.6 90.02 143.73 89.37C143.86 88.72 143.97 88.17 143.96 88.14C143.95 88.12 142.96 87.94 141.76 87.74C140.1 87.48 139.56 87.44 139.46 87.61C139.4 87.73 139.3 88.19 139.26 88.64C139.21 89.08 139.02 89.78 138.82 90.18C138.63 90.58 138.23 91.13 137.94 91.42C137.65 91.71 137.1 92.11 136.7 92.32C136.14 92.62 135.64 92.7 134.52 92.7C133.22 92.7 132.96 92.64 132.07 92.14C131.42 91.78 130.87 91.27 130.48 90.7C130.14 90.22 129.69 89.21 129.46 88.46C129.23 87.7 128.94 86.4 128.81 85.56C128.68 84.71 128.62 83.44 128.68 82.75C128.74 81.97 128.93 81.18 129.17 80.67C129.4 80.23 129.83 79.59 130.14 79.25C130.45 78.91 130.99 78.49 131.34 78.31C131.69 78.13 132.42 77.9 132.97 77.81C133.51 77.7 134.29 77.69 134.69 77.76C135.09 77.83 135.74 78.06 136.13 78.26C136.54 78.45 137.09 78.9 137.38 79.23C137.67 79.57 137.99 80.02 138.1 80.24C138.3 80.62 138.32 80.61 140.2 79.81C141.25 79.37 142.17 78.97 142.24 78.93C142.31 78.88 142.16 78.43 141.89 77.9C141.63 77.38 141.04 76.58 140.58 76.12C140.12 75.66 139.32 75.07 138.8 74.81C138.27 74.55 137.37 74.21 136.8 74.05C136.22 73.91 135.11 73.79 134.31 73.79C133.49 73.81 132.3 73.96 131.52 74.17ZM174.32 75.63C174.2 75.97 173.21 78.88 172.12 82.11C171.03 85.36 169.96 88.77 169.74 89.72C169.46 90.87 169.36 91.82 169.39 92.62C169.44 93.41 169.62 94.12 169.94 94.8C170.2 95.34 170.82 96.19 171.3 96.67C171.88 97.25 172.72 97.81 173.8 98.34C174.7 98.77 176.12 99.3 176.97 99.52C178.12 99.81 178.88 99.89 180.05 99.83C181.24 99.77 181.82 99.65 182.59 99.28C183.13 99.02 183.95 98.41 184.39 97.93C184.83 97.45 185.5 96.4 185.87 95.6C186.23 94.81 187.56 91.19 188.81 87.55C190.06 83.92 191.09 80.88 191.09 80.81C191.09 80.74 190.16 80.39 189.05 80.03C187.93 79.67 186.97 79.45 186.91 79.54C186.84 79.61 185.76 82.66 184.49 86.29C183.22 89.92 181.99 93.32 181.75 93.85C181.41 94.56 181.09 94.93 180.45 95.34C179.86 95.71 179.36 95.89 178.86 95.89C178.46 95.89 177.59 95.72 176.91 95.52C175.96 95.24 175.5 94.98 174.87 94.34C174.33 93.8 173.99 93.27 173.86 92.75C173.73 92.2 173.73 91.68 173.86 90.9C173.97 90.3 175.07 86.89 176.32 83.29C177.57 79.71 178.59 76.68 178.59 76.56C178.6 76.43 177.8 76.09 176.74 75.77C175.71 75.45 174.78 75.16 174.68 75.12C174.61 75.08 174.43 75.31 174.32 75.63ZM97.18 87.88C93.57 90.03 90.44 91.93 90.21 92.09L89.79 92.38C98.46 106.95 100.99 111.2 100.99 111.23C101 111.25 104.22 109.36 108.17 107C112.1 104.66 115.36 102.7 115.41 102.66C115.47 102.62 115.1 101.93 114.6 101.11C114.1 100.3 113.65 99.61 113.6 99.58C113.55 99.56 111.18 100.91 108.35 102.6C105.51 104.28 103.12 105.65 103.05 105.65C102.98 105.65 102.3 104.62 101.57 103.34C100.82 102.08 100.18 100.91 100.12 100.77C100.06 100.57 101.29 99.75 104.71 97.69L109.4 94.88C108.28 93.05 107.84 92.34 107.71 92.13C107.46 91.72 107.43 91.73 102.83 94.52C100.29 96.06 98.15 97.33 98.08 97.33C98.01 97.33 97.56 96.69 97.11 95.92C96.64 95.15 96.09 94.21 95.88 93.84L95.5 93.15C103.36 88.52 105.64 87.12 105.63 87.04C105.63 86.97 105.25 86.23 104.78 85.41C104.3 84.59 103.88 83.93 103.83 83.93C103.77 83.95 100.78 85.72 97.18 87.88ZM195.26 92.48C192.74 96.69 190.2 100.88 189.62 101.79C189.03 102.72 188.56 103.53 188.55 103.6C188.55 103.67 190.11 104.68 192.04 105.84C193.96 106.99 196.51 108.5 197.71 109.17C199.06 109.93 200.32 110.49 201.05 110.67C202.02 110.9 202.4 110.91 203.23 110.73C203.78 110.62 204.59 110.33 205.03 110.12C205.47 109.89 206.2 109.36 206.62 108.94C207.05 108.52 207.59 107.75 207.83 107.22C208.07 106.7 208.32 105.91 208.39 105.45C208.47 104.92 208.41 104.3 208.23 103.65C208.07 103.1 207.7 102.3 207.39 101.88L206.84 101.11C208.17 100.95 208.9 100.79 209.29 100.65C209.69 100.51 210.37 100.09 210.8 99.71C211.24 99.33 211.79 98.63 212.03 98.16C212.26 97.69 212.51 96.84 212.57 96.26C212.64 95.55 212.59 94.9 212.4 94.23C212.21 93.56 211.86 92.93 211.32 92.32C210.88 91.83 209.79 90.93 208.9 90.31C208.01 89.71 205.86 88.37 204.12 87.35C202.38 86.33 200.71 85.33 200.39 85.15L199.83 84.81" fill="#FEFEFE"/>
<path d="M200.46 92.35C199.79 93.49 199.25 94.49 199.23 94.56C199.23 94.63 199.87 95.05 200.64 95.5C201.42 95.93 202.45 96.56 202.96 96.87C203.45 97.19 204.27 97.6 204.76 97.78C205.54 98.06 205.78 98.08 206.44 97.9C206.97 97.74 207.35 97.48 207.7 97.01C208.08 96.51 208.19 96.14 208.19 95.48C208.19 94.72 208.11 94.52 207.57 93.98C207.22 93.63 205.77 92.66 204.35 91.8C202.93 90.95 201.75 90.25 201.73 90.26C201.71 90.27 201.14 91.21 200.46 92.35ZM197.02 98.27C196.86 98.5 196.2 99.57 195.53 100.65C194.87 101.73 194.33 102.67 194.33 102.73C194.34 102.8 195.34 103.48 196.57 104.24C197.8 105 199.24 105.84 199.79 106.09C200.33 106.34 201.09 106.55 201.46 106.55C201.83 106.56 202.39 106.43 202.69 106.29C202.99 106.15 203.45 105.68 203.71 105.24C204.03 104.74 204.19 104.23 204.19 103.75C204.18 103.35 204.06 102.79 203.91 102.49C203.77 102.19 203.35 101.7 203 101.4C202.65 101.11 201.28 100.21 199.96 99.42C198.65 98.61 197.51 97.94 197.44 97.92C197.35 97.87 197.17 98.04 197.02 98.27Z" fill="#006CB5"/>
<path fill-rule="evenodd" clip-rule="evenodd" d="M81.3 98.23C81.34 98.23 81.99 98.73 82.73 99.36C83.48 99.98 84.09 100.53 84.09 100.59C84.1 100.64 83.2 101.76 82.11 103.08C80.3 105.24 80.14 105.51 80.37 105.8C80.51 105.97 83.6 108.6 87.24 111.63C90.87 114.67 93.85 117.22 93.86 117.29C93.86 117.36 93.32 118.1 92.66 118.91C92 119.74 91.41 120.47 91.35 120.56C91.29 120.64 88.08 118.1 84.22 114.91C80.36 111.71 77.14 109.1 77.07 109.1C77 109.11 76.04 110.21 74.94 111.54C73.85 112.87 72.91 113.97 72.86 113.97C72.81 113.97 72.16 113.43 70.08 111.54L75.64 104.88C78.71 101.22 81.25 98.23 81.3 98.23ZM150 99.71C151.54 99.69 153.94 99.76 155.34 99.85C156.73 99.95 158.61 100.11 159.51 100.22C160.4 100.33 162.12 100.58 163.31 100.77C164.51 100.97 166.78 101.44 168.38 101.83C169.98 102.21 172.33 102.88 173.63 103.3C174.93 103.71 177.08 104.49 178.43 105.02C179.78 105.55 181.82 106.43 182.96 106.97C184.1 107.5 186.1 108.53 187.39 109.25C188.69 109.98 190.8 111.27 192.1 112.12C193.39 112.96 195.26 114.28 196.26 115.04C197.26 115.79 198.81 117.02 199.7 117.77C200.6 118.52 202.46 120.22 206.35 124.02L205.75 124.13C205.41 124.19 203.51 124.55 197.9 125.63L196.36 124.24C195.51 123.48 193.96 122.2 192.91 121.38C191.86 120.56 190.07 119.28 188.93 118.51C187.79 117.74 186.12 116.68 185.22 116.15C184.33 115.63 182.49 114.65 181.15 113.97C179.8 113.3 177.32 112.2 175.63 111.53C173.94 110.86 171.33 109.96 169.84 109.53C168.34 109.1 166.14 108.54 164.95 108.29C163.75 108.04 161.63 107.67 160.24 107.46C158.85 107.25 156.36 107 154.72 106.88C153.04 106.77 150.38 106.72 148.65 106.78C146.96 106.84 144.72 106.97 143.67 107.08C142.62 107.18 140.5 107.48 138.96 107.73C137.41 107.98 134.93 108.51 133.43 108.9C131.94 109.27 129.82 109.89 128.73 110.26C127.64 110.62 125.71 111.33 124.48 111.83C123.23 112.33 121.11 113.3 119.77 113.96C118.42 114.63 116.6 115.62 115.7 116.14C114.8 116.67 113.21 117.67 112.17 118.36C111.12 119.06 109.62 120.13 108.82 120.73C108.03 121.33 106.79 122.32 106.07 122.92C104.96 123.83 104.75 124.1 104.76 124.55C104.76 124.96 104.65 125.15 104.3 125.32C104.01 125.46 103.87 125.67 103.92 125.86C103.96 126.04 104.33 127.24 104.75 128.53C105.17 129.83 106 132.52 106.59 134.5C107.19 136.5 108.07 139.63 108.55 141.47C109.03 143.31 109.72 146.05 110.06 147.54C110.42 149.03 111.05 151.88 111.45 153.87C111.85 155.87 112.42 158.87 112.72 160.56C113.01 162.25 113.45 165.02 113.69 166.71C113.93 168.4 114.3 171.22 114.51 172.96C114.7 174.7 114.99 177.59 115.15 179.38C115.29 181.17 115.5 184.19 115.59 186.09C115.7 187.98 115.82 191.32 115.88 193.51C115.94 195.7 115.9 199.98 115.8 203.02C115.69 206.05 115.49 210.12 115.34 212.07C115.18 214.01 114.98 216.41 114.87 217.41C114.76 218.41 114.64 219.26 114.59 219.31C114.55 219.36 114.48 219.36 114.45 219.31C114.41 219.26 111.89 197.52 108.83 170.98C105.78 144.45 103.27 122.72 103.24 122.69C103.23 122.67 101.28 122.87 98.93 123.15C96.57 123.43 94.6 123.69 94.53 123.74C94.47 123.79 97.85 153.57 102.03 189.9C106.21 226.23 109.66 255.99 109.69 256.03C109.71 256.05 111.7 255.86 114.08 255.59C116.47 255.33 118.45 255.1 118.48 255.09C118.5 255.08 117.79 248.64 116.89 240.78C115.99 232.91 115.22 226.25 115.17 225.98C115.09 225.52 115.17 225.43 116.12 224.96C116.68 224.67 118.06 224.05 119.15 223.58C120.24 223.11 122.12 222.37 123.32 221.92C124.51 221.48 126.71 220.77 128.2 220.33C129.7 219.89 132.14 219.28 133.63 218.98C135.13 218.68 137.33 218.31 138.52 218.15C139.72 217.99 142.13 217.79 143.87 217.68C145.61 217.57 148.14 217.52 149.48 217.6C150.83 217.66 152.89 217.79 154.1 217.89C155.29 217.99 157.66 218.26 159.35 218.51C161.04 218.75 164.05 219.28 166.04 219.69C168.04 220.09 172.35 221.11 175.64 221.95C178.92 222.79 183.64 224.01 186.13 224.65C188.63 225.31 190.69 225.88 190.71 225.92C190.73 225.97 190 226.57 189.08 227.24C188.17 227.93 186.8 228.89 186.05 229.39C185.3 229.88 183.87 230.77 182.88 231.35C181.88 231.94 179.77 233.04 178.18 233.81C176.58 234.57 174.26 235.58 173.01 236.05C171.77 236.51 169.81 237.16 168.67 237.49C167.52 237.83 165.64 238.31 164.5 238.56C163.36 238.81 161.28 239.18 159.88 239.39C158.49 239.59 156 239.85 154.35 239.95C152.72 240.06 150.19 240.09 148.74 240.02C147.3 239.96 145.01 239.79 143.68 239.64C142.33 239.5 140.34 239.21 139.23 239.02C138.14 238.83 136.02 238.35 134.53 237.96C133.03 237.58 130.79 236.9 129.54 236.46C128.3 236.03 126.14 235.16 124.74 234.55C123.35 233.94 121.03 232.77 119.58 231.98C118.14 231.17 116.94 230.55 116.92 230.57C116.9 230.59 117.04 231.88 117.23 233.43C117.41 234.97 117.57 236.42 117.58 236.64C117.58 236.98 117.96 237.24 119.89 238.2C121.16 238.83 123.22 239.76 124.47 240.27C125.71 240.76 127.61 241.47 128.68 241.83C129.75 242.19 131.71 242.76 133.02 243.1C134.34 243.45 136.53 243.93 137.86 244.17C139.21 244.42 141.49 244.77 142.93 244.94C144.83 245.17 146.91 245.26 150.45 245.26C153.96 245.26 156.1 245.16 158.05 244.94C159.55 244.77 161.82 244.42 163.12 244.17C164.42 243.92 166.45 243.47 167.65 243.17C168.84 242.87 170.76 242.32 171.9 241.93C173.04 241.56 174.75 240.94 175.7 240.57C176.65 240.2 178.73 239.27 180.32 238.5C181.92 237.73 184.03 236.63 185.03 236.05C186.03 235.46 187.78 234.36 188.92 233.6C190.06 232.83 191.82 231.57 192.81 230.79C193.81 230.02 195.15 228.92 196.97 227.29L200.32 227.89C202.16 228.23 204.06 228.54 204.53 228.6C205.01 228.66 205.4 228.77 205.4 228.85C205.41 228.92 204.47 229.9 203.32 231.01C202.18 232.13 200.2 233.91 198.92 234.96C197.66 236.01 195.61 237.58 194.39 238.45C193.18 239.32 191.18 240.63 189.96 241.36C188.75 242.11 186.61 243.3 185.21 244.02C183.82 244.74 181.53 245.82 180.14 246.41C178.75 247.01 176.26 247.95 174.62 248.5C172.97 249.05 170.28 249.82 168.65 250.23C167 250.63 164.68 251.12 163.48 251.32C162.29 251.52 160.25 251.81 158.96 251.97C157.66 252.13 154.65 252.31 152.25 252.37C149.61 252.43 146.81 252.38 145.1 252.26C143.56 252.14 141.16 251.88 139.76 251.67C138.37 251.48 136.03 251.07 134.59 250.76C133.15 250.46 130.72 249.86 129.21 249.41C127.7 248.98 125.29 248.18 123.87 247.64C122.45 247.11 120.72 246.41 120.02 246.1C119.32 245.79 118.72 245.56 118.7 245.58C118.66 245.6 118.89 247.82 119.19 250.51C119.49 253.2 119.74 255.56 119.74 255.76C119.74 256.1 119.4 256.16 114.18 256.77C111.12 257.13 108.59 257.42 108.57 257.41C108.56 257.4 108.04 253.12 106.35 238.38L105.86 238.02C105.58 237.82 104.59 237.06 103.64 236.31C102.69 235.58 101.15 234.3 100.2 233.49C99.25 232.66 97.29 230.79 95.85 229.31C94.41 227.83 92.52 225.76 91.67 224.72C90.8 223.67 89.4 221.84 88.53 220.65C87.65 219.46 86.28 217.42 85.48 216.13C84.67 214.83 83.39 212.55 82.62 211.06C81.85 209.57 80.72 207.18 80.12 205.76C79.51 204.34 78.62 201.99 78.11 200.52C77.62 199.04 76.88 196.58 76.49 195.04C76.09 193.5 75.56 191.13 75.32 189.79C75.07 188.44 74.72 186.17 74.54 184.73C74.29 182.67 74.22 180.79 74.22 176.04C74.22 171.29 74.29 169.41 74.54 167.35C74.72 165.91 75.07 163.62 75.32 162.28C75.57 160.93 76.02 158.87 76.32 157.66C76.61 156.47 77.19 154.43 77.59 153.14C77.99 151.84 78.82 149.52 79.42 147.97C80.02 146.43 81.31 143.62 82.27 141.73C83.22 139.83 84.67 137.23 85.48 135.94C86.29 134.64 87.66 132.61 88.52 131.41C89.4 130.22 90.84 128.35 93.36 125.26L93.2 123.95C93.07 122.84 93.08 122.63 93.31 122.56C93.47 122.52 94.2 122.43 96.3 122.24L97.74 120.85C98.55 120.09 99.81 118.93 100.55 118.28C101.3 117.63 102.73 116.47 103.72 115.68C104.71 114.91 106.78 113.43 108.34 112.41C109.88 111.39 112.2 109.96 113.5 109.24C114.8 108.52 117.03 107.38 118.48 106.72C119.93 106.05 122.21 105.1 123.55 104.59C124.9 104.09 126.98 103.38 128.17 103.02C129.37 102.66 131.13 102.18 132.06 101.94C133.01 101.7 134.85 101.3 136.13 101.06C137.43 100.81 139.51 100.47 140.76 100.31C142 100.14 143.96 99.94 145.1 99.87C146.25 99.79 148.44 99.72 150 99.71ZM222.97 101.55C223.03 101.56 225.4 104.15 228.22 107.28C231.06 110.43 233.5 113.13 233.64 113.31C233.89 113.6 233.81 113.72 232.64 114.79C231.94 115.43 231.29 115.94 231.2 115.94C231.09 115.94 229.26 113.99 227.13 111.61C224.07 108.22 223.18 107.33 222.96 107.46C222.82 107.54 221.99 108.3 219.55 110.61L226.95 118.76L226 119.63C225.47 120.11 224.85 120.65 224.14 121.18L220.98 117.65C219.24 115.7 217.59 113.85 216.86 112.97L214.66 114.97C213.45 116.06 212.46 117 212.46 117.05C212.46 117.1 214.14 119.02 216.2 121.3C218.26 123.6 220.07 125.6 220.24 125.78C220.5 126.08 220.49 126.14 219.99 126.66C219.69 126.96 219.05 127.54 217.72 128.63L212.2 122.48C209.16 119.09 206.7 116.25 206.72 116.17C206.74 116.07 210.4 112.74 214.82 108.75C219.25 104.77 222.93 101.52 222.97 101.55ZM152.25 111.92C154.04 111.97 156.53 112.12 157.78 112.27C159.02 112.41 160.77 112.65 161.67 112.81C162.56 112.97 164.43 113.36 165.83 113.71C167.22 114.05 169.42 114.68 170.72 115.12C172.02 115.56 173.76 116.19 174.61 116.53C175.45 116.87 177.33 117.72 178.77 118.43C180.21 119.14 182.26 120.23 183.3 120.86C184.35 121.48 185.93 122.51 186.83 123.13C187.72 123.75 189.23 124.85 190.17 125.58C191.66 126.72 191.84 126.91 191.53 127.05C191.34 127.12 189.82 127.47 188.19 127.82C186.54 128.17 184.18 128.63 182.94 128.83C181.69 129.05 179.57 129.33 178.23 129.47C176.88 129.61 174.38 129.73 172.67 129.73C170.89 129.73 168.62 129.61 167.42 129.45C166.25 129.31 164.39 128.96 163.3 128.7C162.21 128.44 160.86 128.06 160.32 127.88C159.77 127.69 158.3 127.36 157.05 127.17C155.81 126.98 153.73 126.57 152.43 126.26C151.14 125.95 147.67 124.99 144.74 124.1C141.81 123.22 138.26 122.23 136.87 121.88C135.48 121.52 133.28 121.06 131.98 120.83C130.04 120.51 128.88 120.43 125.45 120.42C123.17 120.41 120.68 120.47 119.93 120.55C118.72 120.68 118.6 120.67 118.85 120.43C118.99 120.27 120.34 119.53 121.83 118.77C123.32 118.02 125.77 116.92 127.26 116.34C128.75 115.75 130.91 114.99 132.06 114.65C133.21 114.3 135.24 113.77 136.59 113.46C137.94 113.16 140.22 112.74 141.66 112.53C143.1 112.31 145.34 112.07 146.64 111.99C147.94 111.91 150.46 111.87 152.25 111.92ZM68.42 119.09C69.41 119.13 69.95 119.27 70.86 119.73C71.51 120.04 72.39 120.66 72.82 121.08C73.24 121.5 73.72 122.14 73.88 122.49C74.05 122.84 74.26 123.55 74.37 124.08C74.54 124.84 74.51 125.32 74.3 126.39C74.16 127.14 74.07 127.74 74.12 127.75C74.18 127.75 74.78 127.51 75.48 127.22C76.27 126.9 77.37 126.62 78.38 126.5C79.28 126.4 81.4 126.26 86.17 126.06L85.69 126.87C85.43 127.3 84.81 128.36 83.45 130.74L79.74 131.03C77.71 131.19 75.63 131.38 75.12 131.45C74.63 131.52 73.85 131.69 73.4 131.82C72.92 131.98 72.38 132.31 72.07 132.67C71.78 133.01 71.36 133.66 71.12 134.14C70.88 134.61 70.71 135.02 70.74 135.05C70.76 135.09 72.49 136.07 74.59 137.25C76.68 138.42 78.44 139.41 78.48 139.46C78.53 139.51 78.12 140.39 77.58 141.43C77.03 142.46 76.52 143.32 76.45 143.32C76.37 143.32 74.29 142.2 71.82 140.84C69.36 139.49 65.14 137.15 62.46 135.66C59.77 134.16 57.5 132.88 57.41 132.84C57.33 132.78 58.38 130.65 59.74 128.12C61.11 125.58 62.56 123.01 62.97 122.41C63.38 121.82 64.08 120.98 64.53 120.55C64.97 120.13 65.76 119.61 66.25 119.42C66.91 119.13 67.49 119.06 68.42 119.09Z" fill="#FEFEFE"/>
<path d="M66.61 124.08C66.23 124.31 65.55 125.32 64.35 127.45C63.4 129.12 62.64 130.54 62.66 130.6C62.67 130.67 63.73 131.31 65 132.02C67.31 133.29 67.34 133.32 67.61 132.95C67.75 132.75 68.44 131.59 69.11 130.39C69.78 129.18 70.46 127.77 70.6 127.24C70.74 126.72 70.82 126.11 70.77 125.88C70.71 125.66 70.57 125.28 70.45 125.05C70.34 124.81 69.91 124.43 69.51 124.2C69.04 123.92 68.5 123.77 67.97 123.77C67.49 123.76 66.93 123.89 66.61 124.08Z" fill="#006CB5"/>
<path d="M205.97 126.61C205.67 127.87 205.24 129.81 205.01 130.9L204.6 132.9C206.58 135.57 207.69 137.15 208.34 138.15C209 139.14 210 140.77 210.56 141.77C211.14 142.77 211.91 144.19 212.29 144.93C212.66 145.68 213.47 147.48 214.09 148.92C214.7 150.36 215.6 152.72 216.09 154.16C216.57 155.61 217.21 157.77 217.51 158.97C217.82 160.16 218.27 162.24 218.52 163.59C218.76 164.92 219.11 167.29 219.28 168.83C219.47 170.66 219.58 173.16 219.59 175.98C219.59 178.37 219.49 181.27 219.37 182.41C219.25 183.55 219.03 185.34 218.88 186.39C218.72 187.44 218.33 189.55 217.98 191.1C217.64 192.64 217.03 195.01 216.62 196.34C216.21 197.69 215.38 200.05 214.77 201.59C214.16 203.14 213.11 205.5 212.45 206.84L211.25 209.28C211.79 211.8 212.22 214.05 212.56 215.89C212.91 217.73 213.21 219.27 213.23 219.29C213.27 219.31 213.78 218.58 214.38 217.66C214.99 216.73 215.92 215.26 216.45 214.35C216.97 213.45 218.04 211.45 218.81 209.92C219.58 208.39 220.75 205.77 221.39 204.13C222.05 202.48 222.99 199.8 223.48 198.16C223.97 196.51 224.63 194.04 224.93 192.64C225.23 191.25 225.6 189.33 225.76 188.39C225.92 187.44 226.16 185.57 226.31 184.22C226.47 182.89 226.63 180.11 226.69 178.07C226.76 175.86 226.71 173.17 226.59 171.38C226.47 169.73 226.25 167.46 226.11 166.31C225.97 165.17 225.64 163.14 225.39 161.79C225.14 160.44 224.64 158.27 224.31 156.95C223.96 155.63 223.43 153.75 223.12 152.79C222.81 151.82 222.03 149.68 221.38 148.03C220.73 146.4 219.59 143.82 218.84 142.33C218.08 140.84 217.11 138.96 216.65 138.17C216.21 137.36 214.99 135.45 213.97 133.92C212.95 132.37 211.43 130.24 210.6 129.18C209.77 128.12 208.51 126.6 207.8 125.79L206.5 124.34M201.96 126.58C201.21 126.72 197.5 127.53 193.72 128.37C189.93 129.2 185.74 130.09 184.39 130.33C183.04 130.58 180.81 130.93 179.41 131.1C177.63 131.33 175.64 131.42 172.72 131.42C169.63 131.42 168.01 131.35 166.47 131.11C165.33 130.93 163.57 130.59 162.58 130.34C161.58 130.1 160.15 129.7 159.41 129.45C158.67 129.2 157.84 128.99 157.56 128.99H157.06C157.06 144.91 157.12 149.81 157.2 150.13L157.33 150.72L200.61 150.71C200.97 146.15 201.23 143.57 201.43 142.02C201.62 140.48 201.99 137.96 202.25 136.42C202.51 134.87 203.04 132.06 203.45 130.17C203.85 128.28 204.21 126.62 204.26 126.5C204.3 126.36 204.15 126.28 203.83 126.3C203.54 126.31 202.71 126.44 201.96 126.58ZM131.08 127.75C130.38 127.83 129.24 128.07 128.54 128.29C127.84 128.51 126.77 128.93 126.18 129.23C125.58 129.53 124.73 130.02 124.28 130.32C123.82 130.63 122.9 131.41 122.22 132.06C121.53 132.72 120.59 133.78 120.12 134.43C119.64 135.08 119 136.05 118.69 136.61C118.39 137.15 117.88 138.21 117.57 138.95C117.26 139.71 116.8 141.13 116.55 142.12C116.19 143.55 116.07 144.55 115.99 146.92C115.92 149.31 115.97 150.27 116.22 151.72C116.4 152.72 116.76 154.22 117.04 155.07C117.32 155.91 117.8 157.14 118.12 157.79C118.44 158.43 119.07 159.51 119.5 160.18C119.93 160.85 120.88 162.03 121.6 162.79C122.32 163.55 123.4 164.52 124 164.94C124.6 165.37 125.69 166.01 126.44 166.37C127.19 166.72 128.46 167.18 129.25 167.39C130.3 167.65 131.26 167.76 132.69 167.76C134.08 167.76 135.09 167.65 136.04 167.41C136.79 167.21 137.93 166.81 138.58 166.52C139.23 166.23 140.24 165.67 140.84 165.26C141.44 164.86 142.4 164.09 142.99 163.55C143.58 163.01 144.54 161.93 145.14 161.12C145.74 160.33 146.67 158.78 147.2 157.68C147.81 156.43 148.39 154.88 148.75 153.52C149.29 151.48 149.31 151.14 149.34 147.99C149.35 145.39 149.28 144.3 149.03 143.11C148.85 142.26 148.49 140.96 148.24 140.21C147.99 139.46 147.36 138.05 146.85 137.06C146.35 136.07 145.43 134.66 144.82 133.9C144.21 133.13 143.23 132.1 142.64 131.59C142.05 131.07 141.04 130.32 140.39 129.91C139.75 129.49 138.61 128.92 137.85 128.64C137.1 128.35 136.05 128.04 135.51 127.93C134.96 127.83 134.02 127.71 133.42 127.67C132.83 127.63 131.77 127.66 131.08 127.75ZM239.62 134C237.18 134.94 232.75 136.64 229.75 137.8C226.77 138.95 224.22 139.95 224.11 140.02C223.97 140.09 224.65 142.02 226.24 146.02C227.53 149.25 228.86 152.33 229.21 152.85C229.58 153.41 230.24 154.06 230.8 154.42C231.32 154.77 232.16 155.14 232.65 155.26C233.2 155.39 234.06 155.44 234.83 155.37C235.6 155.3 236.45 155.08 237.01 154.82C237.5 154.58 238.18 154.09 238.5 153.73C238.82 153.37 239.27 152.73 239.47 152.31C239.69 151.89 239.91 151.07 239.97 150.5C240.03 149.85 240.16 149.47 240.31 149.47C240.43 149.47 240.57 149.55 240.62 149.65C240.67 149.75 241.05 150.01 241.49 150.23C242.09 150.54 242.57 150.63 243.7 150.64C244.91 150.64 245.3 150.57 246.06 150.17C246.56 149.92 247.24 149.39 247.56 149C247.88 148.6 248.33 147.92 248.55 147.47C248.86 146.85 248.95 146.35 248.93 145.29C248.93 144.33 248.79 143.55 248.45 142.59C248.2 141.83 247.21 139.24 246.27 136.8C245.26 134.16 244.46 132.35 244.31 132.33C244.17 132.3 242.06 133.05 239.62 134Z" fill="#FEFEFE"/>
<path d="M92.75 137.81C91.91 139.08 90.83 140.78 90.37 141.58C89.91 142.37 88.84 144.45 88 146.2C87.16 147.94 86.05 150.47 85.56 151.81C85.06 153.14 84.35 155.27 83.99 156.51C83.64 157.76 83.1 159.84 82.81 161.13C82.52 162.43 82.12 164.63 81.93 166.02C81.73 167.41 81.46 169.77 81.35 171.27C81.22 172.93 81.17 175.45 81.24 177.78C81.3 179.87 81.47 182.64 81.62 183.93C81.78 185.23 82.06 187.22 82.27 188.36C82.48 189.5 82.93 191.58 83.28 192.98C83.63 194.38 84.33 196.73 84.83 198.23C85.33 199.72 86.12 201.8 86.56 202.85C87 203.9 87.97 205.93 88.7 207.37C89.43 208.81 90.57 210.89 91.24 211.99C91.9 213.08 93.02 214.8 93.73 215.79C94.44 216.79 95.46 218.18 96 218.87C96.55 219.57 97.81 221.07 98.82 222.21C99.82 223.34 101.62 225.2 102.81 226.33C104.89 228.3 104.99 228.37 105.03 227.88C105.05 227.6 104.9 225.74 104.67 223.75L104.26 220.12C102.45 218.17 101.3 216.84 100.56 215.89C99.8 214.94 98.64 213.4 97.98 212.45C97.32 211.5 96.2 209.75 95.49 208.56C94.77 207.37 93.71 205.41 93.13 204.22C92.54 203.02 91.7 201.14 91.26 200.05C90.8 198.96 90.14 197.17 89.78 196.07C89.42 194.98 88.84 192.98 88.49 191.64C88.15 190.29 87.67 187.97 87.42 186.48C87.18 184.98 86.89 182.83 86.8 181.68C86.69 180.53 86.61 177.88 86.61 175.79C86.61 173.7 86.73 170.85 86.89 169.46C87.03 168.07 87.32 165.99 87.53 164.84C87.74 163.69 88.11 161.91 88.36 160.86C88.62 159.81 89.09 158.1 89.42 157.05C89.74 156 90.32 154.35 90.69 153.35C91.06 152.35 91.84 150.51 92.41 149.28C92.99 148.03 93.89 146.23 94.43 145.25L95.4 143.5C94.74 137.53 94.49 135.72 94.41 135.64C94.36 135.56 93.6 136.53 92.75 137.81ZM125.83 135.96C125.23 136.09 124.41 136.33 124.02 136.5C123.62 136.66 123.27 136.79 123.25 136.79C123.23 136.79 123.21 136.66 123.21 136.5C123.22 136.27 123.08 136.24 122.34 136.34C121.87 136.41 121.46 136.47 121.45 136.48C121.44 136.49 122.11 142.41 122.94 149.63C123.77 156.84 124.45 162.78 124.45 162.8C124.45 162.82 124.76 162.84 125.14 162.84C125.51 162.84 125.91 162.78 126.02 162.71C126.18 162.61 126.13 161.78 125.89 159.68C125.63 157.37 125.6 156.76 125.78 156.64C125.9 156.57 126.78 156.26 127.73 155.95C128.86 155.59 130 155.36 131.08 155.29C131.98 155.23 133.35 155.28 134.16 155.4C134.95 155.51 137.24 156 139.22 156.49C141.22 156.97 143.41 157.43 144.11 157.5L145.38 157.62C145.15 155.56 144.69 153.22 144.2 151.07C143.71 148.93 143.21 146.25 143.09 145.1C142.93 143.51 142.93 142.53 143.09 140.94C143.21 139.8 143.41 138.37 143.55 137.77C143.69 137.18 143.77 136.65 143.72 136.6C143.67 136.54 142.96 136.65 142.15 136.83C141.33 137.01 139.82 137.3 138.77 137.45C136.97 137.73 136.77 137.73 135.24 137.41C134.34 137.23 132.63 136.81 131.44 136.47C130.24 136.15 128.74 135.83 128.09 135.78C127.4 135.74 126.45 135.81 125.83 135.96Z" fill="#006CB5"/>
<path d="M141.03 137.42C139.94 137.65 138.47 137.9 137.77 137.96C136.88 138.04 136.14 138 135.28 137.79C134.61 137.63 134.02 137.5 133.97 137.5C133.91 137.5 133.87 138.47 133.87 139.68V141.84H142.74C142.75 140.51 142.9 139.41 143.06 138.55C143.25 137.59 143.3 136.96 143.19 136.98C143.11 136.99 142.12 137.18 141.03 137.42ZM128.17 137.42C127.77 137.56 127.22 137.91 126.93 138.18C126.64 138.46 126.26 139.01 126.08 139.41C125.86 139.87 125.74 140.54 125.74 141.22C125.74 141.93 125.86 142.59 126.11 143.12C126.3 143.56 126.61 144.08 126.78 144.27C126.95 144.45 127.39 144.75 127.77 144.94C128.14 145.13 128.68 145.28 128.98 145.28C129.28 145.28 129.8 145.17 130.11 145.04C130.43 144.91 131.01 144.44 131.38 144.01C131.81 143.49 132.13 142.88 132.26 142.3C132.38 141.81 132.42 141.05 132.36 140.63C132.3 140.2 132.1 139.55 131.9 139.18C131.72 138.81 131.31 138.28 131 138C130.69 137.74 130.12 137.42 129.75 137.33C129.38 137.24 129.03 137.15 128.98 137.16C128.94 137.16 128.58 137.28 128.17 137.42ZM123.37 137.77C123.37 137.88 123.78 141.63 124.3 146.1C124.8 150.58 125.26 154.37 125.32 154.53C125.38 154.67 125.5 154.35 125.6 153.8C125.68 153.26 125.72 151.54 125.67 150C125.61 148.46 125.44 146.3 125.29 145.2C125.13 144.11 124.71 142.03 124.35 140.58C124 139.14 123.64 137.88 123.54 137.77C123.42 137.65 123.37 137.65 123.37 137.77Z" fill="#FEFEFE"/>
<path d="M240.53 138.43C239.48 138.84 238.49 139.2 238.31 139.24C238.14 139.29 238 139.4 238 139.5C238 139.6 238.48 140.92 239.08 142.43C239.75 144.16 240.39 145.46 240.75 145.89C241.27 146.49 241.47 146.6 242.25 146.67C242.95 146.73 243.28 146.67 243.74 146.38C244.06 146.18 244.45 145.82 244.59 145.6C244.75 145.37 244.91 144.9 244.96 144.55C245.04 144.06 244.82 143.26 243.9 140.85C243.26 139.16 242.66 137.75 242.58 137.73C242.5 137.71 241.58 138.02 240.53 138.43Z" fill="#006CB5"/>
<path d="M203.42 139.9C203.41 139.98 203.25 141.4 203.06 143.07C202.87 144.74 202.62 147.3 202.52 148.77C202.41 150.25 202.33 153.83 202.33 156.74C202.33 159.65 202.41 163.17 202.51 164.56C202.62 165.95 202.82 168.24 202.98 169.63C203.12 171.02 203.46 173.51 203.71 175.15C203.96 176.8 204.48 179.73 204.86 181.68C205.24 183.62 206 187.12 206.55 189.46C207.1 191.8 207.97 195.39 208.47 197.43C208.97 199.47 209.42 201.18 209.47 201.23C209.52 201.28 209.72 200.92 209.93 200.41C210.15 199.92 210.68 198.49 211.13 197.25C211.57 196 212.26 193.76 212.64 192.27C213.02 190.77 213.51 188.7 213.7 187.65C213.9 186.6 214.2 184.56 214.39 183.12C214.62 181.23 214.71 179.21 214.7 175.88C214.7 172.57 214.62 170.53 214.39 168.73C214.21 167.34 213.79 164.81 213.45 163.12C213.1 161.43 212.49 158.94 212.08 157.6C211.68 156.25 210.89 154.01 210.34 152.61C209.79 151.22 208.81 149.02 208.16 147.73C207.51 146.43 206.38 144.35 205.65 143.11C204.9 141.86 204.1 140.6 203.86 140.3C203.62 140.01 203.42 139.83 203.42 139.9Z" fill="#FEFEFE"/>
<path d="M231.76 141.8C230.04 142.45 229.08 142.91 229.09 143.06C229.1 143.19 229.63 144.59 230.26 146.15C230.87 147.71 231.55 149.24 231.75 149.54C231.94 149.83 232.4 150.26 232.75 150.49C233.1 150.72 233.63 150.91 233.93 150.91C234.23 150.91 234.83 150.72 235.29 150.5C235.73 150.27 236.29 149.8 236.53 149.45C236.89 148.91 236.94 148.67 236.85 147.82C236.8 147.28 236.39 145.81 235.96 144.56C235.52 143.32 235 141.96 234.82 141.54L234.47 140.78" fill="#006CB5"/>
<path d="M133.9 144L133.97 146.15C136.77 146.49 138.8 146.64 140.28 146.7L142.96 146.83C142.78 145.84 142.72 144.73 142.7 143.71L142.66 141.86L133.84 141.85" fill="#ED3237"/>
<path d="M57.38 143.95C56.88 144.08 56.02 144.42 55.48 144.68C54.88 144.97 53.97 145.68 53.21 146.45C52.34 147.33 51.73 148.16 51.26 149.09C50.86 149.9 50.44 151.13 50.23 152.17C50.04 153.11 49.87 154.38 49.87 154.97C49.87 155.57 49.99 156.54 50.15 157.15C50.31 157.75 50.73 158.76 51.09 159.41C51.45 160.06 52.3 161.14 52.98 161.81C53.85 162.66 54.61 163.22 55.53 163.65C56.26 163.99 57.42 164.43 58.11 164.64C58.81 164.83 59.91 165.1 60.56 165.22C61.25 165.35 62.41 165.4 63.36 165.35C64.39 165.29 65.36 165.11 65.98 164.87C66.53 164.65 67.41 164.2 67.93 163.85C68.46 163.5 69.23 162.86 69.66 162.42C70.08 161.99 70.73 161.11 71.1 160.47C71.48 159.85 72 158.67 72.25 157.87C72.5 157.08 72.75 155.77 72.81 154.97C72.87 154.1 72.82 153.05 72.69 152.35C72.57 151.7 72.19 150.58 71.85 149.86C71.44 149.01 70.86 148.18 70.19 147.49C69.61 146.91 68.58 146.1 67.88 145.69C67.18 145.28 66.08 144.78 65.43 144.56C64.78 144.34 63.72 144.06 63.07 143.91C62.43 143.78 61.09 143.67 60.09 143.68C59.1 143.68 57.87 143.81 57.38 143.95ZM129.72 146.03C128.96 146.11 127.81 146.35 127.14 146.56L125.91 146.92C125.98 149.7 126.04 150.56 126.09 150.61C126.14 150.67 126.63 150.62 127.18 150.5C127.77 150.36 129.4 150.27 131.25 150.28C133.17 150.28 135.14 150.4 136.49 150.6C137.69 150.77 139.83 150.97 141.25 151.04C142.93 151.11 143.83 151.1 143.82 150.98C143.82 150.88 143.71 150.36 143.57 149.8C143.43 149.25 143.22 148.36 143.11 147.8L142.92 146.81C138.64 146.61 136.47 146.44 135.32 146.28C134.17 146.14 132.75 145.98 132.15 145.93C131.56 145.91 130.46 145.94 129.72 146.03Z" fill="#FEFEFE"/>
<path d="M58.46 148.18C58.06 148.26 57.41 148.49 57.02 148.68C56.62 148.88 55.97 149.37 55.59 149.75C55.21 150.13 54.68 150.89 54.41 151.44C54.06 152.17 53.93 152.8 53.87 153.88C53.82 155.02 53.88 155.5 54.15 156.14C54.34 156.58 54.86 157.35 55.3 157.83C55.74 158.31 56.44 158.89 56.84 159.13C57.24 159.36 58.33 159.82 59.28 160.14C60.75 160.64 61.25 160.73 62.72 160.73C64.11 160.73 64.61 160.66 65.3 160.33C65.77 160.11 66.55 159.58 67.02 159.15C67.52 158.68 68.05 157.96 68.32 157.38C68.56 156.83 68.79 155.9 68.84 155.23C68.9 154.42 68.84 153.76 68.64 153.15C68.48 152.65 68.11 151.9 67.81 151.47C67.5 151.05 66.75 150.38 66.13 149.98C65.51 149.57 64.39 149.05 63.64 148.81C62.88 148.56 61.79 148.28 61.19 148.17C60.6 148.06 59.9 147.99 59.65 148C59.39 148.04 58.86 148.11 58.46 148.18Z" fill="#006CB5"/>
<path d="M128.54 150.28C128.24 150.33 127.59 150.45 127.09 150.54L126.19 150.72C125.88 154.85 125.79 156.08 125.81 156.1C125.82 156.14 126.43 155.96 127.19 155.7C127.94 155.46 129.08 155.16 129.73 155.06C130.37 154.95 131.44 154.87 132.07 154.87C132.72 154.86 133.98 154.99 134.88 155.15C135.77 155.31 137.78 155.75 139.31 156.14C140.85 156.54 142.65 156.93 143.29 157.04C143.94 157.14 144.58 157.22 144.7 157.22C144.83 157.22 144.93 156.99 144.93 156.68C144.93 156.38 144.76 155.31 144.56 154.29C144.36 153.27 144.12 152.15 144.02 151.8L143.86 151.16C139.7 150.96 137.65 150.76 136.6 150.62C135.55 150.46 133.44 150.31 131.89 150.27C130.34 150.24 128.83 150.25 128.54 150.28ZM157.23 161.48V172.25C158.29 172.39 159.57 172.55 160.76 172.69C161.96 172.85 164.81 173.17 167.11 173.42C169.39 173.67 173.52 174.08 176.24 174.32C178.98 174.57 183.14 174.9 185.48 175.05C187.81 175.21 192.38 175.39 195.61 175.43C198.86 175.48 201.6 175.45 201.7 175.37C201.84 175.26 201.81 174.58 201.57 172.87C201.39 171.58 201.1 169.05 200.92 167.26C200.67 164.65 200.62 162.69 200.66 157.36L200.72 150.7H157.22" fill="#ED3237"/>
<path d="M231.63 160.8C231.65 161.98 231.71 163.02 231.74 163.12C231.78 163.22 232.91 163.66 234.25 164.12L236.7 164.94C236.87 169.57 236.94 171.55 236.96 172.34L237 173.77L232.29 175.81C232.29 179.34 232.34 180.43 232.39 180.49C232.44 180.55 237.33 178.47 243.25 175.87C249.18 173.26 254.02 171.12 254.03 171.11C254.04 171.1 253.99 170.03 253.95 168.74L253.84 166.41C237.15 160.56 232.13 158.81 231.93 158.75C231.58 158.67 231.57 158.74 231.63 160.8Z" fill="#FEFEFE"/>
<path d="M240.63 169.1C240.69 170.69 240.75 172 240.77 172.02C240.78 172.04 242.38 171.43 244.33 170.65C246.28 169.88 248.02 169.16 248.22 169.05C248.41 168.95 248.5 168.82 248.4 168.77C248.3 168.71 246.63 168.17 244.69 167.54C242.75 166.92 241.01 166.37 240.84 166.31C240.54 166.23 240.53 166.42 240.63 169.1Z" fill="#006CB5"/>
<path d="M138.49 171.38C137.49 171.46 135.75 171.66 134.6 171.81C133.46 171.97 131.14 172.37 129.44 172.71C127.75 173.06 124.98 173.74 123.29 174.24C121.6 174.73 119.64 175.35 118.94 175.61C118.24 175.86 117.44 176.17 117.15 176.3L116.62 176.52C116.81 178.77 116.98 181.05 117.12 183.05C117.26 185.03 117.44 188.6 117.53 190.97C117.61 193.71 117.73 195.24 117.85 195.2C117.95 195.15 119 194.9 120.21 194.64C121.4 194.38 123.52 193.95 124.91 193.73C126.3 193.49 128.55 193.18 129.9 193.02C131.23 192.86 133.84 192.65 135.69 192.54C137.77 192.41 141.12 192.36 144.56 192.43C147.6 192.49 151.59 192.66 153.43 192.81C155.27 192.97 157.96 193.22 159.4 193.37C160.84 193.51 166.02 194.13 170.9 194.72C175.78 195.31 180.95 195.92 182.4 196.08C183.84 196.24 186.45 196.49 188.19 196.63C190.14 196.81 194.25 196.94 198.91 196.99C203.89 197.04 206.47 197.01 206.47 196.89C206.47 196.78 206.16 195.42 205.76 193.85C205.36 192.29 204.68 189.33 204.23 187.29C203.77 185.26 203.12 182.04 202.78 180.15C202.43 178.25 202.11 176.42 202.05 176.08L201.95 175.44C192.77 175.42 188.28 175.27 185.65 175.09C183.1 174.92 178.46 174.55 175.33 174.26C172.19 173.97 167.42 173.48 164.74 173.18C162.05 172.87 158.18 172.39 156.13 172.1C154.09 171.81 151.38 171.49 150.11 171.38C148.85 171.27 146.11 171.2 144.04 171.21C142 171.21 139.49 171.29 138.49 171.38ZM52.9 172.09C52.32 172.19 51.43 172.46 50.9 172.7C50.38 172.94 49.58 173.53 49.12 174.01C48.63 174.54 48.13 175.3 47.91 175.92C47.6 176.73 47.51 177.36 47.51 178.68C47.51 179.63 47.64 182.38 47.8 184.79C47.96 187.21 48.1 189.2 48.11 189.24C48.12 189.26 52.99 188.95 58.91 188.55C64.84 188.14 69.76 187.79 69.86 187.76C69.98 187.71 70.02 186.92 69.96 185.61C69.91 184.46 69.83 183.48 69.78 183.43C69.73 183.37 68.3 183.44 66.61 183.59C64.92 183.72 63.06 183.83 62.49 183.84H61.46C61.46 182.58 61.34 181.02 61.18 179.55C60.94 177.19 60.83 176.73 60.29 175.61C59.92 174.82 59.39 174.08 58.9 173.64C58.47 173.26 57.7 172.75 57.21 172.51C56.66 172.26 55.84 172.05 55.13 172.01C54.47 171.95 53.47 172 52.9 172.09Z" fill="#FEFEFE"/>
<path d="M52.76 176.95C52.41 177.14 51.98 177.53 51.81 177.8C51.64 178.09 51.45 178.68 51.39 179.13C51.32 179.57 51.33 181 51.4 182.29L51.52 184.65C53.88 184.45 55.27 184.31 56.14 184.24L57.7 184.11C57.53 180.74 57.36 179.36 57.22 178.86C57.06 178.37 56.72 177.74 56.43 177.47C56.15 177.21 55.71 176.91 55.43 176.8C55.15 176.69 54.59 176.61 54.16 176.62C53.74 176.62 53.11 176.77 52.76 176.95Z" fill="#006CB5"/>
<path d="M232.3 183.35C232.24 183.67 232.1 184.65 231.98 185.51C231.85 186.39 231.79 187.1 231.84 187.1C231.9 187.1 234.02 187.44 236.55 187.85C239.09 188.26 241.18 188.61 241.19 188.64C241.2 188.66 240.94 190.51 240.6 192.74C240.26 194.96 240 196.85 240 196.92C239.99 197 239.77 197.06 239.5 197.05C239.22 197.05 237.08 196.74 234.75 196.35C232.41 195.95 230.47 195.65 230.46 195.66C230.44 195.68 230.26 196.67 230.06 197.86C229.86 199.06 229.7 200.05 229.72 200.07C229.74 200.09 232.62 200.55 236.1 201.1C239.59 201.65 244.31 202.39 246.59 202.75C248.89 203.1 250.92 203.39 251.12 203.39C251.44 203.39 251.52 203.16 251.81 201.26C252 200.09 252.12 199.12 252.09 199.11C252.05 199.09 250.15 198.77 247.87 198.41C245.57 198.04 243.69 197.72 243.66 197.71C243.64 197.69 243.91 195.81 244.26 193.52C244.62 191.24 244.95 189.31 244.99 189.27C245.04 189.22 246.8 189.45 248.91 189.77C251.03 190.09 252.94 190.36 253.15 190.36C253.38 190.36 253.56 190.29 253.56 190.22C253.57 190.15 253.7 189.2 253.88 188.12C254.08 186.87 254.13 186.14 254.01 186.1C253.91 186.06 249.11 185.29 243.33 184.39C237.56 183.49 232.73 182.76 232.61 182.76C232.49 182.76 232.35 183.02 232.3 183.35Z" fill="#FEFEFE"/>
<path d="M136.23 192.46C135.79 192.5 134.27 192.62 132.88 192.72C131.49 192.83 128.93 193.12 127.18 193.37C125.44 193.61 122.87 194.06 121.47 194.36C120.08 194.65 118.65 194.96 118.3 195.07L117.68 195.24C117.49 204.58 117.3 208.97 117.14 211C117 213.04 116.7 216.3 116.49 218.25C116.3 220.19 116.09 222.04 116.05 222.36C116 222.68 116.03 222.95 116.1 222.96C116.17 222.96 117.01 222.62 117.95 222.2C118.9 221.79 120.86 221.01 122.3 220.48C123.74 219.94 126.03 219.18 127.37 218.8C128.72 218.42 130.75 217.89 131.89 217.63C133.04 217.38 134.99 217 136.24 216.8C137.48 216.61 139.44 216.34 140.58 216.21C141.73 216.09 144.87 215.99 147.55 215.99C150.24 215.99 153.46 216.09 154.71 216.22C155.95 216.34 158.15 216.6 159.59 216.81C161.03 217 164.05 217.53 166.3 217.99C168.54 218.43 173.05 219.49 176.35 220.33C179.63 221.16 184.37 222.39 186.85 223.03C189.34 223.68 193 224.57 195 225.01C196.98 225.45 200.05 226.06 201.79 226.36C203.53 226.66 205.97 227.02 207.22 227.18C208.46 227.32 210.15 227.52 210.98 227.6L212.47 227.73C212.33 226.47 212.09 224.56 211.83 222.67C211.59 220.77 211.1 217.63 210.74 215.7C210.39 213.75 209.69 210.38 209.2 208.19C208.71 206 207.91 202.61 207.43 200.68L206.56 197.15C194.81 196.97 190.3 196.8 188.28 196.63C186.39 196.46 183.34 196.16 181.49 195.96C179.65 195.76 174.52 195.15 170.08 194.61C165.65 194.07 160.84 193.5 159.4 193.36C157.96 193.2 155.27 192.95 153.43 192.8C151.47 192.63 147.37 192.49 143.56 192.45C139.98 192.42 136.68 192.42 136.23 192.46Z" fill="#ED3237"/>
<path d="M64.71 192.88C64.46 192.95 63.84 193.23 63.35 193.48C62.86 193.73 62.12 194.26 61.73 194.65C61.35 195.03 60.82 195.79 60.56 196.33C60.09 197.33 60.09 197.36 60.09 202.12C60.09 205.55 60.02 207.06 59.86 207.42C59.74 207.7 59.37 208.05 59.04 208.2C58.72 208.37 58.27 208.44 58.04 208.38C57.82 208.32 57.38 208.06 57.07 207.78C56.75 207.5 56.26 206.79 55.99 206.19C55.7 205.6 55.43 204.7 55.37 204.21C55.3 203.71 55.33 203.02 55.44 202.67C55.55 202.32 55.91 201.79 56.25 201.49C56.59 201.19 57.01 200.87 57.18 200.76C57.44 200.6 57.41 200.4 56.72 198.6C56.31 197.51 55.96 196.58 55.95 196.54C55.94 196.52 55.6 196.59 55.2 196.71C54.73 196.85 54.08 197.32 53.37 198.03C52.58 198.82 52.16 199.42 51.88 200.18C51.59 200.93 51.48 201.62 51.48 202.67C51.48 203.46 51.61 204.67 51.77 205.34C51.94 206.01 52.42 207.29 52.85 208.19C53.32 209.18 53.94 210.15 54.46 210.68C54.92 211.15 55.63 211.73 56.06 211.94C56.71 212.29 57.11 212.35 58.63 212.35C60.25 212.35 60.54 212.3 61.35 211.87C61.85 211.61 62.52 211.12 62.84 210.79C63.15 210.45 63.63 209.7 63.91 209.1C64.23 208.39 64.44 207.56 64.51 206.66C64.57 205.91 64.56 204 64.49 202.41C64.39 200.27 64.42 199.3 64.59 198.7C64.76 198.11 64.99 197.77 65.44 197.47C65.79 197.24 66.33 197.06 66.65 197.06C66.97 197.07 67.5 197.18 67.83 197.31C68.15 197.45 68.64 197.8 68.9 198.08C69.18 198.37 69.6 199.05 69.86 199.61C70.11 200.15 70.38 201.05 70.44 201.59C70.51 202.2 70.46 202.86 70.32 203.31C70.2 203.71 69.88 204.32 69.62 204.67C69.36 205.01 68.8 205.5 68.39 205.75L67.63 206.21C68.89 209.15 69.29 210.06 69.34 210.1C69.39 210.15 69.89 209.94 70.45 209.64C71 209.35 71.83 208.74 72.3 208.28C72.76 207.84 73.36 207.02 73.62 206.48C73.9 205.93 74.21 204.95 74.32 204.3C74.45 203.47 74.45 202.73 74.32 201.76C74.21 201.01 73.94 199.84 73.7 199.14C73.47 198.44 73 197.35 72.67 196.71C72.32 196.07 71.64 195.14 71.14 194.62C70.64 194.1 69.83 193.49 69.33 193.25C68.61 192.89 68.1 192.79 66.79 192.77C65.9 192.75 64.96 192.79 64.71 192.88ZM226.83 206C226.45 207.14 226.17 208.1 226.22 208.15C226.28 208.19 228.6 209.02 231.39 209.99C234.18 210.96 238.81 212.56 241.67 213.55C246.38 215.17 246.89 215.3 247.03 215.02C247.11 214.85 247.45 213.91 247.8 212.95C248.14 211.99 248.38 211.16 248.32 211.12C248.27 211.08 245.14 210.01 241.35 208.73C237.58 207.46 232.95 205.86 231.07 205.17C229.21 204.48 227.64 203.93 227.61 203.93C227.56 203.94 227.22 204.86 226.83 206ZM225.43 210.86C225.29 211.09 224.76 211.97 224.26 212.81C223.76 213.66 223.41 214.43 223.49 214.53C223.56 214.63 224.3 215.55 225.11 216.56C225.92 217.58 226.59 218.46 226.59 218.51C226.59 218.57 225.64 220.17 224.47 222.09C223.32 224 222.27 225.67 222.16 225.79C222 225.97 221.5 225.93 219.79 225.66C218.59 225.46 217.43 225.25 217.21 225.2C216.86 225.13 216.65 225.37 215.62 227.01C214.97 228.06 214.44 228.99 214.44 229.09C214.44 229.2 214.46 229.27 214.49 229.27C214.51 229.27 218.97 230 224.41 230.89C229.83 231.78 234.96 232.61 235.82 232.73C236.66 232.85 237.48 232.91 237.63 232.86C237.77 232.81 238.41 231.9 239.02 230.84L240.15 228.9C234.61 221.82 231.39 217.66 229.43 215.1C227.46 212.54 225.81 210.44 225.76 210.44C225.73 210.45 225.57 210.63 225.43 210.86ZM75.75 211.9C74.88 212.4 74.24 212.9 74.27 213.03C74.31 213.15 75.11 214.56 76.07 216.15C77.02 217.74 78.4 220.02 79.13 221.21C79.86 222.41 80.44 223.4 80.4 223.41C80.38 223.42 79.27 224.1 77.96 224.9C76.64 225.72 75.47 226.37 75.38 226.37C75.28 226.37 74.13 224.57 72.82 222.34C71.51 220.13 70.24 218.01 70.01 217.64L69.59 216.95C67.21 218.43 66.51 218.93 66.51 219.04C66.52 219.14 67.77 221.29 69.3 223.84L72.08 228.46L68.05 230.88C67.56 230.27 66.19 228.01 64.67 225.47C63.16 222.93 61.91 220.83 61.91 220.81C61.9 220.77 61.18 221.16 60.31 221.66C59.43 222.16 58.72 222.66 58.72 222.75C58.72 222.86 60.56 226.01 62.82 229.77C65.08 233.53 66.93 236.62 66.94 236.64C66.95 236.68 69.4 235.22 72.38 233.41C75.37 231.61 79.6 229.07 81.8 227.77C83.99 226.47 85.83 225.39 85.87 225.35C85.92 225.31 84.02 222.07 81.65 218.13C79.29 214.2 77.34 210.99 77.31 210.99C77.32 211 76.6 211.41 75.75 211.9Z" fill="#FEFEFE"/>
<path d="M227.5 224.16L226.03 226.65C227.09 226.88 228.96 227.24 230.87 227.61C232.79 227.97 234.36 228.24 234.36 228.19C234.36 228.14 233.42 226.92 232.26 225.47C231.11 224.03 229.94 222.59 229.69 222.26C229.43 221.94 229.15 221.67 229.09 221.67C229.02 221.68 228.31 222.79 227.5 224.16Z" fill="#006CB5"/>
<path d="M199.97 243.61C199.35 243.85 198.65 244.33 198.12 244.87C197.64 245.35 197.1 246.1 196.89 246.52C196.7 246.94 196.46 247.72 196.35 248.24C196.22 248.91 196.22 249.49 196.36 250.24C196.47 250.8 196.72 251.59 196.9 251.96C197.09 252.33 197.55 252.97 197.92 253.38C198.3 253.79 199.1 254.35 199.69 254.64C200.59 255.08 201 255.18 202.09 255.17C202.93 255.17 203.74 255.05 204.35 254.82C204.88 254.63 205.7 254.11 206.19 253.69C206.74 253.19 207.27 252.48 207.63 251.73C208.12 250.72 208.19 250.37 208.18 249.19C208.18 248.11 208.07 247.62 207.69 246.8C207.43 246.22 206.86 245.41 206.44 244.97C206.01 244.55 205.26 244 204.76 243.76C204.07 243.42 203.51 243.3 202.4 243.27C201.27 243.22 200.75 243.3 199.97 243.61ZM96.03 245.54C95.78 245.62 95.22 245.86 94.8 246.08C94.38 246.3 93.75 246.75 93.41 247.1C93.06 247.45 92.56 248.16 92.29 248.69C91.92 249.41 91.79 249.98 91.73 251.08C91.67 252.28 91.73 252.71 92.08 253.62C92.36 254.35 92.79 255 93.4 255.62C94.02 256.24 94.67 256.68 95.41 256.95C96.1 257.21 96.89 257.37 97.57 257.38C98.17 257.38 99.11 257.24 99.66 257.04C100.32 256.81 100.97 256.4 101.62 255.79C102.17 255.27 102.79 254.46 103.06 253.89C103.43 253.08 103.53 252.62 103.54 251.44C103.54 250.26 103.47 249.82 103.08 249C102.83 248.45 102.32 247.68 101.97 247.28C101.61 246.88 100.89 246.32 100.35 246.02C99.54 245.58 99.14 245.48 97.93 245.44C97.14 245.42 96.28 245.46 96.03 245.54ZM172.1 254.1C170.87 254.44 170.75 254.51 170.79 254.91C170.8 255.15 170.68 255.73 170.53 256.21C170.37 256.68 169.89 257.59 169.46 258.24C169.04 258.89 168.17 259.9 167.54 260.49L166.39 261.56C167.06 264.11 167.29 264.91 167.33 264.99C167.37 265.07 167.56 265.05 167.75 264.94C167.95 264.84 168.65 264.25 169.31 263.63C169.97 263.01 170.75 262.15 171.03 261.73C171.32 261.31 171.62 260.96 171.69 260.96C171.76 260.96 172.72 264.35 173.82 268.48L175.82 276C176.66 275.87 177.57 275.64 178.4 275.41C179.23 275.17 179.87 274.89 179.83 274.8C179.78 274.7 178.5 269.92 176.97 264.16C174.45 254.7 174.15 253.7 173.82 253.73C173.6 253.73 172.83 253.91 172.1 254.1ZM130.52 255.89C129.97 256.45 129.13 257.04 128.36 257.42C127.66 257.76 126.64 258.15 126.09 258.3C125.55 258.46 124.82 258.62 124.47 258.67L123.83 258.78C123.18 261.52 123.01 262.34 123.05 262.37C123.07 262.39 123.59 262.37 124.19 262.31C124.79 262.25 125.97 261.96 126.81 261.66C127.66 261.36 128.5 261.06 128.67 260.99C128.96 260.88 128.93 261.09 128.44 262.85C128.14 263.94 127.21 267.37 126.37 270.46C125.54 273.54 124.87 276.08 124.88 276.11C124.89 276.13 125.81 276.4 126.9 276.69C127.99 276.99 128.91 277.22 128.92 277.19C128.94 277.17 130.22 272.45 131.78 266.7C133.33 260.96 134.59 256.14 134.58 256.02C134.57 255.88 134.02 255.65 133.17 255.44C132.41 255.26 131.7 255.08 131.6 255.04C131.51 255 131.02 255.39 130.52 255.89ZM140.84 257.11C140.34 257.28 139.58 257.67 139.15 257.96C138.72 258.26 138.09 258.84 137.77 259.23C137.45 259.63 137.01 260.32 136.81 260.77C136.61 261.22 136.34 262.15 136.22 262.85C136.05 263.79 136.04 264.45 136.18 265.39C136.28 266.09 136.56 267.11 136.8 267.65C137.05 268.2 137.55 268.97 137.89 269.37C138.25 269.77 138.94 270.32 139.42 270.58C139.91 270.84 140.84 271.14 141.49 271.25C142.26 271.37 142.94 271.37 143.49 271.26C143.93 271.16 144.69 270.84 145.16 270.54C145.63 270.24 146.06 270 146.11 270C146.16 270 146.07 270.64 145.92 271.41C145.76 272.18 145.45 273.21 145.23 273.69C145.01 274.18 144.57 274.81 144.26 275.1C143.94 275.39 143.41 275.66 143.08 275.71C142.76 275.77 142.17 275.71 141.77 275.58C141.3 275.42 140.9 275.12 140.63 274.71C140.4 274.36 140.22 273.89 140.22 273.66C140.22 273.3 140.14 273.25 139.37 273.25C138.89 273.25 137.95 273.31 137.28 273.38L136.04 273.52C136.22 274.64 136.46 275.37 136.68 275.86C136.91 276.36 137.33 277.05 137.64 277.4C137.94 277.75 138.71 278.28 139.35 278.58C140.4 279.07 140.67 279.12 142.4 279.12C144.14 279.13 144.4 279.08 145.48 278.58C146.13 278.27 147.03 277.69 147.48 277.29C147.92 276.88 148.6 275.99 148.96 275.31C149.33 274.62 149.79 273.41 149.99 272.61C150.19 271.82 150.46 270.27 150.57 269.17C150.69 268.05 150.73 266.47 150.67 265.55C150.6 264.65 150.43 263.41 150.29 262.79C150.15 262.18 149.8 261.2 149.52 260.64C149.26 260.06 148.64 259.21 148.16 258.73C147.69 258.26 146.84 257.65 146.26 257.37C145.41 256.97 144.91 256.88 143.51 256.83C142.18 256.79 141.53 256.85 140.84 257.11ZM157.33 256.96C156.93 257.03 156.13 257.34 155.54 257.62C154.96 257.91 154.19 258.47 153.83 258.87C153.47 259.27 153 260 152.77 260.49C152.54 260.99 152.31 261.73 152.24 262.12C152.13 262.83 152.13 262.84 152.73 262.97C153.07 263.04 153.91 263.15 154.6 263.22L155.86 263.34C156.24 261.97 156.57 261.36 156.83 261.09C157.09 260.84 157.68 260.53 158.13 260.4C158.78 260.23 159.09 260.23 159.67 260.42C160.25 260.6 160.48 260.82 160.8 261.47C161.03 261.91 161.21 262.52 161.21 262.78C161.21 263.06 161.05 263.59 160.87 263.96C160.68 264.33 160.32 264.79 160.05 264.96C159.79 265.14 159.17 265.38 158.68 265.5L157.79 265.73C157.63 267.14 157.59 267.88 157.59 268.31V269.08C158.5 268.79 159.1 268.72 159.54 268.72C159.96 268.72 160.55 268.84 160.85 268.98C161.15 269.14 161.62 269.56 161.88 269.92C162.31 270.48 162.4 270.8 162.44 271.95C162.48 273.1 162.43 273.46 162.07 274.14C161.81 274.68 161.41 275.1 160.93 275.37C160.53 275.59 159.91 275.78 159.54 275.78C159.17 275.78 158.63 275.7 158.36 275.59C158.08 275.48 157.63 275.18 157.35 274.9C157.07 274.64 156.76 274.13 156.66 273.78C156.55 273.43 156.44 273.07 156.41 272.96C156.37 272.85 155.86 272.86 154.93 273.01C154.15 273.13 153.25 273.27 152.92 273.32C152.37 273.42 152.33 273.45 152.44 274.01C152.5 274.33 152.76 275.03 153.03 275.57C153.29 276.1 153.9 276.89 154.36 277.34C154.84 277.77 155.69 278.35 156.26 278.63C157.22 279.09 157.49 279.13 159.48 279.13C161.48 279.13 161.74 279.08 162.69 278.63C163.27 278.35 164.12 277.78 164.59 277.34C165.07 276.91 165.73 276.03 166.08 275.39C166.64 274.34 166.72 274.07 166.78 272.52C166.84 270.9 166.82 270.73 166.29 269.67C165.94 268.95 165.48 268.35 165.05 268.04C164.68 267.76 164.12 267.45 163.82 267.33C163.52 267.22 163.12 267.08 162.92 267.01C162.61 266.91 162.68 266.79 163.53 266.05C164.14 265.51 164.66 264.84 164.96 264.2C165.36 263.35 165.4 263.03 165.33 262.02C165.27 261.38 165.09 260.57 164.91 260.22C164.72 259.87 164.24 259.22 163.82 258.77C163.35 258.28 162.61 257.76 161.9 257.44C161.03 257.04 160.41 256.9 159.39 256.86C158.66 256.83 157.72 256.88 157.33 256.96Z" fill="#FEFEFE"/>
<path d="M141.93 260.56C141.39 260.8 141.1 261.11 140.76 261.79C140.38 262.55 140.3 262.93 140.3 264.4C140.3 265.77 140.37 266.26 140.66 266.82C140.86 267.2 141.26 267.67 141.56 267.87C141.92 268.09 142.46 268.21 143.15 268.21C144.04 268.21 144.28 268.14 144.76 267.72C145.07 267.44 145.43 267 145.58 266.72C145.71 266.44 145.9 265.88 146 265.46C146.11 265 146.11 264.28 146.02 263.69C145.94 263.14 145.71 262.37 145.53 261.98C145.34 261.58 144.94 261.08 144.64 260.85C144.35 260.61 143.77 260.38 143.38 260.33C142.89 260.24 142.42 260.33 141.93 260.56Z" fill="#006CB5"/>
</g>
<defs>
<clipPath id="clip0_16_41">
<rect width="248.71" height="300" fill="white" transform="translate(26)"/>
</clipPath>
</defs>
</svg>
