<svg width="54" height="54" viewBox="0 0 54 54" fill="none" xmlns="http://www.w3.org/2000/svg">
<path d="M26.52 19.89H35.36C36.5755 19.89 37.57 18.8955 37.57 17.68C37.57 16.4645 36.5755 15.47 35.36 15.47H26.52C25.3045 15.47 24.31 16.4645 24.31 17.68C24.31 18.8955 25.3045 19.89 26.52 19.89ZM26.52 28.73H35.36C36.5755 28.73 37.57 27.7355 37.57 26.52C37.57 25.3045 36.5755 24.31 35.36 24.31H26.52C25.3045 24.31 24.31 25.3045 24.31 26.52C24.31 27.7355 25.3045 28.73 26.52 28.73ZM26.52 37.57H35.36C36.5755 37.57 37.57 36.5755 37.57 35.36C37.57 34.1445 36.5755 33.15 35.36 33.15H26.52C25.3045 33.15 24.31 34.1445 24.31 35.36C24.31 36.5755 25.3045 37.57 26.52 37.57ZM15.47 15.47H19.89V19.89H15.47V15.47ZM15.47 24.31H19.89V28.73H15.47V24.31ZM15.47 33.15H19.89V37.57H15.47V33.15ZM44.2 6.63H8.84C7.6245 6.63 6.63 7.6245 6.63 8.84V44.2C6.63 45.4155 7.6245 46.41 8.84 46.41H44.2C45.4155 46.41 46.41 45.4155 46.41 44.2V8.84C46.41 7.6245 45.4155 6.63 44.2 6.63ZM41.99 41.99H11.05V11.05H41.99V41.99Z" fill="#F9F5E0"/>
</svg>
