<svg width="54" height="54" viewBox="0 0 54 54" fill="none" xmlns="http://www.w3.org/2000/svg">
<path d="M40.443 12.6191C39.5811 11.7572 38.1888 11.7572 37.3269 12.6191L26.52 23.4039L15.7131 12.597C14.8512 11.7351 13.4589 11.7351 12.597 12.597C11.7351 13.4589 11.7351 14.8512 12.597 15.7131L23.4039 26.52L12.597 37.3269C11.7351 38.1888 11.7351 39.5811 12.597 40.443C13.4589 41.3049 14.8512 41.3049 15.7131 40.443L26.52 29.6361L37.3269 40.443C38.1888 41.3049 39.5811 41.3049 40.443 40.443C41.3049 39.5811 41.3049 38.1888 40.443 37.3269L29.6361 26.52L40.443 15.7131C41.2828 14.8733 41.2828 13.4589 40.443 12.6191Z" fill="#004D3B"/>
</svg>
