<svg width="54" height="54" viewBox="0 0 54 54" fill="none" xmlns="http://www.w3.org/2000/svg">
<path d="M25.194 15.912C21.3751 15.912 18.0336 17.7154 15.859 20.5C15.8855 20.3143 15.912 20.1022 15.912 19.89C15.912 17.6888 14.1352 15.912 11.934 15.912C9.73283 15.912 7.95599 17.6888 7.95599 19.89C7.95599 22.0912 9.73283 23.868 11.934 23.868C12.8092 23.868 13.5782 23.5763 14.2412 23.1254C13.6048 24.5575 13.26 26.1752 13.26 27.846C13.26 34.4495 18.5905 39.78 25.194 39.78C31.7975 39.78 37.128 34.4495 37.128 27.846C37.128 27.6338 37.075 27.4217 37.075 27.2095C37.075 27.1034 37.1015 26.9708 37.1015 26.8913C36.9424 25.2736 38.1092 23.868 39.7004 23.868H47.736V15.912H25.194ZM11.934 21.216C11.1914 21.216 10.608 20.6326 10.608 19.89C10.608 19.1474 11.1914 18.564 11.934 18.564C12.6766 18.564 13.26 19.1474 13.26 19.89C13.26 20.6326 12.6766 21.216 11.934 21.216ZM30.4184 31.877C29.225 33.4417 27.3421 34.476 25.194 34.476C21.5342 34.476 18.564 31.5058 18.564 27.846C18.564 24.478 21.0834 21.7464 24.3188 21.2956C24.6106 21.269 24.9023 21.216 25.194 21.216C28.8538 21.216 31.824 24.1862 31.824 27.846C31.824 29.3576 31.2936 30.7632 30.4184 31.877Z" fill="#F9F5E0"/>
<path d="M25.194 31.824C27.391 31.824 29.172 30.043 29.172 27.846C29.172 25.649 27.391 23.868 25.194 23.868C22.997 23.868 21.216 25.649 21.216 27.846C21.216 30.043 22.997 31.824 25.194 31.824Z" fill="#F9F5E0"/>
</svg>
