<svg width="249" height="233" viewBox="0 0 249 233" fill="none" xmlns="http://www.w3.org/2000/svg">
<g clip-path="url(#clip0_1_14)">
<g clip-path="url(#clip1_1_14)">
<path d="M122.568 34.803C119.794 35.3053 117.786 35.7805 117.522 36.0735C116.737 36.9749 118.41 38.5145 120.103 38.4426C122.754 38.332 127.717 40.4494 128.714 42.1283C129.928 44.1784 129.26 48.7397 127.212 52.3249C123.883 58.1534 123.883 58.1515 111.96 59.2353C102.356 60.1083 100.992 60.3812 98.4893 62.0228L95.7038 63.8472L92.6591 62.4162C89.9547 61.1303 82.9625 58.4467 80.8333 57.7742C78.7154 57.1078 74.8217 56.2753 72.6141 56.3671C71.7068 56.4042 68.4342 56.2725 65.4311 56.4598C60.6001 56.7613 59.3253 56.9607 53.4453 57.5903C48.7313 58.0945 44.1077 59.515 42.964 59.8821C41.4554 60.3675 39.4428 60.7589 36.9659 61.5115C34.9227 62.1327 33.2706 62.7256 31.9156 63.4489C30.1331 64.3968 29.0852 64.9613 26.8554 66.9427C22.8785 70.4759 16.9818 75.2149 17.6742 76.7804C18.9651 79.725 26.3815 80.9558 41.5859 80.6875C49.7447 80.5426 57.334 83.4448 54.8311 85.7779C53.5751 86.9477 43.0162 89.893 36.8229 90.7617C30.6691 91.6234 22.6371 93.6966 14.9499 96.4584C9.1537 98.5426 -3.91178 106.219 -8.34211 110.118C-13.0195 114.227 -22.5654 125.798 -27.4585 133.257C-29.5386 136.427 -34.0471 147.167 -35.4027 152.269C-37.2156 159.091 -37.4369 160.606 -37.566 165.374C-37.6378 168.087 -37.933 171.602 -38.1923 173.161C-38.4515 174.719 -38.575 179.26 -38.5073 183.249C-38.4406 187.238 -38.5724 191.028 -39.0701 191.218C-50.3389 195.418 -44.5728 191.142 -44.5305 189.764C-44.4727 188.007 -42.1859 182.496 -45.1852 176.871C-46.8282 173.79 -51.7892 169.841 -55.8264 169.071C-59.5569 168.358 -61.7796 169.095 -63.8174 169.464C-68.8579 170.363 -72.3076 175.297 -74.0957 181.177C-75.775 186.713 -73.7276 192.79 -69.686 197.185C-67.3127 199.772 -66.8858 201.392 -68.7262 202.092C-69.4427 202.371 -72.9216 203.868 -76.3255 203.625C-81.1097 203.271 -83.1351 202.968 -85.4292 202.022C-87.0734 201.347 -90.0497 199.607 -91.127 198.68C-93.8953 196.295 -95.7248 194.932 -97.2031 192.837C-98.7677 190.615 -100.034 187.934 -101.796 186.224C-104.286 183.799 -108.276 181.04 -108.613 180.856C-108.668 180.825 -114.94 177.711 -116.157 177.487C-120.215 176.742 -120.305 176.712 -120.237 177.921C-120.118 180.042 -117.05 189.076 -115.239 191.509C-114.204 192.9 -107.089 202.348 -102.472 205.25C-100.049 206.773 -96.7913 208.534 -95.3589 209.418C-93.9228 210.313 -89.5358 211.783 -86.63 212.489C-81.0614 213.843 -66.8809 215.11 -59.2016 208.059C-57.4535 206.461 -56.265 206.688 -51.0025 206.329C-47.2429 206.072 -43.4892 206.071 -42.7193 206.331C-41.9504 206.591 -39.0961 206.372 -38.1476 206.885C-35.8891 208.102 -34.6369 209.617 -29.7136 219.807C-27.2084 224.991 -19.1201 235.445 -13.7789 240.352C-7.52592 246.094 -6.15974 247 -2.63606 247.75C2.72274 248.886 9.11963 249.921 13.1363 250.3C23.225 251.252 26.2221 251.952 31.9642 254.687L37.931 257.544L45.7891 257.133C56.1682 256.623 57.7825 257.313 61.3037 263.577C62.7267 266.119 64.2175 268.181 64.5905 268.166C64.9537 268.153 66.3957 267.635 67.7825 267.035C75.0918 263.857 93.1036 263.443 99.1017 266.305L101.902 267.619L103.059 266.115C103.848 265.062 104.094 263.404 103.933 260.589C103.724 256.991 103.886 256.465 105.381 255.673C106.578 255.035 107.022 254.267 106.946 252.859C106.93 252.536 106.692 252.111 106.413 251.622C106.321 250.694 106.235 250.557 106.028 251.05C104.092 248.193 99.1593 243.539 94.7722 240.312C92.8121 238.87 90.9974 237.677 89.6113 237.13C86.6211 235.951 85.984 235.505 86.8924 235.071C87.6241 234.728 89.6075 235.15 92.0507 236.222C95.8692 237.895 96.0238 237.908 98.2253 236.687C99.4749 236 101.547 235.37 102.835 235.306C104.124 235.241 106.698 234.807 108.557 234.297C112.829 233.127 118.37 233.856 124.041 236.42C126.25 237.432 128.269 238.284 128.52 238.271C128.772 238.257 128.626 236.048 128.293 233.355L127.717 228.471L130.609 228.347C132.522 228.254 134.07 227.646 135.075 226.666L136.593 225.2L130.978 220.189C127.698 217.254 125.364 214.609 125.312 213.796C125.278 213.03 126.834 210.451 128.776 208.047C130.716 205.633 132.289 203.092 132.261 202.416C132.163 200.301 134.495 194.986 136.812 192.059C139.428 188.754 140.646 185.585 141.035 180.936C141.557 174.742 143.808 170.405 148.956 165.74C151.53 163.408 154.25 160.806 154.988 159.985C156.837 157.913 161.354 154.395 162.24 154.35C162.644 154.34 163.335 153.822 163.759 153.23C164.184 152.647 166.842 150.909 169.648 149.368C173.822 147.069 176.003 145.1 181.826 138.559C185.734 134.174 190.689 129.107 192.855 127.283C195.011 125.461 199.529 120.791 202.882 116.885C206.244 112.976 210.552 108.726 212.436 107.49C219.624 102.762 223.435 94.6631 220.958 89.4227C219.761 86.8981 216.396 83.8208 214.269 83.3357C213.592 83.1839 211.897 82.8969 210.507 82.7298C209.126 82.5609 207.16 81.8902 206.136 81.1517C205.113 80.4143 203.347 79.5549 202.191 79.2774C200.696 78.9215 194.842 79.18 189.451 80.7937C186.952 81.5409 185.639 80.6016 182.228 80.5442C178.734 80.4849 176.07 80.4632 173.528 79.9843L168.907 79.1175L167.974 76.0134C167.278 73.6768 167.237 72.1183 167.766 69.4184C168.36 66.3963 169.146 65.0921 173.268 60.8325C175.114 58.9179 176.369 57.3959 177.212 56.0753C177.303 56.0137 177.354 55.8991 177.43 55.8145C177.453 55.7729 177.479 55.747 177.503 55.7063C177.592 55.5799 177.663 55.4618 177.719 55.3189C178.807 53.2546 178.716 51.5881 177.83 49.2707C177.312 47.9465 175.557 45.3042 173.46 43.9488C169.964 41.6884 168.725 41.2276 161.972 39.7863L162.213 39.7123L161.552 39.7649C160.676 39.6331 160.041 39.4861 158.968 39.3321C157.311 39.0932 155.013 38.0975 153.522 36.8972C149.245 33.4312 146.858 32.6212 140.552 32.6158C139.912 32.6148 139.101 32.6841 138.139 32.7555C133.939 33.0665 127.193 33.9658 122.568 34.803ZM-58.2472 181.429C-58.1487 181.411 -58.0502 181.435 -57.9295 181.434C-56.3145 181.454 -54.8249 182.409 -53.9821 184.2C-53.1947 185.879 -53.2082 186.47 -54.0495 187.959C-55.5846 190.667 -56.509 190.688 -58.7361 189.638C-62.6456 187.789 -63.1811 184.746 -60.0762 182.574C-59.2032 181.973 -58.9438 181.521 -58.2472 181.429Z" fill="#444444"/>
<path d="M154.38 67.0996C157.52 63.9464 159.573 67.0673 158.718 67.34C154.618 68.6214 154.745 73.2598 154.701 75.8874C154.627 79.9013 154.364 79.1047 152.987 80.3326C150.541 82.5306 149.485 82.2397 149.322 79.2425C149.185 76.799 153.369 66.7803 154.38 67.0996ZM129.824 79.4616C130.149 79.2317 132.652 80.4149 133.49 81.1913C134.908 82.4949 135.798 84.8967 134.022 84.4382C132.84 84.1287 132.664 87.338 132.74 88.6854C132.832 90.3039 132.356 91.6368 131.415 92.6353C129.216 94.9626 128.274 94.6311 128.101 91.463C127.938 88.6384 128.749 80.2197 129.824 79.4616Z" fill="#E5E7E9"/>
<path d="M179.406 82.6806C180.963 82.7614 181.918 82.8165 182.468 83.4608C183.523 84.6658 183.44 85.2897 182.52 86.9243C181.978 87.883 181.709 89.6972 181.262 90.0401C179.791 91.1423 178.213 92.9031 176.526 95.6579C176.526 95.6579 174.674 98.462 173.596 100.927C172.518 103.391 172.222 105.515 172.222 105.515C172.258 110.728 172.289 110.793 174.435 112.192C177.131 113.951 184.339 114.457 187.746 113.105C189.036 112.593 190.995 111.374 192.153 110.398C193.311 109.422 196.058 107.841 198.234 106.879C202.134 105.155 202.254 105.144 204.483 106.325C205.727 106.989 206.888 107.932 207.079 108.437C207.688 109.994 200.224 117.129 195.845 119.191C186.694 123.495 182.271 126.113 176.848 126.683C174.508 126.944 171.882 126.797 169.206 126.416C166.539 126.034 163.799 125.41 161.229 124.716C158.018 123.84 152.534 119.456 146.473 118.829C145.48 118.729 140.647 119.307 140.041 121.801C138.908 126.489 143.461 132.845 148.794 122.319C149.305 121.304 167.117 134.553 182.332 127.321C184.432 126.331 187.384 125.679 188.814 125.731L191.423 125.84L186.372 129.787C183.605 131.95 180.19 134.177 178.783 134.78C171.372 137.955 168.759 138.741 164.801 138.87C160.572 139.017 160.476 139.044 157.703 142.265C156.151 144.061 155.054 145.727 155.307 145.957C155.563 146.196 157.223 145.822 158.986 145.105C162.733 143.611 176.207 140.21 176.68 140.645C177.322 141.232 173.777 143.99 167.939 147.395C164.651 149.305 158.535 153.551 154.377 156.864C150.228 160.165 145.666 163.609 144.264 164.465C141.045 166.424 139.574 170.177 138.986 178.069C138.441 185.344 137.264 188.862 133.889 192.818C132.081 194.944 130.931 197.117 130.317 199.855C128.61 207.447 118.115 216.629 108.472 218.898C106.064 219.464 103.172 220.167 102.111 220.425C99.852 220.976 92.6296 219.752 91.824 218.695C91.5309 218.3 91.2027 216.957 91.1235 215.702C91.0125 213.863 91.4459 213.096 93.1642 211.899C95.8935 209.986 97.7408 209.925 100.07 211.616C101.583 212.71 102.179 212.808 103.295 212.113C104.596 211.315 104.711 210.239 103.794 209.243C103.658 209.105 103.575 208.977 103.408 208.834C103.396 208.826 103.37 208.851 103.348 208.845C103.229 208.744 103.061 208.652 102.922 208.554C102.508 208.282 102.027 207.971 101.454 207.716C98.0878 206.249 98.64 205.349 104.322 202.905C109.08 200.868 113.423 198.143 116.741 195.192C117.995 194.067 120.463 192.403 122.217 191.464C127.56 188.593 134.306 178.823 134.098 174.249C133.916 170.281 130.857 172.394 126.923 179.282C125.035 182.57 123.766 183.778 119.723 186.187C114.641 189.215 112.811 189.548 115.802 186.868C116.747 186.011 117.526 184.899 117.492 184.418C117.469 183.944 118.166 182.481 119.034 181.13C120.778 178.406 120.978 175.395 119.427 175.466C118.883 175.49 117.498 176.912 116.344 178.598C115.187 180.275 113.241 182.771 111.982 184.211C110.713 185.653 109.081 187.972 108.363 189.368C106.541 192.857 102.031 197.745 101.439 196.864C101.167 196.475 101.737 194.405 102.667 192.312C103.918 189.502 104.288 187.507 104.131 184.661C104.071 183.687 104.001 182.887 103.878 182.249C103.857 182.13 103.823 181.994 103.794 181.888L103.723 180.621L103.589 181.355C103.109 179.957 102.494 180.33 102.203 183.001C101.405 190.219 100.845 192.054 98.7104 194.634C97.4879 196.109 95.9218 198.456 95.2114 199.841C94.5027 201.235 92.8242 203.521 91.5305 204.937C90.2286 206.365 88.7627 208.533 88.2395 209.711C87.718 210.9 86.0231 213.727 84.4501 216.035C81.9088 219.763 81.2935 220.248 79.0702 220.365C77.2576 220.452 75.3152 221.413 72.0419 223.869C67.8445 227.016 67.2681 227.26 63.0711 227.472C59.6481 227.639 57.9919 228.093 56.2492 229.324C50.4054 233.442 41.1476 235.186 34.9159 233.36C30.473 232.062 25.8905 226.574 25.6547 222.3C25.4767 219.103 26.5138 218.189 28.9217 219.348C30.9415 220.322 31.1235 219.914 29.9925 217.301C28.7388 214.395 29.6467 213.382 32.3349 214.634C35.1026 215.933 39.3882 215.533 44.0575 213.623C47.3051 212.289 48.3739 212.131 49.9906 212.719C51.6305 213.323 52.1345 213.245 53.2075 212.131C55.1321 210.147 54.6538 204.9 52.2815 201.927C48.3187 196.96 47.5895 195.647 46.6244 191.785C45.4613 187.147 46.0124 181.231 47.8114 179.168C48.4116 178.483 49.622 176.767 50.4355 175.334C51.2508 173.911 53.205 171.921 54.8086 170.938C56.4122 169.954 58.5686 167.787 59.6295 166.087C61.6006 162.926 62.9047 162.087 68.0779 160.444C72.2136 159.136 78.9738 151.577 79.4458 147.747C79.9603 143.523 78.6824 143.129 76.2559 146.817C73.4127 151.136 68.2865 156.041 64.1733 158.34C62.1387 159.47 58.6382 162.596 55.6011 166.046C52.7738 169.245 50.2355 171.896 50.0137 171.905C49.0967 171.945 47.4613 167.968 46.7928 164.177C46.1711 160.651 45.7663 159.91 43.2438 157.928C41.6753 156.692 39.5222 155.538 38.4882 155.375C37.1843 155.179 36.0177 154.206 34.816 152.286C32.731 148.927 30.9225 148.921 30.7877 152.245C30.6999 154.626 32.1056 156.033 37.8679 159.17C41.4389 161.11 43.9281 164.804 45.3686 170.439C46.3824 174.403 46.3169 174.953 44.8395 180.108C43.5106 184.78 43.3974 186.384 43.9175 191.004C44.4544 195.834 44.7926 196.83 47.1377 199.879C48.5874 201.766 50.3492 204.329 51.0662 205.574C52.9247 208.8 51.6982 210.021 46.0732 210.485C43.7225 210.687 40.5804 211.352 39.1083 211.988C35.7106 213.45 33.4648 212.922 29.3418 209.81C26.1214 207.383 25.8642 207.479 25.5324 210.665C25.4001 211.988 24.4818 212.769 22.2063 213.627C20.7678 214.165 20.8649 216.271 22.4647 221.37C25.0489 229.576 28.7186 234.148 33.7264 235.367C38.4474 236.515 50.6073 235.681 54.0143 233.983C55.4626 233.271 59.0503 231.907 61.9631 230.977L67.2562 229.323L71.8267 233.706L76.3358 238.029L81.6866 238.486C85.7439 238.807 88.1305 239.442 91.7316 241.264C97.6503 244.252 104.961 250.64 104.426 252.328C103.892 254.027 102.359 253.911 97.9969 251.746C96.9148 251.195 95.8606 250.802 94.9141 250.502C92.6318 249.767 90.9542 249.697 91.0068 250.572C91.0247 250.904 92.4751 251.643 94.2349 252.236C98.1831 253.551 101.705 257.631 101.906 261.129C102.066 264.056 100.964 264.657 97.5851 263.404C91.3836 261.116 77.4483 261.269 70.127 263.687L65.4178 265.197L63.9744 263.634C63.1688 262.751 61.638 260.807 60.5323 259.316C57.0885 254.643 55.7151 254.225 46.3533 254.688L38.0885 255.039L31.393 251.792C25.556 248.922 24.0262 248.481 19.5315 248.329C9.98958 248.001 2.92774 246.535 -3.88308 243.613C-10.5091 240.761 -13.3658 238.553 -18.6776 232.097C-21.8822 228.205 -29.2871 215.234 -30.4903 211.404C-31.3953 208.518 -33.8934 205.638 -36.7451 204.495C-38.6809 203.71 -40.6441 203.863 -43.9993 203.896L-44.0602 203.897C-45.2848 203.747 -46.565 203.627 -48.0427 203.482C-50.8481 203.235 -54.2323 202.644 -55.5257 202.161C-59.3384 200.752 -66.7987 194.838 -68.0399 193.097C-69.4641 191.124 -71.13 186.341 -70.8916 184.065C-70.608 181.354 -70.5342 179.757 -68.1587 176.586C-66.2183 174 -64.3023 172.139 -61.0166 171.885C-57.3694 171.607 -55.3895 172.01 -52.7678 173.345C-47.7591 175.894 -45.2716 180.095 -45.8286 186.093C-46.1668 189.819 -49.1477 193.299 -51.7886 192.546C-52.8272 192.242 -51.7623 190.795 -50.8189 188.831C-49.3465 185.779 -48.4056 184.608 -51.3936 181.023C-53.7631 178.181 -56.0299 178.398 -58.6083 178.517C-60.8826 178.634 -61.2117 179.301 -62.9104 181.185C-65.9875 184.581 -65.4411 187.795 -61.9114 191.63C-58.3934 195.457 -49.7894 196.225 -49.7894 196.225C-43.6901 196.033 -36.9596 193.546 -36.4324 193.139C-35.6961 192.592 -35.4878 190.261 -35.6948 183.098C-35.84 177.955 -35.7766 171.922 -35.551 169.689C-35.3253 167.456 -34.9714 163.647 -34.7295 161.218C-34.3176 157.104 -29.8948 144.697 -27.9203 142.075C-27.4672 141.477 -26.9549 140.178 -26.7867 139.174C-26.6105 138.158 -25.2024 135.087 -23.6154 132.339C-15.3609 118.11 -4.61216 108.812 12.983 100.795C21.057 97.1169 26.4689 95.6753 43.4319 92.4811C47.5299 91.7078 52.6532 90.3576 54.8037 89.4809C58.4151 88.0216 58.9157 87.9232 61.2831 88.7953C62.6854 89.3198 64.4556 90.3176 65.2509 90.9694C67.35 92.6809 72.6299 94.1767 75.9 94.0063C82.212 93.6955 85.7019 90.8563 87.4819 87.8211C89.2764 84.7529 90.1398 82.8541 90.7847 81.8469C92.1927 79.6388 94.3591 75.7434 95.1871 74.7953C95.8539 74.0278 96.2807 71.15 97.1685 68.8712C98.506 65.4571 99.3298 64.4284 101.76 63.0657C104.401 61.5744 105.05 61.5108 108.447 62.0592C110.945 62.4616 112.623 62.4195 113.421 61.9336C114.079 61.523 117.128 61.016 120.229 60.8652C124.879 60.6342 126.493 60.2277 129.393 58.5893C131.358 57.471 133.715 56.6696 134.794 56.7433C136.469 56.8542 137.641 56.881 139.085 58.3323C140.504 59.7576 142.174 60.3568 145.24 62.4866C148.065 64.456 151.604 64.3702 151.811 64.5672C152.017 64.7543 151.726 65.4657 151.19 66.1694C148.817 69.299 146.901 76.0543 147.078 80.5113C147.235 84.2813 147.059 85.1856 145.749 86.3915C143.707 88.2849 141.834 88.2597 141.137 86.3821C140.351 84.2867 132.826 75.6422 129.158 76.7255C128.068 77.0498 127.02 78.707 126.531 80.7732C125.826 83.7408 125.841 87.0485 125.98 89.6234C126.255 94.8145 125.679 97.3024 124.882 98.6005C123.692 100.547 123.503 102.184 124.489 102.132C124.833 102.123 127.247 100.671 129.88 98.958C135.344 95.395 141.22 92.8968 144.445 92.7037C146.325 92.5957 146.802 92.1358 147.834 89.7505C149.269 86.4308 151.184 84.7934 157.777 81.1228C163.215 78.1026 164.239 77.8612 164.9 79.3691C165.31 80.3123 163.254 83.6197 159.47 88.1353C156.911 91.186 158.026 92.4415 161.058 89.7135C161.963 88.9142 163.349 87.4413 163.682 86.2248C163.986 85.1254 165.249 83.2475 165.87 82.9655C167.525 82.2167 167.407 85.5783 166.093 87.3432C165.527 88.1031 164.388 89.5934 163.703 90.8921C162.111 93.9551 162.144 94.1423 164.332 93.594C164.955 93.4435 166.539 91.4278 167.577 88.7875C168.599 86.1803 169.077 82.9584 169.523 82.8391C171.286 82.3557 171.442 84.623 170.593 87.6972C170.245 88.9466 169.017 90.3918 168.767 91.4513C168.4 92.9985 166.642 94.1411 167.137 94.8763C168.132 96.3154 171.739 92.5824 172.31 89.4862C172.976 85.8351 172.675 84.4766 175.615 83.41C176.903 82.9392 178.177 82.6231 179.406 82.6806ZM83.027 89.2768C81.0103 90.7393 78.4788 91.6426 74.1446 91.2492C71.2024 90.976 68.7035 90.2793 67.5926 89.4496C66.6108 88.719 64.9073 87.6384 63.7853 87.0341C62.6633 86.4297 60.2583 84.8839 58.4378 83.6005C56.6271 82.3154 54.7377 81.0442 54.2552 80.784C52.3663 79.7462 42.4926 78.0551 40.8607 78.4748C37.4329 79.3636 22.806 79.394 39.1059 74.9155C43.0759 73.8194 44.1669 73.0381 50.6182 73.9213C52.2216 74.1463 55.5761 75.2607 57.7529 76.664C58.9438 77.4289 60.4024 77.6388 61.7764 78.1174C63.7458 78.8059 66.1324 79.4411 69.0125 79.9386C72.7934 80.5919 75.3504 80.6386 77.4115 80.2346C78.9704 79.9191 82.8412 80.1606 84.9528 79.3516C93.5991 76.0399 88.4172 81.6652 87.1112 83.5303C84.9813 86.5968 84.918 87.9077 83.027 89.2768ZM80.1068 60.5069C82.659 61.2753 92.9131 64.6053 93.652 66.4348C94.4598 68.4248 93.4514 71.3442 91.3165 73.3454C88.6781 75.8313 83.1208 77.5423 76.3037 77.9827C70.2883 78.3631 68.6461 78.2059 63.7954 76.7257C60.7253 75.7845 57.7665 74.6105 57.1467 74.2628C50.6754 70.7329 43.286 70.9798 37.454 73.5516C32.4243 75.7788 27.1236 78.196 24.7473 78.3104C22.4319 78.4242 20.2598 77.3348 20.1869 76.0581C20.0581 73.7149 36.4816 63.6602 40.7886 63.4389C41.7862 63.395 43.9197 62.8259 45.4607 62.1785C47.0017 61.531 51.5325 60.4478 55.569 59.7869C62.549 58.6576 72.6181 58.2327 80.1068 60.5069ZM131.935 35.2329C136.672 34.8547 143.602 35.227 146.921 36.4898C149.825 37.5821 154.765 41.2398 154.827 42.3358C154.842 42.5971 153.827 44.2079 152.603 45.967C150.344 49.2188 149.908 50.9508 151.287 50.8804C152.475 50.8232 155.736 46.227 156.996 43.9842C158.427 41.4471 163.912 40.4191 170.017 44.0034C173.017 45.759 176.443 48.8309 176.609 51.6752C176.71 53.5156 174.482 58.153 173.486 58.2068C173.133 58.2183 171.759 59.3541 170.427 60.7262C169.084 62.0903 167.327 63.588 166.529 64.0739C165.73 64.55 164.977 64.9467 164.854 64.938C164.742 64.9374 163.065 63.6593 161.083 62.0387C159.111 60.4165 156.436 59.7001 154.633 59.7236C153.122 59.7361 150.754 59.8389 149.455 59.6111C146.051 59.0232 145.146 57.6902 143.445 56.2232C141.65 54.6815 139.585 54.1418 137.101 53.7574C134.368 53.3458 132.663 54.2758 131.715 53.6205C130.452 52.7364 132.633 53.2963 132.987 49.1417C133.211 46.6143 132.681 44.9308 132.354 42.7341C131.979 40.2009 129.606 37.2277 128.026 37.3033C127.523 37.3311 127.065 37.097 127.046 36.7552C126.999 35.9714 129.092 35.4602 131.935 35.2329ZM187.432 92.1507C185.662 92.4222 184.606 94.2027 184.553 99.3196C184.497 104.011 184.722 105.342 185.651 106.295C186.284 106.945 187.322 107.422 187.957 107.391C190.392 107.266 191.319 104.575 191.582 97.0242C191.598 96.544 191.74 95.6763 191.714 95.0715C191.685 94.5588 191.647 94.1695 191.524 93.8764C191.519 93.8469 191.527 93.8353 191.523 93.8156C191.503 93.7582 191.479 93.6812 191.451 93.6354C191.238 92.8302 191.28 92.4368 189.66 92.1134C188.713 91.925 188.015 92.0581 187.432 92.1507ZM-115.847 180.192C-114.136 180.104 -103.568 185.734 -102.188 189.014C-98.8393 197.004 -87.6111 205.859 -77.1746 205.329C-74.164 205.184 -69.6572 204.887 -68.2564 204.193C-65.1437 202.669 -63.4573 202.27 -62.6411 202.35C-61.3313 202.464 -60.464 205.195 -61.172 205.959C-62.1517 207.026 -66.8292 209.983 -72.4478 210.771C-80.7903 211.947 -88.9353 209.982 -103.995 200.36C-106.181 198.959 -109.896 194.537 -110.347 193.936C-113.284 190.006 -116.187 185.695 -116.881 182.852C-117.454 180.465 -117.387 180.271 -115.847 180.192ZM88.1486 217.546C89.0633 217.436 89.8464 218.191 91.4096 219.743L94.235 222.637L102.777 221.73C109.299 221.057 112.517 220.357 116.636 218.727L122.026 216.64L126.114 218.803C130.051 220.921 132.882 224.077 131.919 225.181C131.309 225.868 127.733 226.031 124.421 225.498C121.286 224.995 121.178 225.593 123.787 229.103C124.824 230.494 125.602 232.083 125.53 232.655C125.315 234.256 124.369 234.25 120.555 232.598C116.094 230.683 110.393 230.886 101.761 233.241C95.521 234.94 95.5095 234.932 92.7818 233.687C89.5339 232.198 85.0798 232.334 81.1937 233.963C78.7258 234.998 78.139 235.01 76.4117 234.197C72.6732 232.46 72.2666 228.196 75.4387 224.245C77.4944 221.679 77.7203 221.578 79.4198 222.406C81.106 223.215 81.4038 223.061 84.0068 220.663C86.1893 218.643 87.2437 217.655 88.1486 217.546ZM206.514 86.806C204.985 85.0448 202.766 85.0705 201.726 85.3959C198.945 86.2622 199.654 87.4063 200.335 90.4037C200.661 91.849 201.006 94.4993 201.071 96.3055C201.174 98.9071 201.498 99.7639 202.596 100.291C204.827 101.37 204.885 100.141 208.066 99.408C211.249 98.6843 211.081 95.3731 210.194 93.3362C209.308 91.3092 208.234 88.7874 206.514 86.806Z" fill="#DAA520"/>
<path d="M122.187 69.6689C121.013 69.6931 119.745 69.8151 119.129 70.929C118.636 71.8181 117.586 75.537 117.69 77.5089C117.794 79.4808 117.305 81.8923 116.707 84.2012C115.347 89.3862 115.844 94.7412 116.827 96.3958C117.405 97.3702 117.728 97.4757 118.452 96.7997C119.721 95.591 122.978 86.1317 122.887 84.6348C122.849 83.9611 125.775 78.0939 126.283 76.0851C127.21 72.4693 127.193 72.4316 125.522 70.7868C124.43 69.7202 123.371 69.643 122.187 69.6689Z" fill="#444444"/>
<path d="M117.269 103.284C116.823 103.403 116.204 103.918 115.349 104.831C113.931 106.35 113.418 109.598 114.484 110.578C116.205 112.163 117.81 110.205 118.081 106.156C118.232 104.018 118.027 103.089 117.269 103.284Z" fill="#444444"/>
<path d="M131.107 118.817C131.761 118.265 134.922 115.23 131.458 115.221C123.541 115.642 126.012 129.372 127.426 131.052C129.215 133.194 128.74 124.453 128.723 123.035C128.706 121.383 129.443 120.207 131.107 118.817Z" fill="#444444"/>
<path d="M134.675 126.961C134.601 125.847 134.991 122.935 135.666 121.638C136.743 119.569 139.876 118.276 139.894 116.475C139.933 112.955 131.297 120.012 131.007 123.261C130.704 126.493 131.327 129.623 131.665 131.31C132.666 136.352 134.779 128.699 134.675 126.961Z" fill="#444444"/>
</g>
</g>
<rect x="5" y="5" width="239" height="223" rx="111.5" stroke="#00A884" stroke-width="10"/>
<defs>
<clipPath id="clip0_1_14">
<rect width="249" height="233" rx="116.5" fill="white"/>
</clipPath>
<clipPath id="clip1_1_14">
<rect width="352.67" height="226.7" fill="white" transform="translate(-138 80.2405) rotate(-10)"/>
</clipPath>
</defs>
</svg>
