<svg width="54" height="54" viewBox="0 0 54 54" fill="none" xmlns="http://www.w3.org/2000/svg">
<path d="M26.52 7.956C16.2568 7.956 7.95599 16.2568 7.95599 26.52C7.95599 36.7832 16.2568 45.084 26.52 45.084C36.7832 45.084 45.084 36.7832 45.084 26.52C45.084 16.2568 36.7832 7.956 26.52 7.956ZM27.846 14.4534L31.9566 11.5892C34.9799 12.6766 37.5523 14.6656 39.4087 17.2115L38.1358 21.6403L36.3324 22.2503L27.846 16.3098V14.4534ZM34.5025 24.2128L31.4792 33.15H21.5342L18.5375 24.2128L26.52 18.617L34.5025 24.2128ZM21.0834 11.5892L25.194 14.4534V16.3098L16.7341 22.2503L14.9308 21.6138L13.6578 17.2115C15.4877 14.6656 18.0866 12.6766 21.0834 11.5892ZM18.0336 35.9346L14.0026 36.2794C11.9075 33.6274 10.661 30.2858 10.6345 26.6526L14.0821 24.1332L15.912 24.7697L19.0679 34.1312L18.0336 35.9346ZM30.5776 41.9016C29.2781 42.2464 27.9256 42.432 26.52 42.432C25.1144 42.432 23.7619 42.2198 22.4624 41.9016L20.3143 37.2871L21.163 35.8285H31.877L32.7257 37.2871L30.5776 41.9016ZM39.0374 36.3059L35.0064 35.9611L33.9456 34.1578L37.128 24.7697L38.9579 24.1332L42.4055 26.6526C42.379 30.2858 41.1325 33.6274 39.0374 36.3059Z" fill="#F9F5E0"/>
</svg>
