<svg width="300" height="300" viewBox="0 0 300 300" fill="none" xmlns="http://www.w3.org/2000/svg">
<g clip-path="url(#clip0_2_104)">
<path d="M261.827 63.51L261.014 59.1992L256.728 58.3042C256.437 58.25 228.071 52.2958 202.829 38.2058C166.862 18.06 154.743 5.34583 154.636 5.22833L149.83 0L145.023 5.2025C144.899 5.335 132.754 18.0775 96.8126 38.2017C71.5842 52.2825 43.1959 58.25 42.9026 58.3042L38.6109 59.1992L37.8117 63.51C32.8009 90.42 32.7292 117.533 37.6076 144.146L39.7867 154.742L40.3934 157.193C47.2601 185.111 59.3876 211.192 76.4759 234.721C95.0076 260.253 118.563 281.64 146.471 298.307L149.813 300.306L153.168 298.307C181.074 281.64 204.621 260.253 223.161 234.721C240.249 211.192 252.375 185.12 259.242 157.193L262.028 144.146C266.907 117.533 266.842 90.43 261.827 63.51Z" fill="black"/>
<path d="M255.407 64.7017C255.407 64.7017 226.019 58.645 199.647 43.9017C161.715 22.6692 149.822 9.6375 149.822 9.6375C149.822 9.6375 137.914 22.6692 99.9975 43.9017C73.6108 58.645 44.2292 64.7017 44.2292 64.7017C38.81 93.7942 39.4467 122.921 45.5792 150.663H254.051C260.188 122.92 260.818 93.7933 255.407 64.7017Z" fill="#F89728"/>
<path d="M149.826 292.693C205.02 259.737 241.362 208.154 254.052 150.665H45.5775C58.2875 208.154 94.605 259.737 149.826 292.693Z" fill="#B30838"/>
<path d="M125.457 241.167V237.882C125.457 237.282 125.457 236.991 125.083 236.991C124.616 236.991 122.752 237.947 122.213 238.177C122.089 238.23 121.959 238.286 121.861 238.286C121.785 238.286 121.661 238.147 121.661 237.994C121.661 237.847 121.785 237.729 121.907 237.655C122.012 237.59 126.778 234.447 127.647 233.796C127.869 233.652 128.091 233.47 128.287 233.47C128.515 233.47 128.587 233.752 128.587 234C128.587 234.2 128.434 236.672 128.434 240.51V245.143C128.434 247.551 128.434 249.676 128.537 250.788C128.608 251.588 128.737 251.953 129.526 252.136C129.904 252.202 130.967 252.284 131.168 252.284C131.267 252.284 131.39 252.357 131.39 252.536C131.39 252.709 131.267 252.757 130.994 252.757C129.106 252.757 127.522 252.683 126.846 252.683C126.285 252.683 124.197 252.757 122.6 252.757C122.332 252.757 122.187 252.709 122.187 252.536C122.187 252.357 122.281 252.284 122.387 252.284C122.659 252.284 123.922 252.202 124.372 252.102C125.165 251.928 125.288 251.589 125.364 250.789C125.457 249.677 125.512 247.552 125.484 245.144L125.457 241.167Z" fill="#010101"/>
<path d="M125.457 241.167V237.882C125.457 237.282 125.457 236.991 125.083 236.991C124.616 236.991 122.752 237.947 122.213 238.177C122.089 238.23 121.959 238.286 121.861 238.286C121.785 238.286 121.661 238.147 121.661 237.994C121.661 237.847 121.785 237.729 121.907 237.655C122.012 237.59 126.778 234.447 127.647 233.796C127.869 233.652 128.091 233.47 128.287 233.47C128.515 233.47 128.587 233.752 128.587 234C128.587 234.2 128.434 236.672 128.434 240.51V245.143C128.434 247.551 128.434 249.676 128.537 250.788C128.608 251.588 128.737 251.953 129.526 252.136C129.904 252.202 130.967 252.284 131.168 252.284C131.267 252.284 131.39 252.358 131.39 252.541C131.39 252.71 131.267 252.758 130.994 252.758C129.106 252.758 127.522 252.684 126.846 252.684C126.285 252.684 124.197 252.758 122.6 252.758C122.332 252.758 122.187 252.71 122.187 252.541C122.187 252.358 122.281 252.284 122.387 252.284C122.659 252.284 123.922 252.202 124.372 252.102C125.165 251.928 125.288 251.589 125.364 250.789C125.457 249.677 125.512 247.552 125.484 245.144L125.457 241.167Z" stroke="black" stroke-width="0.165" stroke-miterlimit="10"/>
<path d="M147.609 240.28C147.609 247.294 141.529 251.706 138.458 253.166C138.339 253.231 138.215 253.266 138.02 253.266C137.912 253.266 137.788 253.14 137.788 253.009C137.788 252.827 137.961 252.683 138.085 252.592C140.662 251.006 144.534 246.891 144.534 240.984C144.534 236.551 142.674 234.6 140.76 234.6C138.98 234.6 137.788 236.203 137.788 238.329C137.788 242.158 140.245 243.062 141.09 243.062C141.957 243.062 142.455 242.914 142.777 242.762C143.044 242.614 143.176 242.497 143.27 242.497C143.367 242.497 143.466 242.597 143.466 242.714C143.466 242.787 143.392 242.953 143.342 242.987C142.625 243.766 141.338 244.139 140.072 244.139C136.497 244.139 135.011 241.41 135.011 239.307C135.011 235.921 137.538 233.466 141.363 233.466C145.402 233.466 147.609 236.478 147.609 240.28Z" fill="#010101"/>
<path d="M147.609 240.28C147.609 247.294 141.529 251.706 138.458 253.166C138.339 253.231 138.215 253.266 138.02 253.266C137.912 253.266 137.788 253.14 137.788 253.009C137.788 252.827 137.961 252.683 138.085 252.592C140.662 251.006 144.534 246.891 144.534 240.984C144.534 236.551 142.674 234.6 140.76 234.6C138.98 234.6 137.788 236.203 137.788 238.329C137.788 242.157 140.245 243.062 141.09 243.062C141.957 243.062 142.455 242.914 142.777 242.762C143.044 242.614 143.176 242.497 143.27 242.497C143.367 242.497 143.466 242.597 143.466 242.714C143.466 242.787 143.392 242.953 143.342 242.987C142.625 243.766 141.338 244.139 140.072 244.139C136.497 244.139 135.011 241.41 135.011 239.307C135.011 235.921 137.538 233.47 141.363 233.47C145.402 233.47 147.609 236.477 147.609 240.28Z" stroke="black" stroke-width="0.165" stroke-miterlimit="10"/>
<path d="M150.169 252.683C149.995 252.683 149.826 252.536 149.826 252.336C149.826 252.136 150.068 251.91 150.317 251.679C153.787 248.607 158.726 244.687 158.726 239.406C158.726 235.447 156.563 234.643 155.323 234.643C154.263 234.643 153.439 234.847 152.692 235.547C152.109 236.129 151.651 237.298 151.651 237.946C151.651 238.203 151.579 238.437 151.336 238.437C151.206 238.437 151.134 238.254 151.108 237.946C151.087 237.728 150.963 235.647 150.963 234.925C150.963 234.699 150.988 234.599 151.264 234.417C152.225 233.917 153.566 233.469 155.749 233.469C160.117 233.469 161.968 235.877 161.968 238.802C161.968 243.665 156.644 247.902 153.439 250.484C153.315 250.567 153.365 250.649 153.489 250.649H155.18C155.603 250.649 158.527 250.632 159.448 250.51C161.16 250.302 161.968 249.453 162.273 248.276C162.342 247.976 162.416 247.876 162.573 247.876C162.738 247.876 162.768 248.102 162.768 248.35C162.768 248.754 162.298 251.088 162.051 251.927C161.851 252.6 161.451 252.682 159.891 252.682H150.169V252.683Z" fill="#010101"/>
<path d="M150.169 252.683C149.995 252.683 149.826 252.536 149.826 252.336C149.826 252.136 150.068 251.91 150.317 251.679C153.787 248.607 158.726 244.687 158.726 239.406C158.726 235.447 156.563 234.647 155.323 234.647C154.263 234.647 153.439 234.848 152.692 235.548C152.109 236.134 151.651 237.299 151.651 237.947C151.651 238.203 151.579 238.437 151.336 238.437C151.206 238.437 151.134 238.255 151.108 237.947C151.087 237.729 150.963 235.648 150.963 234.926C150.963 234.7 150.988 234.6 151.264 234.417C152.225 233.917 153.566 233.47 155.749 233.47C160.117 233.47 161.968 235.877 161.968 238.802C161.968 243.666 156.644 247.903 153.439 250.485C153.315 250.568 153.365 250.65 153.489 250.65H155.18C155.603 250.65 158.527 250.633 159.448 250.515C161.16 250.302 161.968 249.454 162.273 248.277C162.342 247.977 162.416 247.877 162.573 247.877C162.738 247.877 162.768 248.107 162.768 248.351C162.768 248.755 162.298 251.088 162.051 251.927C161.851 252.601 161.451 252.683 159.891 252.683H150.169Z" stroke="black" stroke-width="0.165" stroke-miterlimit="10"/>
<path d="M177.379 233.892C177.848 233.892 177.97 233.974 177.97 234.092C177.97 234.248 177.874 234.448 177.797 234.547C175.741 237.502 171.869 247.451 171.495 250.654C171.456 251.085 171.495 251.245 171.495 251.593C171.495 252.083 169.496 253.105 168.374 253.105C168.092 253.105 168.027 253.032 168.027 252.814C168.027 252.549 168.074 252.175 168.2 251.784C168.891 249.377 172.068 241.988 175.488 236.208H169.065C168.373 236.208 167.335 236.256 166.739 236.656C166.283 236.956 165.966 237.759 165.913 238.151C165.892 238.351 165.818 238.49 165.67 238.49C165.497 238.49 165.47 238.351 165.47 238.094C165.47 237.186 165.843 234.248 165.843 233.992C165.843 233.758 165.939 233.644 166.087 233.644C166.234 233.644 166.808 233.892 169.438 233.892H177.379Z" fill="#010101"/>
<path d="M177.379 233.892C177.848 233.892 177.97 233.974 177.97 234.092C177.97 234.248 177.874 234.448 177.797 234.547C175.741 237.502 171.869 247.451 171.495 250.654C171.456 251.085 171.495 251.245 171.495 251.593C171.495 252.083 169.496 253.105 168.374 253.105C168.092 253.105 168.027 253.032 168.027 252.814C168.027 252.549 168.074 252.175 168.2 251.784C168.891 249.377 172.068 241.988 175.488 236.208H169.065C168.373 236.208 167.335 236.256 166.739 236.656C166.283 236.956 165.966 237.759 165.913 238.151C165.892 238.351 165.818 238.49 165.67 238.49C165.497 238.49 165.47 238.351 165.47 238.094C165.47 237.186 165.843 234.248 165.843 233.992C165.843 233.758 165.939 233.644 166.087 233.644C166.234 233.644 166.808 233.892 169.438 233.892H177.379Z" stroke="black" stroke-width="0.165" stroke-miterlimit="10"/>
<path d="M125.457 240.263V236.99C125.457 236.386 125.457 236.086 125.083 236.086C124.616 236.086 122.76 237.051 122.213 237.282C122.089 237.334 121.959 237.39 121.861 237.39C121.793 237.39 121.661 237.264 121.661 237.107C121.661 236.96 121.793 236.834 121.907 236.76C122.012 236.699 126.778 233.552 127.647 232.905C127.86 232.748 128.091 232.566 128.287 232.566C128.515 232.566 128.587 232.848 128.587 233.104C128.587 233.295 128.434 235.777 128.434 239.615V244.248C128.434 246.656 128.434 248.79 128.537 249.876C128.608 250.693 128.737 251.058 129.526 251.241C129.904 251.306 130.967 251.38 131.168 251.38C131.267 251.38 131.39 251.462 131.39 251.654C131.39 251.819 131.267 251.854 130.994 251.854C129.106 251.854 127.522 251.789 126.846 251.789C126.285 251.789 124.197 251.854 122.609 251.854C122.332 251.854 122.187 251.819 122.187 251.654C122.187 251.463 122.281 251.38 122.387 251.38C122.659 251.38 123.922 251.306 124.372 251.215C125.165 251.033 125.288 250.693 125.364 249.877C125.457 248.79 125.512 246.657 125.484 244.249L125.457 240.263Z" fill="#C9CACC"/>
<path d="M125.457 240.263V236.99C125.457 236.386 125.457 236.086 125.083 236.086C124.616 236.086 122.76 237.055 122.213 237.282C122.089 237.334 121.959 237.39 121.861 237.39C121.793 237.39 121.661 237.264 121.661 237.107C121.661 236.96 121.793 236.834 121.907 236.76C122.012 236.699 126.778 233.552 127.647 232.905C127.86 232.748 128.091 232.566 128.287 232.566C128.515 232.566 128.587 232.848 128.587 233.104C128.587 233.295 128.434 235.777 128.434 239.615V244.248C128.434 246.656 128.434 248.79 128.537 249.876C128.608 250.698 128.737 251.058 129.526 251.241C129.904 251.306 130.967 251.38 131.168 251.38C131.267 251.38 131.39 251.462 131.39 251.654C131.39 251.819 131.267 251.854 130.994 251.854C129.106 251.854 127.522 251.789 126.846 251.789C126.285 251.789 124.197 251.854 122.609 251.854C122.332 251.854 122.187 251.819 122.187 251.654C122.187 251.463 122.281 251.38 122.387 251.38C122.659 251.38 123.922 251.306 124.372 251.215C125.165 251.033 125.288 250.697 125.364 249.877C125.457 248.79 125.512 246.657 125.484 244.249L125.457 240.263Z" stroke="#C9CACC" stroke-width="0.165" stroke-miterlimit="10"/>
<path d="M147.609 239.385C147.609 246.399 141.529 250.811 138.458 252.271C138.33 252.336 138.215 252.371 138.011 252.371C137.911 252.371 137.787 252.232 137.787 252.106C137.787 251.932 137.96 251.788 138.084 251.688C140.661 250.103 144.533 245.995 144.533 240.089C144.533 235.657 142.673 233.692 140.767 233.692C138.979 233.692 137.786 235.3 137.786 237.433C137.786 241.263 140.243 242.175 141.088 242.175C141.956 242.175 142.453 242.018 142.775 241.875C143.042 241.71 143.174 241.593 143.268 241.593C143.366 241.593 143.464 241.701 143.464 241.818C143.464 241.884 143.39 242.036 143.34 242.092C142.623 242.871 141.337 243.232 140.07 243.232C136.495 243.232 135.009 240.515 135.009 238.407C135.009 235.026 137.537 232.571 141.361 232.571C145.402 232.57 147.609 235.582 147.609 239.385Z" fill="#C9CACC"/>
<path d="M147.609 239.385C147.609 246.399 141.529 250.811 138.458 252.271C138.33 252.336 138.215 252.371 138.011 252.371C137.911 252.371 137.787 252.232 137.787 252.106C137.787 251.932 137.96 251.788 138.084 251.688C140.661 250.103 144.533 245.995 144.533 240.089C144.533 235.657 142.673 233.692 140.767 233.692C138.979 233.692 137.786 235.3 137.786 237.433C137.786 241.263 140.243 242.175 141.088 242.175C141.956 242.175 142.453 242.018 142.775 241.875C143.042 241.71 143.174 241.593 143.268 241.593C143.366 241.593 143.464 241.701 143.464 241.818C143.464 241.884 143.39 242.036 143.34 242.092C142.623 242.871 141.337 243.236 140.07 243.236C136.495 243.236 135.009 240.515 135.009 238.407C135.009 235.026 137.537 232.571 141.361 232.571C145.402 232.57 147.609 235.582 147.609 239.385Z" stroke="#C9CACC" stroke-width="0.165" stroke-miterlimit="10"/>
<path d="M150.169 251.788C149.995 251.788 149.826 251.653 149.826 251.432C149.826 251.241 150.068 251.006 150.317 250.784C153.787 247.703 158.726 243.8 158.726 238.511C158.726 234.552 156.563 233.752 155.323 233.752C154.263 233.752 153.439 233.952 152.692 234.643C152.109 235.23 151.651 236.403 151.651 237.052C151.651 237.317 151.579 237.534 151.336 237.534C151.206 237.534 151.134 237.352 151.108 237.052C151.083 236.834 150.963 234.752 150.963 234.022C150.963 233.797 150.988 233.697 151.264 233.522C152.225 233.022 153.566 232.575 155.749 232.575C160.117 232.575 161.968 234.983 161.968 237.917C161.968 242.762 156.644 247 153.439 249.59C153.315 249.672 153.365 249.763 153.489 249.763H155.18C155.603 249.763 158.527 249.728 159.448 249.611C161.16 249.407 161.968 248.551 162.273 247.386C162.342 247.073 162.424 246.982 162.573 246.982C162.746 246.982 162.768 247.212 162.768 247.447C162.768 247.86 162.298 250.193 162.051 251.033C161.851 251.706 161.451 251.788 159.891 251.788H150.169Z" fill="#C9CACC"/>
<path d="M150.169 251.788C149.995 251.788 149.826 251.653 149.826 251.432C149.826 251.241 150.068 251.006 150.317 250.784C153.787 247.703 158.726 243.8 158.726 238.511C158.726 234.552 156.563 233.752 155.323 233.752C154.263 233.752 153.439 233.952 152.692 234.643C152.109 235.23 151.651 236.403 151.651 237.052C151.651 237.317 151.579 237.534 151.336 237.534C151.206 237.534 151.134 237.352 151.108 237.052C151.083 236.834 150.963 234.753 150.963 234.027C150.963 233.797 150.988 233.697 151.264 233.522C152.225 233.022 153.566 232.575 155.749 232.575C160.117 232.575 161.968 234.983 161.968 237.921C161.968 242.763 156.644 247 153.439 249.59C153.315 249.672 153.365 249.763 153.489 249.763H155.18C155.603 249.763 158.527 249.728 159.448 249.611C161.16 249.407 161.968 248.551 162.273 247.386C162.342 247.073 162.424 246.982 162.573 246.982C162.746 246.982 162.768 247.212 162.768 247.447C162.768 247.86 162.298 250.193 162.051 251.033C161.851 251.706 161.451 251.788 159.891 251.788H150.169Z" stroke="#C9CACC" stroke-width="0.165" stroke-miterlimit="10"/>
<path d="M177.379 232.996C177.848 232.996 177.97 233.087 177.97 233.196C177.97 233.352 177.874 233.553 177.797 233.643C175.741 236.608 171.869 246.547 171.495 249.767C171.456 250.184 171.495 250.357 171.495 250.697C171.495 251.179 169.496 252.209 168.374 252.209C168.092 252.209 168.027 252.135 168.027 251.909C168.027 251.652 168.074 251.288 168.2 250.888C168.891 248.48 172.068 241.083 175.488 235.303H169.065C168.373 235.303 167.335 235.346 166.739 235.75C166.283 236.05 165.966 236.862 165.913 237.262C165.892 237.462 165.818 237.584 165.67 237.584C165.497 237.584 165.47 237.463 165.47 237.211C165.47 236.268 165.835 233.352 165.835 233.095C165.835 232.847 165.939 232.738 166.087 232.738C166.234 232.738 166.808 232.995 169.438 232.995H177.379V232.996Z" fill="#C9CACC"/>
<path d="M177.379 232.996C177.848 232.996 177.97 233.087 177.97 233.196C177.97 233.352 177.874 233.553 177.797 233.643C175.741 236.608 171.869 246.547 171.495 249.767C171.456 250.188 171.495 250.357 171.495 250.697C171.495 251.179 169.496 252.209 168.374 252.209C168.092 252.209 168.027 252.135 168.027 251.909C168.027 251.652 168.074 251.288 168.2 250.888C168.891 248.48 172.068 241.083 175.488 235.303H169.065C168.373 235.303 167.335 235.35 166.739 235.75C166.283 236.05 165.966 236.862 165.913 237.262C165.892 237.462 165.818 237.584 165.67 237.584C165.497 237.584 165.47 237.463 165.47 237.211C165.47 236.268 165.835 233.352 165.835 233.095C165.835 232.847 165.939 232.738 166.087 232.738C166.234 232.738 166.808 232.995 169.438 232.995H177.379V232.996Z" stroke="#C9CACC" stroke-width="0.165" stroke-miterlimit="10"/>
<path d="M76.0542 189.762C76.0542 182.687 76.0542 181.383 75.9567 179.897C75.8633 178.319 75.4933 177.572 73.9533 177.233C73.575 177.141 72.7867 177.098 72.1367 177.098C71.6258 177.098 71.3458 177.007 71.3458 176.676C71.3458 176.359 71.6692 176.259 72.3692 176.259C74.835 176.259 77.7708 176.412 78.7517 176.412C80.3317 176.412 83.8692 176.259 85.3158 176.259C88.2475 176.259 91.3633 176.542 93.8775 178.262C95.1808 179.149 97.0375 181.531 97.0375 184.638C97.0375 188.084 95.595 191.248 90.905 195.064C95.0383 200.279 98.2567 204.425 100.998 207.311C103.611 210.018 105.525 210.344 106.213 210.475C106.727 210.575 107.148 210.618 107.513 210.618C107.896 210.618 108.074 210.766 108.074 210.983C108.074 211.357 107.759 211.457 107.198 211.457H102.778C100.167 211.457 99.0042 211.232 97.785 210.575C95.7883 209.498 94.0192 207.311 91.4158 203.735C89.5475 201.162 87.4067 197.998 86.8025 197.307C86.57 197.025 86.285 196.978 85.9658 196.978L81.915 196.887C81.6825 196.887 81.5458 196.977 81.5458 197.252V197.908C81.5458 202.242 81.5458 205.927 81.7717 207.869C81.915 209.225 82.195 210.247 83.5883 210.429C84.2925 210.529 85.3158 210.62 85.8725 210.62C86.2467 210.62 86.4333 210.768 86.4333 210.985C86.4333 211.324 86.0992 211.459 85.5075 211.459C82.7908 211.459 79.3517 211.324 78.6583 211.324C77.7717 211.324 74.8358 211.459 72.9808 211.459C72.37 211.459 72.0442 211.324 72.0442 210.985C72.0442 210.768 72.2308 210.62 72.7875 210.62C73.4917 210.62 74.0483 210.529 74.4717 210.429C75.3975 210.247 75.6367 209.226 75.8192 207.869C76.0558 205.927 76.0558 202.242 76.0558 197.965V189.762H76.0542ZM81.545 193.438C81.545 193.951 81.6383 194.142 81.9625 194.268C82.9342 194.616 84.335 194.751 85.5067 194.751C87.3625 194.751 87.9625 194.551 88.8033 193.951C90.1958 192.934 91.5542 190.782 91.5542 186.972C91.5542 180.362 87.1842 178.453 84.4242 178.453C83.2658 178.453 82.425 178.501 81.9625 178.636C81.6383 178.728 81.545 178.91 81.545 179.283V193.438Z" fill="#010101"/>
<path d="M106.127 193.856C106.127 185.907 111.392 175.62 125.351 175.62C136.944 175.62 144.163 182.378 144.163 193.017C144.163 203.686 136.718 212.104 124.888 212.104C111.524 212.105 106.127 202.092 106.127 193.856ZM137.644 194.752C137.644 184.312 131.636 177.846 124.013 177.846C118.641 177.846 112.548 180.818 112.548 192.417C112.548 202.092 117.903 209.78 126.833 209.78C130.106 209.78 137.644 208.202 137.644 194.752Z" fill="#010101"/>
<path d="M151.429 176.828C151.564 176.038 151.844 175.625 152.218 175.625C152.592 175.625 152.868 175.833 153.477 177.055L166.184 202.94L178.848 176.729C179.222 175.99 179.443 175.625 179.874 175.625C180.283 175.625 180.565 176.073 180.704 177.055L184.941 205.547C185.367 208.472 185.828 209.824 187.223 210.25C188.574 210.672 189.504 210.719 190.113 210.719C190.53 210.719 190.86 210.762 190.86 211.036C190.86 211.41 190.295 211.553 189.648 211.553C188.478 211.553 182.055 211.458 180.195 211.318C179.126 211.227 178.848 211.083 178.848 210.805C178.848 210.571 179.026 210.432 179.352 210.297C179.638 210.197 179.773 209.593 179.587 208.28L176.797 188.045H176.609L166.462 208.81C165.393 210.988 165.158 211.409 164.741 211.409C164.315 211.409 163.854 210.479 163.111 209.084C161.989 206.95 158.322 199.827 157.753 198.514C157.335 197.537 154.541 192.048 152.915 188.553H152.728L150.308 206.703C150.218 207.541 150.168 208.154 150.168 208.893C150.168 209.775 150.778 210.196 151.563 210.387C152.409 210.57 153.054 210.622 153.522 210.622C153.895 210.622 154.223 210.718 154.223 210.944C154.223 211.362 153.798 211.457 153.102 211.457C151.148 211.457 149.047 211.318 148.215 211.318C147.326 211.318 145.097 211.457 143.602 211.457C143.138 211.457 142.765 211.362 142.765 210.944C142.765 210.718 143.041 210.622 143.513 210.622C143.887 210.622 144.21 210.622 144.91 210.479C146.209 210.197 146.583 208.38 146.818 206.802L151.429 176.828Z" fill="#010101"/>
<path d="M202.46 199.588C202.213 199.588 202.13 199.671 202.029 199.953L199.518 206.337C199.057 207.493 198.823 208.619 198.823 209.184C198.823 210.015 199.239 210.623 200.678 210.623H201.378C201.934 210.623 202.073 210.714 202.073 210.988C202.073 211.363 201.804 211.453 201.291 211.453C199.805 211.453 197.805 211.318 196.354 211.318C195.842 211.318 193.286 211.453 190.861 211.453C190.253 211.453 189.974 211.363 189.974 210.988C189.974 210.714 190.165 210.623 190.539 210.623C190.957 210.623 191.608 210.571 191.982 210.523C194.116 210.249 194.998 208.663 195.937 206.338L207.61 177.477C208.175 176.125 208.453 175.625 208.923 175.625C209.339 175.625 209.627 176.033 210.087 177.102C211.203 179.662 218.653 198.285 221.63 205.365C223.399 209.55 224.755 210.197 225.733 210.432C226.433 210.572 227.123 210.623 227.688 210.623C228.053 210.623 228.288 210.671 228.288 210.988C228.288 211.363 227.872 211.453 226.15 211.453C224.473 211.453 221.074 211.453 217.353 211.362C216.51 211.319 215.954 211.319 215.954 210.988C215.954 210.714 216.137 210.623 216.606 210.572C216.928 210.48 217.258 210.058 217.032 209.502L213.303 199.919C213.198 199.672 213.063 199.589 212.833 199.589H202.46V199.588ZM211.952 197.255C212.178 197.255 212.226 197.129 212.178 196.981L207.983 185.529C207.948 185.338 207.897 185.107 207.758 185.107C207.61 185.107 207.528 185.337 207.483 185.529L203.203 196.937C203.15 197.128 203.203 197.255 203.376 197.255H211.952Z" fill="#010101"/>
<path d="M76.0542 188.728C76.0542 181.653 76.0542 180.348 75.9567 178.862C75.8633 177.276 75.4933 176.538 73.9533 176.198C73.575 176.116 72.7867 176.055 72.1367 176.055C71.6258 176.055 71.3458 175.972 71.3458 175.633C71.3458 175.325 71.6692 175.225 72.3692 175.225C74.835 175.225 77.7708 175.36 78.7517 175.36C80.3317 175.36 83.8692 175.225 85.3158 175.225C88.2475 175.225 91.3633 175.517 93.8775 177.22C95.1808 178.106 97.0375 180.487 97.0375 183.604C97.0375 187.05 95.595 190.214 90.905 194.03C95.0383 199.245 98.2567 203.391 100.998 206.277C103.611 208.976 105.525 209.302 106.213 209.449C106.727 209.54 107.148 209.575 107.513 209.575C107.896 209.575 108.074 209.723 108.074 209.948C108.074 210.323 107.759 210.422 107.198 210.422H102.778C100.167 210.422 99.0042 210.188 97.785 209.539C95.7883 208.453 94.0192 206.275 91.4158 202.699C89.5475 200.135 87.4067 196.963 86.8025 196.272C86.57 195.989 86.285 195.942 85.9658 195.942L81.915 195.842C81.6825 195.842 81.5458 195.942 81.5458 196.215V196.872C81.5458 201.205 81.5458 204.877 81.7717 206.833C81.915 208.18 82.195 209.21 83.5883 209.384C84.2925 209.484 85.3158 209.575 85.8725 209.575C86.2467 209.575 86.4333 209.723 86.4333 209.948C86.4333 210.288 86.0992 210.422 85.5075 210.422C82.7908 210.422 79.3517 210.287 78.6583 210.287C77.7717 210.287 74.8358 210.422 72.9808 210.422C72.37 210.422 72.0442 210.287 72.0442 209.948C72.0442 209.723 72.2308 209.575 72.7875 209.575C73.4917 209.575 74.0483 209.484 74.4717 209.384C75.3975 209.211 75.6367 208.18 75.8192 206.833C76.0558 204.877 76.0558 201.205 76.0558 196.919V188.728H76.0542ZM81.545 192.404C81.545 192.926 81.6383 193.099 81.9625 193.243C82.9342 193.56 84.335 193.708 85.5067 193.708C87.3625 193.708 87.9625 193.526 88.8033 192.927C90.1958 191.892 91.5542 189.741 91.5542 185.93C91.5542 179.328 87.1842 177.412 84.4242 177.412C83.2658 177.412 82.425 177.468 81.9625 177.594C81.6383 177.685 81.545 177.877 81.545 178.251V192.404Z" fill="#F89728"/>
<path d="M106.127 192.822C106.127 184.864 111.392 174.577 125.351 174.577C136.944 174.577 144.163 181.331 144.163 191.987C144.163 202.644 136.718 211.071 124.888 211.071C111.524 211.071 106.127 201.058 106.127 192.822ZM137.644 193.708C137.644 183.277 131.636 176.802 124.013 176.802C118.641 176.802 112.548 179.793 112.548 191.383C112.548 201.058 117.903 208.737 126.833 208.737C130.106 208.737 137.644 207.151 137.644 193.708Z" fill="#F89728"/>
<path d="M151.429 175.777C151.564 174.986 151.844 174.572 152.218 174.572C152.592 174.572 152.868 174.812 153.477 176.015L166.184 201.896L178.848 175.694C179.222 174.947 179.443 174.572 179.874 174.572C180.283 174.572 180.573 175.037 180.704 176.015L184.95 204.503C185.367 207.433 185.828 208.789 187.223 209.219C188.575 209.627 189.505 209.675 190.113 209.675C190.531 209.675 190.861 209.718 190.861 209.992C190.861 210.375 190.296 210.514 189.648 210.514C188.479 210.514 182.056 210.422 180.196 210.284C179.127 210.184 178.848 210.049 178.848 209.776C178.848 209.537 179.027 209.393 179.353 209.254C179.639 209.163 179.774 208.555 179.588 207.251L176.798 186.994H176.61L166.463 207.768C165.393 209.958 165.159 210.376 164.742 210.376C164.316 210.376 163.855 209.446 163.112 208.042C161.99 205.908 158.323 198.785 157.753 197.482C157.336 196.499 154.542 191.006 152.916 187.525H152.729L150.308 205.669C150.219 206.512 150.169 207.121 150.169 207.859C150.169 208.737 150.779 209.162 151.564 209.354C152.41 209.537 153.055 209.584 153.523 209.584C153.896 209.584 154.224 209.675 154.224 209.91C154.224 210.332 153.798 210.422 153.103 210.422C151.149 210.422 149.048 210.283 148.216 210.283C147.327 210.283 145.098 210.422 143.603 210.422C143.139 210.422 142.766 210.332 142.766 209.91C142.766 209.675 143.042 209.584 143.513 209.584C143.888 209.584 144.211 209.584 144.911 209.445C146.21 209.162 146.584 207.346 146.819 205.764L151.429 175.777Z" fill="#F89728"/>
<path d="M202.46 198.545C202.213 198.545 202.13 198.645 202.029 198.91L199.518 205.303C199.057 206.468 198.823 207.58 198.823 208.137C198.823 208.971 199.239 209.579 200.678 209.579H201.378C201.934 209.579 202.073 209.671 202.073 209.953C202.073 210.328 201.804 210.418 201.291 210.418C199.805 210.418 197.805 210.283 196.354 210.283C195.842 210.283 193.286 210.418 190.861 210.418C190.253 210.418 189.974 210.328 189.974 209.953C189.974 209.671 190.165 209.579 190.539 209.579C190.957 209.579 191.608 209.536 191.982 209.479C194.116 209.214 194.998 207.628 195.937 205.303L207.61 176.441C208.175 175.089 208.453 174.577 208.923 174.577C209.339 174.577 209.627 174.989 210.087 176.054C211.203 178.627 218.653 197.241 221.63 204.317C223.399 208.511 224.755 209.163 225.733 209.388C226.433 209.537 227.123 209.579 227.688 209.579C228.053 209.579 228.288 209.636 228.288 209.953C228.288 210.328 227.872 210.418 226.15 210.418C224.473 210.418 221.074 210.418 217.353 210.328C216.51 210.284 215.954 210.284 215.954 209.953C215.954 209.671 216.137 209.579 216.606 209.537C216.928 209.454 217.258 209.023 217.032 208.459L213.303 198.872C213.198 198.646 213.063 198.546 212.833 198.546H202.46V198.545ZM211.952 196.22C212.178 196.22 212.226 196.081 212.178 195.946L207.983 184.481C207.948 184.298 207.897 184.073 207.758 184.073C207.61 184.073 207.528 184.298 207.483 184.481L203.203 195.898C203.15 196.08 203.203 196.219 203.376 196.219H211.952V196.22Z" fill="#F89728"/>
<path d="M43.9217 150.665H255.717" stroke="black" stroke-width="0.418" stroke-miterlimit="10" stroke-linecap="round"/>
<path d="M235.868 132.464C235.294 131.734 234.642 130.952 233.973 130.141C230.983 126.51 224.317 117.563 224.317 117.563C224.317 88.5083 219.119 83.0933 213.764 78.53C209.044 74.5117 201.518 72.4558 193.438 71.2092C191.243 70.8633 188.831 70.7158 186.054 70.7158C183.368 70.7158 180.643 70.855 178.023 71C175.853 71.1242 137.961 72.715 125.805 70.6633C120.505 69.7675 113.158 70.8 108.788 71.3258C106.785 71.5558 95.8458 73.305 94.5592 71.2367C94.3117 70.845 94.3292 69.985 94.4358 69.0117C94.5833 67.4883 95.205 65.6367 94.0183 63.9767C92.38 61.695 90.5917 59.2417 89.6075 59.2417C89.2967 59.2417 86.5917 61.4583 85.9308 62.1275C84.8292 63.24 84.4817 65.0625 84.5292 67.1858C84.5575 68.4892 84.4725 68.235 84.375 68.3333C84.21 68.4983 77.245 68.4983 75.4783 68.6283C75.4742 68.2717 75.415 66.4642 74.2308 64.7425C73.4658 63.6392 72.8292 59.9533 72.8292 59.9533C72.8292 59.9533 70.3067 64.3233 69.4567 65.4992C68.5067 66.785 67.5292 68.1242 66.9558 69.665C66.7367 70.2517 66.6933 70.96 66.6433 71.645C66.6217 72.14 66.5458 73.1767 66.3458 73.34C65.0075 74.3158 64.2642 75.6583 64.1292 77.3475C64.1033 77.8358 64.24 78.4942 64.3833 79.2592C64.4808 79.7458 64.6425 80.5108 64.6425 80.8758C64.5075 80.9742 64.3792 81.0583 64.2408 81.1475C63.05 81.9033 61.42 82.9708 61.5225 84.8483C61.6792 87.6883 62.3333 88.7917 63.2325 90.3333C63.4842 90.7675 63.7433 91.2008 64.0275 91.735C64.4275 92.4958 64.5967 93.5867 64.7708 94.6358C65.0075 96.1133 63.6275 97.73 64.5708 98.66C65.8075 99.8683 69.0042 99.9358 70.3883 99.9358C70.7617 99.9358 72.2158 99.8967 72.5633 99.8967C73.1025 99.8967 73.5217 99.9275 73.8758 99.9992C76.5425 100.521 79.2217 100.729 81.7983 100.947C85.3533 101.223 88.7083 101.494 92.0875 102.488C98.3175 104.319 104.463 106.883 110.862 110.298C111.209 110.484 111.54 110.649 111.847 110.815C114.219 112.038 114.726 111.873 115.838 115.131C116.951 118.401 114.9 143.903 114.449 146.538C113.733 150.797 112.377 153.37 110.164 154.178C107.205 155.247 105.99 157.561 104.818 159.806C104.444 160.536 104.499 161.409 104.045 162.139C104.045 162.139 103.078 163.199 103.403 163.469C103.723 163.747 106.728 163.026 106.728 163.026C107.752 163.087 106.648 163.626 107.672 163.626C110.203 163.626 113.261 163.608 116.373 161.823C117.676 161.823 116.803 163.483 118.008 163.261C121.724 162.587 122.072 159.723 122.522 156.988C123.283 152.389 123.172 151.588 123.684 151.162C124.195 150.733 125.847 151.433 126.288 150.933C126.624 150.559 126.255 147.204 126.446 144.173C126.718 139.853 127.902 134.783 129.193 130.614L129.26 130.397C129.54 129.476 129.962 128.354 130.412 127.178C131.627 123.993 133.104 120.125 132.93 117.02C134.258 117.246 134.475 117.327 135.232 118.376C135.343 118.541 135.549 118.872 135.77 119.217C137.235 121.616 137.987 122.288 138.948 122.288C139.045 122.288 139.152 122.278 139.237 122.253C140.817 121.844 141.668 120.503 142.562 118.741C143.453 117.02 144.365 115.229 145.852 114.902C145.908 114.891 145.972 114.873 146.056 114.873C147.262 114.873 149.381 115.951 150.587 117.82C153.253 121.951 155.526 119.063 155.739 118.723C156.048 118.248 158.184 114.718 158.709 113.899C159.353 112.915 159.753 112.822 159.9 112.822H159.935C161.238 113.022 166.898 119.818 168.914 119.36C170.87 119.141 173.043 111.692 174.243 111.692C174.299 111.692 174.36 111.7 174.425 111.718C174.708 111.954 175.381 112.969 175.838 113.645C177.342 115.933 177.672 117.454 178.858 117.454C179.241 117.454 179.902 117.126 180.298 116.133C180.406 115.862 180.863 114.744 180.928 114.621C181.002 114.71 182.005 118.095 184.457 115.093C184.431 115.056 184.413 115.003 184.396 114.958C184.387 114.986 184.378 115.003 184.37 115.02C184.378 115.003 184.388 114.985 184.396 114.958C184.387 114.94 184.378 114.932 184.37 114.909C184.378 114.931 184.388 114.94 184.396 114.958C184.726 114.193 189.263 118.66 191.428 120.418C193.392 122.226 195.053 123.819 195.192 123.938C199.859 128.096 205.661 133.276 206.791 138.887C207.438 142.131 207.282 145.871 206.369 149.426C206.169 150.169 205.978 150.606 205.796 150.721C205.613 150.858 205.104 150.878 204.466 150.886C204.175 150.895 203.858 150.908 203.493 150.943C201.893 151.032 200.807 152.738 199.833 154.241C199.399 154.934 198.829 155.51 198.529 156.021C198.234 156.533 198.712 157.388 198.998 157.562C199.293 157.744 202.171 158.42 203.032 158.42C203.283 158.42 203.527 158.403 203.718 158.339C204.336 158.568 205.074 158.696 205.926 158.696C208.447 158.696 211.571 157.646 212.463 155.91C213.975 152.951 215.001 149.737 216 146.618C216.104 146.271 216.222 145.91 216.339 145.563C216.548 144.878 216.861 144.113 217.165 143.311C218.256 140.453 220.112 137.4 219.286 134.588C218.855 133.106 217.356 131.666 216.4 130.397C215.557 129.267 212.375 125.114 211.411 123.667C214.383 126.546 222.633 130.805 224.727 135.794C225.466 137.543 224.701 144.868 224.574 146.831C224.509 147.757 224.466 148.708 224.435 149.658C224.344 152.658 223.47 153.196 220.458 153.503C217.851 153.77 216.648 157.629 216.008 159.707C215.973 159.824 215.939 159.933 215.904 160.037L215.6 161.002L216.613 161.175C216.999 161.236 217.434 161.318 217.899 161.41C219.781 161.758 222.953 162.936 225.166 162.936C227.804 162.936 229.655 162.306 230.828 161.019C232.345 159.376 232.923 156.413 233.445 153.805C233.636 152.832 234.723 149.338 235.113 148.077C237.593 140.096 240.048 137.045 235.868 132.464ZM67.7125 94.0717C66.8 94.6367 66.4567 93.0483 66.4567 93.0483C66.2092 92.4117 66.1808 91.7533 66.5458 91.49C67.2367 91.9183 68.06 91.9092 68.3033 92.3092C68.5617 92.75 68.1875 93.7783 67.7125 94.0717Z" fill="black"/>
<path d="M223.607 155.568C223.316 156.115 222.299 156.226 221.942 156.349C221.204 156.663 220.517 157.108 220.552 157.618C220.552 157.818 220.431 160.257 220.552 160.465C220.7 160.739 221.691 161.087 221.908 160.748C222.065 160.53 221.9 158.812 222.091 157.636C222.126 157.473 222.239 156.773 222.577 156.617C222.699 156.587 223.873 156.053 223.607 155.568Z" fill="#C9CACC"/>
<path d="M138.873 113.116C139.769 113.027 141.027 112.805 141.455 113.107C141.892 113.427 142.504 114.539 142.474 115.222C142.433 115.898 140.212 119.47 140.067 119.635C139.923 119.8 139.702 120.313 139.302 119.783C138.9 119.236 138.202 113.753 138.202 113.753C138.202 113.753 138.087 113.205 138.873 113.116Z" fill="#C9CACC"/>
<path d="M234.916 134.289C233.703 132.532 230.666 129.422 229.453 127.924C227.837 125.945 220.431 117.252 220.431 117.252C220.431 117.252 218.302 104.11 217.389 101.129C216.816 99.2167 215.207 85.37 204.49 77.8492C205.068 76.88 212.008 82.3283 214.521 86.5675C219.075 94.2617 221.017 114.352 221.017 114.352C221.017 114.352 223.907 83.6667 207.671 77.1733C196.023 72.3042 190.208 73.0883 190.208 73.0883C190.208 73.0883 182.142 77.93 187.01 87.1325C187.94 88.9275 198.553 105.197 199.232 106.474C205.268 117.792 224.456 130.968 227.95 134.552C228.132 134.752 231.44 136.905 231.662 139.304C231.705 139.749 227.177 136.705 227.237 137.27C227.854 142.944 227.184 153.839 227.097 155.08C226.993 156.522 226.915 156.731 226.037 157.053C225.168 157.36 224.256 156.532 223.725 158.018C223.134 159.67 223.352 160.891 224.872 160.891C226.393 160.891 228.706 161.695 230.175 156.103C231.644 150.456 234.842 140.417 235.807 136.722C236.037 135.847 235.337 134.889 234.916 134.289Z" fill="#C9CACC"/>
<path d="M72.6492 64.9183C72.6492 64.9183 73.9267 68.6733 73.8992 69.725C73.8817 70.7917 73.5533 70.8717 73.5533 70.8717L69.77 72.5233C69.77 72.5233 70.5933 71.5675 71.0233 70.37C71.465 69.16 72.675 66.0575 72.6492 64.9183Z" fill="#C9CACC"/>
<path d="M117.826 159.436C117.746 159.49 117.643 159.501 117.613 159.453L117.372 159.125C117.346 159.079 117.381 158.99 117.465 158.923L117.656 158.799C117.736 158.741 117.843 158.732 117.871 158.778L118.11 159.106C118.151 159.152 118.102 159.237 118.021 159.308L117.826 159.436Z" fill="#C9CACC"/>
<path d="M205.246 153.395C205.246 153.395 204.777 153.247 204.516 153.586C204.159 154.07 203.994 155.904 203.994 155.904C203.994 155.904 204.438 156.46 205.246 156.132C206.054 155.827 207.697 154.596 207.175 154.196C206.645 153.794 205.246 153.395 205.246 153.395Z" fill="#C9CACC"/>
<path d="M203.794 152.517C203.794 152.517 203.064 152.508 202.734 152.873C202.378 153.273 201.739 154.351 201.778 154.794C201.831 155.227 202.465 155.948 202.787 155.507C203.108 155.062 204.603 152.473 203.794 152.517Z" fill="#C9CACC"/>
<path d="M64.9083 84.2233C64.055 85.5617 66.51 86.7333 67.1292 86.0117C67.5967 84.1883 65.7408 83.5283 64.9083 84.2233Z" fill="#C9CACC"/>
<path d="M84.675 86.5875C83.4342 85.1183 82.5217 82.6675 83.3367 82.2092C84.1492 81.7633 84.9342 82.3825 85.4317 82.6675C86.1708 83.0758 86.5442 82.8042 86.4917 81.8175C86.455 81.0508 86.37 80.3308 86.285 79.6358C86.0375 77.5392 84.9333 75.2358 84.0708 74.3142C82.6458 72.7825 78.5508 70.9942 75.9917 72.7233C75.2533 73.2275 74.6967 74.0467 74.2208 75.0158C74.0475 75.3683 74.5508 75.8525 74.3908 76.2542C73.4517 78.5358 72.0242 81.1808 70.355 82.8842C70.2833 82.9733 76.0292 83.4492 84.1492 89.4117C84.8708 89.925 83.4992 92.8258 83.0283 92.6892C82.7808 92.6542 83.8517 90.2467 83.0458 89.7967C79.3258 87.7083 77.12 87.4283 74.3192 86.43C73.6475 86.1958 71.6942 87.4275 71.1967 86.9608C70.4975 86.0483 68.3658 85.0117 68.1483 84.9092C68.2283 84.9525 68.4958 85.155 68.5892 86.0483C68.8542 88.3492 64.5692 86.0483 68.2042 89.7333C69.2283 90.7525 70.2075 91.5408 70.9642 91.2108C72.1308 91.1933 71.6008 91.3583 71.72 91.6283L72.3392 93.0975C72.45 93.3733 72.5892 93.3558 72.6417 93.0625L72.9258 91.5133C72.9758 91.22 73.2692 90.985 73.5708 90.9933C73.5708 90.9933 79.0683 91.1175 80.1817 91.2283C81.2983 91.3483 81.3633 91.75 81.3633 91.75C81.4175 92.0475 81.85 92.68 80.92 93.4275C80.2425 93.9667 78.6192 92.8367 77.3192 93.8908C76.0158 94.94 73.4083 95.4167 73.4083 95.4167C73.0992 95.4708 72.7717 95.3058 72.65 95.0208L71.9875 93.5342C71.8725 93.2542 71.7575 93.2625 71.7292 93.5733L71.5658 95.5142C71.5375 95.81 71.4483 96.0533 71.375 96.07C71.29 96.07 71.125 95.8525 70.9967 95.5817L70.9467 95.4883C70.8183 95.2083 70.5467 95.1867 70.3558 95.3992L70.0217 95.79C69.8258 96.0275 69.5367 95.9925 69.385 95.7342L69.2525 95.5317C69.1 95.2625 68.8508 95.2625 68.6917 95.5317L68.485 95.8533C68.3308 96.1167 68.1158 96.0883 68.0267 95.81L67.9525 95.5992C67.8633 95.3142 67.6808 95.3058 67.5658 95.5683C67.4767 95.7683 67.3467 95.81 67.2533 95.6875C67.0667 95.8783 66.9342 96.0092 66.8708 96.07C66.7058 96.2267 66.3325 96.5658 66.315 96.8808C66.3017 97.1917 66.6933 97.3658 68.59 97.7567C70.4892 98.1408 79.305 94.5408 82.0867 95.1317C85.305 95.7992 86.5458 93.1608 86.765 89.7342C86.765 89.645 86.7367 89.4583 86.6975 89.1867C86.1308 88.2742 85.3158 87.3442 84.675 86.5875Z" fill="#C9CACC"/>
<path d="M76.0133 76.2525C76.0133 76.2525 77.1175 74.3292 78.475 73.9467C79.4792 73.6617 80.5225 74.2358 82.0733 75.2792C83.6358 76.3158 84.4508 77.9383 85.9783 77.5133C86.5067 77.365 84.8025 79.28 83.3075 78.7325C82.9467 78.5975 80.7042 74.8683 78.5225 74.9233C78.5225 74.9233 77.1167 75.1942 76.0133 76.2525Z" fill="black"/>
<path d="M80.0108 74.46C78.1808 73.9408 77.1183 75.19 77.1183 75.19C77.5942 73.9667 79.7742 74.74 80.7208 75.1308C81.2467 75.3592 81.9767 76.5567 82.4983 77.5492C81.9092 76.965 81.1058 76.3392 80.41 76.2717C79.0258 76.1483 78.8975 77.98 78.8975 77.98L78.1975 78.8533C78.1975 78.8533 78.2867 79.075 79.3517 79.075C80.4142 79.075 84.13 79.0358 84.6258 78.5817C85.1158 78.1417 82.0125 75.045 80.0108 74.46ZM80.4025 78.4258C80.0725 78.4258 79.8025 78.0867 79.8025 77.67C79.8025 77.27 80.0725 76.9225 80.4025 76.9225C80.7375 76.9225 81.1675 77.27 81.1675 77.6958C81.1675 78.0958 80.7367 78.4258 80.4025 78.4258Z" fill="black"/>
<path d="M108.513 157.706C108.513 157.706 107.103 160.539 107.07 160.835C107.039 161.127 107.103 161.317 107.268 161.317C107.43 161.317 107.934 161.461 108.295 161.209C108.649 160.953 109.99 158.152 110.163 157.758C110.208 157.652 109.108 157.03 108.513 157.706Z" fill="#C9CACC"/>
<path d="M218.036 136.897C218.748 134.387 216.406 134.116 215.589 137.364C215.32 138.485 212.073 150.274 211.73 153.359C211.699 153.513 211.817 153.666 211.964 153.483C212.008 154.551 217.727 138.018 218.036 136.897Z" fill="#C9CACC"/>
<path d="M199.631 97.4008C199.618 97.4725 199.478 97.5033 199.318 97.4808L198.154 97.2808C197.984 97.2442 197.868 97.1658 197.876 97.0983L197.911 96.9375C197.919 96.87 198.068 96.8442 198.233 96.8617L199.388 97.07C199.536 97.0983 199.671 97.1833 199.663 97.2433L199.631 97.4008Z" fill="#C9CACC"/>
<path d="M199.192 97.8875C199.182 97.9592 199.092 97.9983 198.983 97.9808L198.205 97.8433C198.087 97.8242 198.005 97.7567 198.032 97.6867L198.053 97.53C198.071 97.45 198.171 97.4192 198.283 97.4408L199.044 97.5758C199.157 97.5933 199.235 97.6608 199.218 97.73L199.192 97.8875Z" fill="#C9CACC"/>
<path d="M113.045 72.8192C107.349 73.9058 99.37 74.3858 95.0308 73.7925C91.5992 73.3208 91.4475 71.2133 92.0667 69.3425C88.8892 72.48 87.1925 71.2525 87.1208 70.8658C87.0008 70.3683 88.2967 70.8658 89.1375 70.0292C89.9875 69.2058 90.4867 66.2375 89.82 64.805C89.1458 63.38 89.8758 63.6383 89.8758 63.6383C89.8758 63.6383 91.6467 63.8167 92.4225 65.935C92.92 63.8167 89.9867 61.18 89.035 61.7867C88.0875 62.3883 86.1692 63.9617 86.4358 66.2633C86.7792 69.1083 86.5708 70.5142 85.6492 70.4833C79.4258 70.2033 72.4567 69.3708 68.5867 73.4017C68.5867 73.4017 73.28 70.3092 76.885 70.6458C80.4808 70.9758 87.8625 71.7058 88.3083 80.3617C88.3083 80.3617 88.2275 82.3108 88.3933 84.5725C88.4742 85.77 87.335 85.0033 87.3483 85.5333C87.3917 87.9325 89.0975 87.5667 88.9583 89.6358C88.3675 98.145 84.4425 97.9708 84.4425 97.9708C84.4425 97.9708 89.1825 98.6333 91.5308 90.6825C91.5217 95.2433 91.0417 96.3908 89.1992 98.1708C92.8217 98.3983 95.6658 94.9767 95.7508 94.4592C96.2875 95.3242 97.315 98.1225 100.022 99.2658C98.6858 97.0583 99.0125 94.3858 99.2883 92.0167C100.101 97.3292 101.455 99.3108 104.193 100.467C103.088 99.355 100.851 96.9475 101.522 92.6367C102.041 96.3217 106.35 99.6008 106.35 99.6008C106.35 99.6008 104.978 97.3842 104.614 93.4817C106.462 97.4517 108.445 97.78 108.445 97.78C108.445 97.78 105.383 94.5575 104.86 90.3742C104.797 90.2983 107.009 93.2192 108.81 93.2192C107.426 91.5592 105.233 89.1967 104.992 86.2133C106.372 87.9958 107.369 89.16 108.962 89.3425C107.619 87.795 106.515 85.3292 106.096 82.3475C107.633 84.275 107.369 84.9092 110.258 85.7025C109.141 84.6117 108.372 81.6083 108.928 80.1617C109.425 81.1725 111.343 82.2042 113.63 82.5025C112.892 82.0308 111.705 79.1842 111.877 78.0525C112.915 78.565 115.153 79.3217 116.924 79.0783C116.083 78.5825 115.49 76.0775 115.748 75.4908C116.22 75.7925 119.599 75.7408 120.314 75.4908C119.218 74.8083 118.268 73.785 118.522 73.8783C119.337 74.1675 120.671 73.47 122.407 73.1942C124.254 72.9008 124.577 72.8833 125.736 72.9008C124.612 72.3567 117.504 71.7158 113.045 72.8192Z" fill="#C9CACC"/>
<path d="M170.434 108.344C170.434 108.344 166.783 108.098 166.506 109.22C166.236 110.343 168.17 116.28 168.462 116.991C168.918 118.112 170.148 115.513 170.148 115.513C170.538 114.802 172.034 111.317 172.034 110.842C172.043 110.247 172.082 108.335 170.434 108.344Z" fill="#C9CACC"/>
<path d="M187.975 115.471C187.74 115.573 187.514 115.618 187.34 115.679C187.513 115.742 187.688 115.792 187.844 115.801C187.853 115.697 187.906 115.582 187.975 115.471Z" fill="#C9CACC"/>
<path d="M156.167 108.908C156.167 108.908 152.527 108.682 152.243 109.795C151.958 110.917 153.518 116.114 153.764 116.836C154.129 117.92 154.908 116.28 154.908 116.28C155.301 115.576 158.206 111.882 158.215 111.41C158.213 110.833 157.827 108.9 156.167 108.908Z" fill="#C9CACC"/>
<path d="M181.713 72.9408C180.583 73.0042 171.069 74.0708 164.723 74.0883C159.665 74.1075 154.322 73.8625 151.468 73.965C151.244 73.9342 150.886 73.965 150.556 74.0108C146.31 73.8283 132.716 73.6092 132.716 73.6092C131.701 73.405 117.913 76.975 115.914 92.31C114.682 101.758 115.284 104.781 117.42 109.266C118.691 111.937 121.247 116.862 121.158 120.711C121.123 122.323 118.261 113.97 118.304 114.918C118.719 124.624 117.031 146.483 116.066 151.124C114.914 156.657 113.802 153.858 112.507 156.168C112.304 156.533 109.475 161.673 109.538 161.739C109.599 161.783 110.958 161.574 112.398 161.439C114.074 161.383 115.448 156.83 116.593 156.83C116.779 156.83 115.333 160.496 115.556 160.435C116.743 160.144 118.678 159.64 118.55 160.592C118.98 160.727 119.319 160.505 119.582 160.188C119.929 159.77 121.501 152.699 122.465 149.024C122.683 148.422 124.258 148.77 124.686 148.935C125.544 147.203 124.175 141.427 126.648 133.402C129.101 125.517 131.681 118.676 130.524 116.644C130.4 116.412 126.222 121.966 126.117 121.747C125.856 121.112 139.744 97.7833 137.052 85.7008C136.999 85.2683 136.808 84.78 136.808 84.4317C136.8 84.3383 138.414 85.0142 140.422 85.5442C143.025 86.3458 145.313 86.7675 146.096 89.7775C147.034 95.5833 149.727 103.812 155.201 104.31C152.712 102.032 149.532 90.4567 149.927 85.7C151.463 93.46 156.189 104.703 160.09 104.194C159.291 102.944 156.038 95.8675 156.038 91.4167C157.443 95.1108 160.803 103.205 163.337 103.263C169.964 103.398 171.651 100.38 176.548 99.2758C187.522 96.7958 190.399 101.008 192.077 101.875C190.738 100.58 186.158 92.5833 183.115 86.3442C180.69 81.4025 184.784 76.4675 191.729 73.4017C193.103 72.7933 183.881 72.8783 181.713 72.9408Z" fill="#C9CACC"/>
<path d="M186.441 115.592C186.441 115.592 186.076 115.271 185.768 115.219C185.668 115.202 185.603 115.193 185.542 115.193C185.403 115.193 185.333 115.219 185.333 115.219L185.186 115.291L185.229 115.138C185.247 115.036 185.386 114.845 185.663 114.845C185.768 114.845 185.877 114.871 185.993 114.917C186.424 115.071 186.558 115.503 186.558 115.512L186.641 115.766L186.441 115.592Z" fill="black"/>
<path d="M183.29 114.993C183.316 114.9 183.447 114.7 183.733 114.7C183.833 114.7 183.942 114.722 184.063 114.759C184.132 114.794 184.254 114.865 184.254 114.865L184.341 114.913L184.046 115.142L184.011 115.124C184.011 115.124 183.893 115.083 183.832 115.074C183.741 115.057 183.662 115.048 183.602 115.048C183.459 115.048 183.394 115.074 183.394 115.074L183.247 115.142L183.29 114.993Z" fill="black"/>
<path d="M184.037 114.828C184.098 114.854 184.211 114.917 184.211 114.917L184.037 115.054C184.037 115.054 183.907 115.002 183.847 114.993C183.507 114.931 183.36 115.011 183.36 115.011C183.36 115.011 183.468 114.628 184.037 114.828Z" fill="black"/>
<path d="M190.047 157.063C186.158 157.063 185.654 150.743 185.567 149.613C184.628 149.546 183.611 148.901 182.916 148.353C182.881 148.328 182.812 148.282 182.733 148.243C182.751 148.71 182.772 149.194 182.781 149.648C182.82 150.378 182.963 152.265 183.02 152.769L183.033 152.822C183.116 153.534 183.316 155.203 181.677 156.116C181.191 156.368 180.656 156.515 180.074 156.515C179.578 156.515 179.136 156.412 178.84 156.35C178.771 156.342 178.709 156.324 178.657 156.315L178.371 156.289C177.954 156.231 177.38 156.159 176.946 156.132H176.824C176.007 156.132 173.699 156.281 173.33 156.315C173.243 156.323 173.165 156.332 173.078 156.332C171.775 156.332 170.714 155.292 170.697 155.274C170.04 154.629 169.984 153.606 170.566 152.786L170.714 152.568L170.932 152.403C171.062 152.318 171.47 152.038 172.052 151.953C172.531 151.647 173.287 151.206 174.43 150.569C173.426 148.616 169.002 141.842 172.861 139.707C174.282 138.931 176.481 138.148 178.545 137.664C178.562 137.529 178.597 137.401 178.632 137.282C178.675 137.125 178.718 136.599 178.657 136.177C178.057 136.506 177.449 136.679 176.945 136.679C176.772 136.679 176.615 136.662 176.458 136.627C175.146 136.351 173.451 134.41 173.251 134.152C172.956 133.752 171.843 131.717 170.808 129.786C168.001 129.655 167.74 129.577 167.548 129.518C167.262 129.421 166.94 129.318 165.115 127.795C164.515 127.276 164.211 126.584 164.307 125.9C164.385 125.335 164.741 124.84 165.254 124.579C165.297 124.562 165.323 124.543 165.376 124.521C165.61 124.206 166.002 123.884 166.662 123.747L166.844 123.702H167.066C167.514 123.702 167.896 123.858 168.217 124.058C168.243 123.84 168.296 123.621 168.408 123.421C168.747 122.762 169.438 122.363 170.26 122.363C170.712 122.363 171.198 122.482 171.755 122.727L171.833 122.771L171.92 122.825C172.102 122.936 172.128 122.936 172.128 122.936C172.472 123.007 173.285 123.255 173.554 123.362C174.023 123.563 174.362 123.823 175.245 125.343L176.64 126.749C177.279 125.262 178.048 124.596 178.331 124.35C178.731 124.004 179.222 123.857 179.735 123.701C179.835 123.666 179.978 123.62 180.092 123.59C180.292 123.407 180.535 123.238 180.796 123.092C180.809 123.017 180.839 122.936 180.865 122.873C180.657 122.58 180.404 122.198 180.2 121.876C179.627 120.92 179.7 120.062 179.743 119.527L179.752 119.353C179.835 117.876 181.695 116.617 181.712 116.609C181.921 116.47 182.151 116.359 182.352 116.279C182.725 115.843 183.377 115.114 183.837 114.703C184.212 114.347 184.716 114.108 185.193 113.934C185.592 113.106 186.437 112.706 187.731 112.706C188.139 112.706 189.487 112.804 189.93 112.869C190.886 113.026 191.533 113.628 191.864 114.356C192.694 114.636 193.22 115.383 193.32 116.389L193.611 116.707C193.824 116.915 194.28 117.462 194.432 118.287C194.945 119.26 194.858 120.427 194.797 120.947C194.772 122.528 194.363 123.459 193.924 123.987C193.868 124.177 193.824 124.33 193.759 124.458C195.276 125.397 195.745 127.498 195.884 128.327C196.014 128.812 196.606 130.873 196.909 132.212C197.335 134.127 196.674 135.932 196.605 136.132L196.518 136.341L196.387 136.523C196.266 136.688 195.614 137.538 195.345 137.873C194.832 138.479 194.28 138.748 193.807 138.852C193.967 139.496 194.132 140.191 194.241 140.837C195.457 142.353 196.118 144.45 196.118 145.197C196.118 145.682 195.966 146.207 195.814 146.586H195.822C195.952 146.96 195.97 147.432 195.952 148.446C196.474 149.019 196.917 149.83 197.387 150.743C197.439 150.853 197.473 150.933 197.5 150.968C199.803 156.003 194.014 156.394 193.658 156.27C192.912 156.973 190.452 157.063 190.047 157.063Z" fill="black"/>
<path d="M189.67 114.498C189.327 114.434 188.079 114.341 187.723 114.341C186.007 114.341 186.902 115.21 186.902 115.21C186.902 115.21 185.532 115.392 184.967 115.912C184.394 116.437 183.351 117.653 183.351 117.653C183.351 117.653 182.89 117.818 182.612 118C182.334 118.173 181.538 118.782 181.421 119.449C181.334 119.894 181.273 120.442 181.629 121.033C181.977 121.627 182.577 122.413 182.577 122.413C182.577 122.413 182.724 122.693 182.577 123.023C182.433 123.363 182.194 124.207 182.194 124.207C182.194 124.207 181.364 124.612 181.121 124.892C180.873 125.177 179.717 125.346 179.422 125.587C179.143 125.83 178.396 126.488 177.883 128.247C177.283 128.767 176.971 129.435 176.971 129.435L173.898 126.343C173.898 126.343 173.494 125.1 172.929 124.892C172.729 124.82 171.373 124.371 171.052 124.233C169.912 123.805 169.713 124.136 169.939 124.455C170.174 124.772 170.869 125.1 171.052 125.194C171.217 125.292 171.295 126.508 168.417 126.048C168.287 126.013 167.505 125.55 167.027 125.346C165.784 124.947 166.002 126.133 166.253 126.353C166.522 126.561 167.77 127.848 168.061 127.941C168.335 128.03 171.842 128.178 171.842 128.178C171.842 128.178 174.254 132.723 174.589 133.164C174.937 133.618 176.275 134.896 176.814 135.007C177.362 135.13 178.978 134.539 179.769 133.07L180.091 139.007C180.091 139.007 174.58 140.241 173.567 141.078C171.494 142.718 175.162 148.977 176.397 150.637C176.787 151.184 176.514 151.304 176.514 151.304C176.514 151.304 172.651 153.427 172.607 153.601C172.242 153.498 171.938 153.721 171.938 153.721C171.938 153.721 171.756 153.983 171.877 154.112C172.007 154.236 172.651 154.723 173.155 154.677C173.633 154.62 176.362 154.468 177.006 154.494C177.649 154.523 178.448 154.629 178.866 154.677C179.274 154.723 180.143 155.059 180.856 154.677C181.551 154.285 181.438 153.618 181.364 152.96C181.282 152.298 181.103 149.724 181.103 149.724C181.103 149.724 181.038 146.743 180.973 146.378C181.725 146.475 182.951 146.76 183.177 146.621C183.563 146.403 183.959 147.062 183.959 147.062C183.959 147.062 185.215 148.055 185.793 147.953C186.354 147.846 186.462 147.8 186.745 146.959C186.957 146.658 187.141 146.733 187.141 147.515C187.141 148.317 186.745 155.557 190.192 155.414C192.312 155.329 193.833 154.31 193.833 154.31C193.833 154.31 194.424 155.129 195.25 154.84C197.432 154.053 196.241 152.084 196.049 151.783C195.884 151.48 194.885 149.303 194.259 149.26C194.29 148.338 194.137 146.958 193.977 146.585C194.089 146.385 194.455 145.574 194.455 145.192C194.455 144.809 193.833 142.771 192.668 141.543C192.407 139.629 191.452 136.745 191.452 136.745C191.452 136.745 192.721 137.199 193.103 137.248C193.494 137.302 193.807 137.119 194.059 136.818C194.324 136.508 195.046 135.539 195.046 135.539C195.046 135.539 195.615 134.058 195.276 132.571C194.946 131.102 194.242 128.673 194.242 128.673C194.242 128.673 193.916 126.313 192.747 125.776C191.582 125.246 191.347 125.289 191.347 125.289C191.347 125.289 190.973 124.792 191.252 124.681C191.534 124.588 191.973 124.253 192.095 124.098C192.23 123.951 192.429 123.122 192.429 123.122C192.429 123.122 193.121 122.792 193.121 120.822C193.121 120.822 193.342 119.455 192.821 118.805C192.821 118.222 192.407 117.84 192.407 117.84L191.66 117.038C191.66 117.038 191.76 116.023 191.303 115.908C190.834 115.797 190.495 115.678 190.495 115.678C190.495 115.678 190.478 114.618 189.67 114.498Z" fill="#C9CACC"/>
<path d="M183.459 118.113C183.833 118.096 184.107 118.713 184.124 118.852C184.142 118.972 184.055 118.972 183.863 118.933C183.681 118.905 183.516 118.505 183.129 118.54C182.747 118.559 182.738 118.835 182.603 118.807C182.455 118.789 183.077 118.131 183.459 118.113Z" fill="black"/>
<path d="M186.371 117.105C186.779 117.244 186.901 117.652 186.901 117.652C186.901 117.652 186.518 117.331 186.184 117.27C185.845 117.198 185.698 117.278 185.698 117.278C185.698 117.278 185.811 116.897 186.371 117.105Z" fill="black"/>
<path d="M190.269 120.252C190.217 120.123 190.156 120.052 190.061 120.052L189.992 120.06L189.948 120.095C189.792 120.303 189.618 120.39 189.401 120.39C189.148 120.39 188.94 120.233 188.94 120.233C188.94 120.233 188.897 120.79 189.505 120.79C189.966 120.79 190.244 120.379 190.253 120.362L190.296 120.314L190.269 120.252Z" fill="black"/>
<path d="M192.095 138.897L191.734 137.271L191.565 136.688L188.61 131.16L188.502 130.952C188.397 130.858 188.315 130.743 188.08 130.515C188.011 130.458 188.054 130.369 188.145 130.377C189.175 130.506 190.974 130.012 191.4 129.847C191.522 129.995 194.382 133.359 194.598 133.22C194.82 133.074 191.713 128.972 191.687 128.961C191.687 128.935 191.982 127.266 191.912 127.067C191.773 126.667 190.939 126.052 190.6 126.052L190.547 126.065C190.487 125.945 190.426 125.852 190.413 125.826L190.365 125.746C190.139 125.346 189.965 125.078 189.843 124.885C190.417 125.078 190.991 125.261 191.034 125.278L191.347 125.296L191.686 124.833L189.269 124.022C189.057 123.955 188.818 123.494 188.808 123.11C188.791 122.842 190.477 121.184 190.156 121.087C189.504 120.858 187.961 122.527 187.922 123.016C187.887 123.337 188.07 124.05 188.347 124.328C188.252 124.467 188.178 124.615 188.178 124.789C185.179 124.989 184.106 126.065 183.976 126.621C183.976 126.621 186.375 125.677 187.223 125.537C186.667 126.065 187.548 127.075 187.548 127.075C187.44 127.04 187.158 126.849 186.858 127.067C186.297 127.512 186.875 128.433 186.983 128.642C186.758 128.646 186.593 128.692 186.514 128.779C186.219 129.118 186.783 129.831 187.183 130.276C187.374 130.484 186.501 130.43 183.976 128.544C184.054 130.378 187.083 131.473 188.053 131.482C188.079 131.526 191.964 138.655 192.095 138.897ZM187.058 129.109C187.231 128.918 187.705 129.372 187.848 129.257C187.983 129.135 186.844 127.831 187.205 127.559C187.631 127.274 188.123 128.289 188.348 128.115C188.588 127.924 188.501 127.83 188.435 127.665C188.404 127.587 187.913 126.7 187.905 126.692C187.879 126.648 187.348 125.833 187.697 125.659C188.053 125.536 188.427 126.135 188.501 126.237C188.527 126.263 189.2 127.457 189.478 127.328C189.748 127.163 188.974 125.379 188.974 125.379C188.927 125.214 188.601 124.752 188.762 124.623C188.927 124.493 189.096 124.53 189.557 125.142C189.6 125.197 190.834 127.439 190.991 127.359C190.991 127.359 191.017 126.909 190.826 126.563C191.069 126.754 191.547 126.9 191.521 127.23C191.512 127.345 191.478 128.308 191.295 128.543C190.756 129.201 188.213 130.055 187.422 129.927C187.349 129.847 186.849 129.355 187.058 129.109Z" fill="black"/>
<path d="M180.004 138.636L179.588 138.89L178.953 139.281C179.061 139.539 181.552 145.582 184.081 147.484L184.15 147.252C180.769 142.677 180.004 138.636 180.004 138.636Z" fill="black"/>
<path d="M189.331 141.738C187.814 141.956 186.745 146.962 186.745 146.962C187.11 146.491 187.127 147.31 187.127 147.31C187.127 147.31 188.348 143.051 189.401 142.614C190.474 142.175 192.065 142.367 192.065 142.367C192.065 142.367 190.861 141.502 189.331 141.738Z" fill="black"/>
<path d="M177.657 133.837C177.832 133.727 177.241 128.978 177.241 128.978L177.023 129.213L176.649 128.978C176.449 129.387 177.483 133.948 177.657 133.837Z" fill="black"/>
<path d="M178.77 130.022L179.135 133.898L179.804 133.524L179.622 130.671C179.622 130.671 179.961 130.823 180.078 130.725C180.196 130.621 179.543 130.038 179.508 129.326C179.483 128.806 180.073 128.127 179.969 128.068C179.865 128.005 179.665 128.205 179.665 128.205C179.7 127.733 179.734 127.214 179.769 126.884C179.813 126.421 180.43 125.482 180.43 125.482C179.048 125.972 178.796 127.542 178.796 127.542L178.709 128.77C178.709 128.789 178.588 129.163 178.588 129.423C178.588 129.692 178.761 130.022 178.761 130.022H178.77Z" fill="black"/>
<path d="M194.307 148.77C194.307 148.77 194.272 153.483 193.268 154.672H193.824C194.024 154.49 194.424 152.975 194.563 152.402C194.715 151.769 194.689 149.188 194.689 149.188L194.307 148.77Z" fill="black"/>
<path d="M177.118 142.303C176.94 143.297 181.025 147.093 181.025 147.093L182.147 146.572C182.147 146.572 178.274 143.738 177.118 142.303Z" fill="black"/>
<path d="M188.292 116.218C188.348 116.282 188.327 116.618 188.274 116.863C188.274 116.877 188.157 117.348 188.791 117.67C189.208 117.87 189.452 118.217 189.613 118.461C189.652 118.515 189.687 118.573 189.703 118.608C189.817 118.737 189.852 118.852 189.764 119.156C189.729 119.284 189.668 119.364 189.612 119.436C189.555 119.492 189.486 119.581 189.529 119.694L189.538 119.729C189.573 119.867 189.686 120.201 189.99 120.329C190.051 120.375 190.208 120.588 190.033 121.105L189.981 121.251C189.79 121.807 189.955 123.139 190.276 123.05C190.606 122.965 190.546 121.807 190.633 121.67C190.823 121.416 190.954 120.712 190.885 120.329C190.868 120.192 190.816 120.095 190.728 120.049C190.433 119.858 190.338 119.703 190.338 119.658C190.338 119.645 190.381 119.582 190.416 119.538C190.485 119.462 190.555 119.356 190.616 119.226C190.72 118.974 190.651 118.609 190.547 118.372C190.451 118.164 189.868 117.425 189.529 117.306C189.234 117.221 189.06 117.052 189.06 116.887C189.056 116.811 189.068 116.696 189.078 116.585C189.121 116.322 189.138 116.082 189.03 115.935C188.043 114.568 186.597 114.733 186.597 114.733L185.967 115.418C185.967 115.418 187.088 114.852 188.292 116.218Z" fill="black"/>
<path d="M180.469 125.146C180.652 125.265 181.617 125.4 183.351 126.503C183.612 126.067 181.787 125.052 180.935 124.772C180.431 124.772 180.396 124.883 180.379 124.928C180.361 124.981 180.361 125.057 180.469 125.146Z" fill="black"/>
<path d="M175.237 151.917C173.716 149.831 170.404 149.746 169.3 150.804C169.235 150.741 169.192 150.702 169.135 150.657C168.67 150.293 167.332 149.492 166.684 149.127C165.672 148.058 165.245 147.797 165.028 147.684C164.194 147.182 162.599 146.618 161.238 146.292C160.978 143.399 160.756 142.723 160.599 142.426C160.613 142.332 160.926 139.773 160.873 138.167C161.734 138.323 162.873 138.503 163.794 138.503C164.307 138.503 164.715 138.447 165.054 138.323C165.941 138.091 167.405 137.584 168.005 136.613L168.144 136.405L168.205 136.16C168.262 135.952 168.653 134.054 167.523 132.266C166.749 131.051 164.585 128.772 163.372 127.615C163.429 126.948 163.463 126.277 163.463 126.266C163.512 125.721 163.363 125.153 162.724 124.495C162.533 124.295 161.082 122.643 160.664 122.392C160.272 122.159 159.63 121.981 159.108 121.981C158.918 121.981 158.748 122.009 158.569 122.061C157.153 122.372 157.288 124.549 157.344 124.732C157.162 124.625 156.97 124.532 156.771 124.442C156.28 123.904 155.567 123.593 154.858 123.445C154.493 123.183 153.957 122.91 153.266 122.91C153.218 122.91 153.163 122.91 153.109 122.919C152.194 122.973 152.171 123.072 151.725 123.428C151.041 123.573 150.422 123.975 149.95 124.557C149.559 124.779 149.074 125.182 148.697 125.844C148.278 126.181 147.828 126.738 147.463 127.713L147.326 128.069C147 128.919 146.637 129.875 146.898 130.868C146.913 130.882 146.917 130.927 146.926 130.953C146.133 131.171 145.016 131.629 144.397 132.84C144.125 133.388 143.832 134.108 143.598 134.746C143.254 134.768 139.271 135.257 139.356 137.137C139.382 137.727 139.667 138.314 140.206 138.688C139.832 139.325 139.806 139.994 140.138 140.559C140.425 141.057 140.821 141.413 141.267 141.587C141.417 142.063 141.64 142.556 141.978 142.983C142.371 143.486 142.797 143.855 143.158 144.113C142.414 144.357 141.621 144.713 140.865 145.26C139.761 146.008 138.121 147.651 139.544 150.198C139.77 150.588 140.47 151.362 143.964 154.793C143.843 154.937 141.093 159.988 145.588 160.198C146.612 161.923 150.114 159.443 150.233 159.376C150.496 159.434 155.201 159.452 153.949 155.83C154.275 155.778 155.898 155.328 155.983 155.319C156.509 155.549 157.665 156.021 158.352 156.088C158.66 156.114 159.164 156.134 159.538 156.134C160.017 156.134 161.181 156.115 161.742 156.004C161.889 155.978 162.054 155.933 162.237 155.902C162.728 156.691 163.493 157.673 164.483 158.229C165.666 158.907 168.373 160.115 169.277 160.519C169.455 160.702 171.358 162.279 172.61 162.279C176.6 162.279 175.366 158.648 175.431 158.446C175.758 157.506 176.349 153.421 175.237 151.917Z" fill="black"/>
<path d="M161.278 132.733C161.117 132.533 159.569 132.133 158.935 132.067C158.718 131.847 158.005 131.63 158.005 131.63C158.005 131.63 158.978 130.9 158.952 130.398C158.279 126.944 157.11 126.678 157.11 126.678C157.11 126.678 156.745 125.893 155.76 125.773C155.591 125.034 154.148 124.911 154.148 124.911C154.148 124.911 153.787 124.432 153.209 124.461C152.792 124.492 152.657 124.661 152.444 124.919C152.444 124.919 151.579 124.78 151.002 125.773C151.002 125.773 150.317 125.919 149.897 126.917C149.897 126.917 149.392 127.043 148.933 128.24C148.622 129.057 148.252 129.863 148.407 130.474C148.576 131.083 149.073 131.715 149.073 131.715C149.073 131.715 148.606 132.098 148.091 132.258C147.57 132.413 146.311 132.508 145.794 133.536C145.273 134.559 144.63 136.526 144.63 136.526C144.63 136.526 144.318 136.343 143.939 136.307C143.604 136.272 142.083 136.335 141.744 136.584C141.558 136.708 140.894 136.792 140.912 137.045C140.953 137.783 142.122 137.522 142.122 137.522L141.857 139.087C141.857 139.087 141.366 139.565 141.496 139.792C141.628 140.02 141.857 140.104 142.011 140.054C142.211 140.019 142.528 139.643 142.528 139.643C142.528 139.643 142.528 141.171 143.208 142.033C143.884 142.894 144.668 143.2 144.668 143.2C144.668 143.2 145.179 143.404 145.624 143.2C146.078 143.027 146.919 142.354 146.991 142.096C147.054 141.842 147.276 140.974 147.276 140.974C147.276 140.974 147.637 139.599 147.802 139.564C147.956 139.536 148.121 139.755 148.121 139.755V142.545C148.121 142.545 147.017 144.623 147.017 145.162C146.434 145.233 143.92 144.962 141.747 146.528C139.967 147.743 140.592 148.864 140.911 149.438C141.228 150.021 146.665 155.255 146.826 155.447C146.754 155.629 146.919 155.862 146.665 155.862H146.078C146.078 155.862 145.25 155.54 145.109 155.862C144.762 156.652 145.638 156.581 145.674 156.716C145.696 156.862 144.966 156.609 144.859 157.027C144.712 157.539 144.873 158.019 145.22 158.441C145.438 158.73 146.002 158.593 146.163 158.652C146.337 158.721 146.391 158.988 146.821 159.078C147.773 159.452 149.878 157.739 150.154 157.783C151.177 158.296 152.371 157.357 152.443 156.781C152.523 156.198 152.434 155.913 152.223 155.468C152.015 155.037 151.356 154.334 151.356 154.334C151.356 154.334 152.171 154.08 152.345 154C152.345 154 152.46 153.915 152.736 154.046C153.003 154.182 154.209 154.402 154.566 154.385C154.927 154.374 156.269 153.724 156.478 153.837C156.69 153.952 158.021 154.509 158.516 154.548C159.007 154.602 160.907 154.594 161.437 154.492C161.958 154.394 163.027 154.072 163.027 154.072C163.027 154.072 163.91 156.132 165.253 156.9C166.6 157.656 170.202 159.236 170.202 159.236C170.202 159.236 171.65 160.731 172.606 160.731C173.553 160.731 173.797 159.917 173.797 159.727C173.788 159.527 173.762 158.497 173.953 157.967C174.144 157.411 174.318 155.777 174.362 155.012C174.418 154.247 174.683 152.115 172.632 151.804C172.31 151.75 171.607 151.631 171.48 151.631C171.18 151.657 171.328 152.361 171.233 152.094C171.115 151.768 170.772 151.693 170.633 151.743C170.259 151.912 170.094 152.231 170.103 152.405C170.128 152.717 170.268 153.563 170.268 153.563C170.268 153.563 168.599 152.231 168.142 151.858C167.687 151.483 165.704 150.345 165.704 150.345C165.704 150.345 164.631 149.215 164.305 149.076C164.123 148.858 161.306 147.572 159.785 147.598C159.759 146.442 159.698 143.741 159.038 142.426C159.046 142.063 159.454 138.272 159.211 137.273C159.107 136.837 159.776 136.5 160.115 136.5C160.454 136.5 163.696 137.239 164.574 136.863C164.574 136.863 166.295 136.429 166.678 135.801C166.678 135.801 167.025 134.386 166.199 133.099C165.373 131.804 162.487 128.849 161.74 128.24C161.836 127.493 161.905 126.147 161.905 126.147C161.905 126.147 161.905 125.858 161.714 125.676C161.506 125.468 160.193 123.961 160.011 123.807C159.863 123.667 159.263 123.467 159.02 123.539C158.777 123.615 158.855 124.134 158.994 124.269C159.142 124.424 159.542 124.754 159.542 124.754L159.75 125.337C159.75 125.337 159.48 125.476 159.428 125.604C159.385 125.719 159.385 126.388 159.481 126.542C159.577 126.677 159.898 126.743 159.898 126.743C159.898 126.743 159.603 127.397 159.316 127.416C159.063 127.06 158.651 125.986 158.294 126.338C158.124 126.512 158.038 126.806 158.133 127.099C158.212 127.379 158.69 128.75 158.933 129.005C159.185 129.248 159.367 129.387 159.367 129.387C159.367 129.387 161.186 132.212 161.278 132.733Z" fill="#C9CACC"/>
<path d="M143.884 146.423C146.487 146.152 151.236 154.203 151.392 154.376C151.557 154.55 151.85 154.176 151.85 154.176C151.651 153.829 147.502 145.277 143.884 146.423Z" fill="black"/>
<path d="M143.541 137.897C144.004 137.825 144.76 136.941 144.636 136.895C144.521 136.847 144.132 137.43 143.434 137.43C143.21 137.43 142.941 137.376 142.65 137.323L142.581 137.306C142.496 137.461 141.89 137.558 141.89 137.558L141.966 137.932L142.561 137.787C142.659 137.825 143.078 137.968 143.541 137.897Z" fill="black"/>
<path d="M147.47 133.038C146.923 133.102 147.55 140.496 147.55 140.496L148.12 139.757C148.044 139.34 147.972 137.177 147.981 136.869C148.174 136.995 150.693 136.465 151.253 135.517C151.253 135.517 149.491 135.837 149.046 135.739C148.253 135.611 148.044 135.272 148.005 135.028C148.009 134.952 147.707 133.021 147.47 133.038Z" fill="black"/>
<path d="M147.131 144.694L146.633 145.051C150.218 146.945 152.396 153.943 152.413 154.012L152.431 154.088L153.589 154.489C153.589 154.489 150.852 146.363 147.131 144.694Z" fill="black"/>
<path d="M155.602 154.09C155.758 154.336 156.577 153.899 156.577 153.899V153.818C156.577 153.788 156.488 150.422 159.196 147.841C159.196 147.841 156.238 148.438 155.602 154.09Z" fill="black"/>
<path d="M170.265 153.482L169.592 153.019C169.592 153.019 169.909 154.532 169.892 155.194C169.878 155.307 169.848 155.333 169.801 155.377C169.775 155.405 169.766 155.423 169.74 155.435C169.493 155.707 169.666 156.765 169.666 156.765C169.666 156.765 169.958 156.161 170.266 155.817C170.293 155.787 170.314 155.759 170.348 155.732C170.492 155.595 170.523 155.489 170.444 154.887C170.43 154.683 170.265 153.482 170.265 153.482Z" fill="black"/>
<path d="M159.569 132.968C159.439 132.986 159.196 134.757 159.204 134.993C159.204 135.028 159.135 136.187 157.839 135.984C156.547 135.776 156.014 135.533 156.014 135.533C156.472 136.443 158.622 136.888 159.152 137.636C159.265 137.792 159.352 138.62 159.37 138.722H159.796V137.245L160.222 137.117C160.03 134.027 159.7 132.942 159.569 132.968Z" fill="black"/>
<path d="M150.808 131.613C150.034 131.613 148.888 131.732 148.849 131.743L147.549 132.021L147.927 132.308C147.953 132.298 149.644 131.96 150.767 131.96C150.954 131.96 151.104 131.968 151.223 132.003C152.195 132.214 153.362 132.631 153.379 132.462C153.383 132.308 151.999 131.768 151.341 131.647C151.217 131.63 151.038 131.613 150.808 131.613Z" fill="black"/>
<path d="M159.212 132.099L159.299 132.045L159.334 132.006L159.369 131.934L159.326 131.837L158.804 131.534C158.752 131.534 156.262 131.526 156.262 131.526C155.649 131.543 153.722 132.317 153.846 132.464C153.969 132.602 155.369 132.01 156.333 131.891C157.344 131.76 159.126 132.099 159.212 132.099Z" fill="black"/>
<path d="M157.213 127.327C157.709 126.806 156.752 126.214 156.735 126.143C156.735 126.143 157.4 127.016 156.861 126.77C156.402 126.04 154.597 125.51 154.533 125.44C154.44 125.327 154.762 125.021 155.757 125.768C155.82 125.64 155.216 125.049 154.351 125.11C154.333 124.991 154.253 124.858 154.173 124.808C154.159 124.8 154.147 124.8 154.147 124.8C154.112 124.8 154.057 124.8 154.075 124.818C154.151 124.903 154.279 125.111 154.137 125.128C153.968 125.146 153.866 124.848 153.831 124.8C153.742 124.635 153.327 124.868 153.568 125.05C153.629 125.111 153.742 125.146 153.845 125.222C153.968 125.293 153.914 125.339 153.808 125.293C153.668 125.25 153.519 125.222 153.328 125.222C153.133 125.222 152.954 125.268 152.785 125.339C152.709 125.357 152.64 125.32 152.729 125.25C152.803 125.183 152.916 125.157 152.986 125.111C153.333 124.868 152.756 124.466 152.658 125.039C152.59 125.146 152.522 125.222 152.471 125.242C152.208 125.259 152.488 124.848 152.475 124.848C152.475 124.848 152.444 124.885 152.429 124.894C152.347 124.947 152.238 125.051 152.216 125.166C152.148 125.157 151.144 125.223 151.001 125.77C151.744 125.223 152.135 125.259 152.088 125.468C152.074 125.558 151.184 126.068 150.822 126.407C150.542 126.615 150.121 127.128 150.041 127.146C149.897 127.172 149.876 126.883 150.067 126.501C149.599 126.963 149.688 127.328 149.813 127.52C149.578 128.085 149.626 128.798 149.934 129.363C150.199 129.83 151.833 131.214 151.973 131.12C152.11 131.023 150.28 129.417 150.143 128.725C149.854 127.074 152.079 125.624 152.798 125.539C152.835 125.539 152.929 125.748 153.338 125.722C153.846 125.703 153.902 125.539 153.902 125.539C154.478 125.468 157.193 126.495 156.91 128.503C156.81 129.136 156.561 129.892 156.671 129.973C156.779 130.038 156.893 129.701 157.167 129.153C157.466 128.578 157.474 127.866 157.213 127.327Z" fill="black"/>
<path d="M164.307 136.315C163.959 135.933 161.064 132.447 161.047 132.438C161.021 132.386 160.952 132.273 160.847 132.273C160.791 132.273 160.426 132.292 160.413 132.377C161.022 133.395 162.404 135.012 163.382 135.802C163.82 136.195 164.185 136.426 164.307 136.315Z" fill="black"/>
<path d="M146.393 155.255C146.54 155.446 146.793 155.82 146.793 155.82C146.793 155.82 147.148 154.944 147.768 154.597C148.377 154.253 149.442 153.777 149.9 153.76C148.15 153.314 146.464 154.605 146.393 155.255Z" fill="black"/>
<path d="M145.518 141.052C145.847 141.061 145.947 140.739 145.951 140.393L146.016 140.33C146.024 140.322 146.338 140.041 146.538 139.409C146.69 140.25 147.111 141.928 146.8 142.364L146.32 142.868L146.822 142.582C147.018 142.513 147.335 142.156 147.235 141.563C147.183 141.243 146.69 138.573 146.69 138.573L146.666 138.462C146.64 138.114 146.538 137.786 146.342 137.532C146.016 137.086 145.497 136.856 145.153 136.827C145.153 136.827 146.533 137.748 146.355 138.724C146.19 139.654 146.016 139.73 146.016 139.739L145.825 139.519L145.808 140.067C145.778 140.338 145.688 140.449 145.51 140.441C144.98 140.432 144.588 141.153 144.023 140.988C143.493 140.834 143.213 140.393 142.878 140.138C142.576 139.903 143.039 139.434 143.039 139.434C143.039 139.434 143.022 139.252 142.885 139.156C142.742 139.06 142.504 139.653 142.504 139.653C142.504 139.653 142.185 140.468 142.635 140.758C143.426 141.278 143.169 141.268 144.023 141.527C144.882 141.791 144.815 141.035 145.518 141.052Z" fill="black"/>
<path d="M182.977 115.506C182.394 115.506 181.651 115.141 181.468 114.117C181.403 113.917 180.891 112.724 180.456 111.692C177.953 105.84 178.153 107.98 178.388 107.05C178.804 105.373 181.103 105.171 182.808 105.171C183.203 105.171 183.503 105.19 183.612 105.199C184.438 105.208 185.158 105.51 185.724 106.058C186.654 106.978 186.888 108.337 186.888 108.969C186.888 109.038 185.637 112.817 185.003 113.956L184.977 114.002C184.055 115.488 183.256 115.506 182.986 115.506H182.977Z" fill="black"/>
<path d="M183.564 106.467C183.564 106.467 179.917 106.232 179.627 107.344C179.352 108.466 181.943 112.716 182.734 113.898C183.299 114.739 183.881 113.342 183.881 113.342C184.272 112.649 185.593 109.439 185.602 108.964C185.602 108.372 185.211 106.458 183.564 106.467Z" fill="#C9CACC"/>
<path d="M79.9458 70.2292C79.9458 70.2292 90.1158 70.8658 91.8992 82.3475C92.4725 80.2333 90.1675 73.2817 87.2492 71.5867C86.9192 71.3958 85.6608 70.7758 86.5908 68.725C83.1725 68.23 79.9458 70.2292 79.9458 70.2292Z" fill="black"/>
<path d="M128.478 74.8708C128.478 74.8708 134.691 72.5258 136.164 82.5025C136.836 78.8542 135.994 74.515 133.48 73.2017C130.962 71.89 128.478 74.8708 128.478 74.8708Z" fill="black"/>
<path d="M99.225 85.545C99.225 85.545 99.8442 87.6417 100.503 88.055C101.169 88.4542 102.893 85.875 102.893 85.875C102.893 85.875 101.691 88.9842 100.626 89.7783C99.7725 89.1283 99.4375 88.335 99.225 85.545Z" fill="black"/>
<path d="M101.746 87.8917C101.746 87.8917 102.743 89.9692 103.402 90.38C104.068 90.7758 105.605 88.3175 105.605 88.3175C105.605 88.3175 104.238 91.5008 103.53 92.105C102.893 91.5308 101.643 90.7833 101.746 87.8917Z" fill="black"/>
<path d="M95.9475 91.4383C95.9475 91.4383 97.1625 93.6725 97.8925 93.9658C99.1333 94.4658 99.2225 91.1925 99.2225 91.1925C99.2225 91.1925 99.7483 94.8192 98.3775 96.0083C97.23 95.3492 96.6283 94.9042 95.9475 91.4383Z" fill="black"/>
<path d="M99.0375 90.1167C99.0375 90.1167 99.6967 92.0875 100.32 92.5592C100.938 93.0267 102.233 89.5058 102.233 89.5058C102.233 89.5058 101.811 92.9867 100.827 94.7233C100.19 93.9933 99.1225 92.8983 99.0375 90.1167Z" fill="black"/>
<path d="M101.558 91.7075C101.568 91.8008 102.752 93.5592 103.482 93.8975C104.229 94.2167 104.709 91.1967 104.709 91.1967C104.709 91.1967 104.922 94.645 104.029 95.6467C103.513 95.2817 101.808 94.4083 101.558 91.7075Z" fill="black"/>
<path d="M102.232 83.3633C102.232 83.3633 103.395 86.0075 104.168 86.4167C104.942 86.8125 106.1 83.9742 106.1 83.9742C106.1 83.9742 105.507 87.0667 104.123 88.0317C103.18 87.2133 102.891 86.6658 102.232 83.3633Z" fill="black"/>
<path d="M100.277 81.0942C100.277 81.0942 101.007 83.065 101.666 83.4133C102.324 83.765 103.472 81.0942 103.472 81.0942C103.472 81.0942 102.792 84.5042 101.738 85.545C101.024 84.9708 100.694 84.0233 100.277 81.0942Z" fill="black"/>
<path d="M104.297 80.3992C104.297 80.3992 104.905 82.1025 105.477 82.4675C106.037 82.8325 106.917 81.3375 106.917 81.3375C106.917 81.3375 106.566 83.7017 105.52 84.0208C105.087 83.6342 104.616 82.8675 104.297 80.3992Z" fill="black"/>
<path d="M107.4 78.4C107.4 78.4 107.739 80.0058 108.223 80.345C108.682 80.6883 109.544 79.2192 109.544 79.2192C109.544 79.2192 109.433 81.0075 108.173 81.8008C107.711 81.2442 107.154 80.5617 107.4 78.4Z" fill="black"/>
<path d="M110.294 76.0617C110.294 76.0617 110.633 77.6592 111.105 78.0025C111.576 78.3392 112.435 76.8725 112.435 76.8725C112.435 76.8725 112.274 79.0525 111.101 79.2975C111.246 79.5017 110.073 78.0025 110.294 76.0617Z" fill="black"/>
<path d="M96.5958 87.57C96.5958 87.57 97.6542 89.4475 98.1492 89.5017C98.6383 89.55 99.5817 87.57 99.5817 87.57C99.5817 87.57 99.1358 90.2317 98.1492 90.7708C97.7083 90.2317 96.8367 89.3775 96.5958 87.57Z" fill="black"/>
<path d="M102.898 78.6342C102.898 78.6342 103.343 80.2142 103.832 80.5208C104.321 80.8425 105.087 79.31 105.087 79.31C105.087 79.31 104.838 81.5717 103.983 82.2092C103.441 81.7183 102.787 80.905 102.898 78.6342Z" fill="black"/>
<path d="M148.5 103.398C146.783 102.808 144.673 99.2325 144.032 97.7075C143.392 96.1667 142.233 91.6533 142.933 90.0042C143.302 91.6358 144.292 95.1258 145.039 96.6967C146.16 99.05 147.574 102.12 148.5 103.398Z" fill="#C9CACC"/>
<path d="M185.593 149.448C185.281 148.803 183.637 148.153 182.917 148.051C182.257 147.953 182.112 147.936 182.052 148.607C181.995 149.154 181.969 149.733 182.077 150.306C182.256 151.308 182.334 151.014 183.229 151.064C183.907 151.117 184.516 151.218 185.176 151.17C185.811 151.133 185.945 151.116 185.945 150.525C185.936 150.097 186.106 149.567 185.592 149.413" fill="black"/>
<path d="M165.95 296.198V295.415H171.415V296.198H169.124V302.702H168.242V296.198H165.95ZM166.349 307.415H167.402L169.878 313.464H169.964L172.44 307.415H173.493V314.702H172.668V309.166H172.597L170.319 314.702H169.523L167.245 309.166H167.174V314.702H166.349V307.415Z" fill="black"/>
</g>
<defs>
<clipPath id="clip0_2_104">
<rect width="231.667" height="300" fill="white" transform="translate(34)"/>
</clipPath>
</defs>
</svg>
