<svg width="300" height="300" viewBox="0 0 300 300" fill="none" xmlns="http://www.w3.org/2000/svg">
<g clip-path="url(#clip0_16_40)">
<path fill-rule="evenodd" clip-rule="evenodd" d="M0 1H300V116.936L150 299.805L0 116.936V1Z" fill="white" stroke="black" stroke-width="2.5"/>
<path d="M285.359 17.0215H14.6414V96.1339H285.359V17.0215Z" fill="black"/>
<path fill-rule="evenodd" clip-rule="evenodd" d="M15.2391 110.363H126.394V246.617L15.2391 110.363Z" fill="#FE0000"/>
<path fill-rule="evenodd" clip-rule="evenodd" d="M284.163 110.363H173.008V246.617L284.163 110.363Z" fill="black"/>
<path fill-rule="evenodd" clip-rule="evenodd" d="M230.112 30.2641C221.683 30.2641 220.072 35.0213 220.072 38.0304V74.2124C219.801 80.5441 224.951 83.7368 229.706 83.7368H256.769C262.602 83.7368 268.647 80.5223 268.647 73.396V63.2367H255.948V66.8197C256.287 69.5084 255.007 71.3544 252.965 71.2644H235.901C233.412 71.4244 231.049 71.4426 231.683 68.0896V44.6414C232.185 43.0047 230.408 40.6081 235.266 40.4235H253.635C254.733 41.0289 256.393 39.9489 256.401 43.825L256.583 48.043H268.42V37.9583C268.42 32.1039 263.369 30.2641 258.824 30.2641H230.112ZM131.271 30.2641H94.1235V83.3286H107.033V63.7516H131.184C136.211 63.7516 141.64 61.3577 141.64 54.574V39.1535C141.64 34.8726 138.355 30.3374 131.271 30.2641ZM38.5645 30.2641C33.5763 30.6561 31.4998 32.9695 31.5799 37.0219V54.5762C31.5799 57.7259 34.4366 60.6979 41.8405 60.6979H64.3257C65.4005 60.6979 66.0038 61.2417 66.0038 62.9165V68.5431C66.0038 70.2195 65.4044 71.4912 63.9966 71.4912H31.3531V82.8751H71.0099C76.8893 82.8751 79.1112 79.8597 79.1112 75.7113V56.4789C79.1112 49.3022 70.3408 49.7211 67.1011 49.7211H46.908C45.0922 49.9041 43.352 48.2157 43.5081 46.4268V42.6596C43.3169 41.2726 44.6442 40.2307 46.4108 40.242L79.1112 40.1967V30.2641H38.5645ZM157.529 30.2641V83.5101H169.321V63.6449H195.944V52.0342H169.548V40.1967H205.06V30.2641H157.529ZM107.033 41.9202H126.824C128.29 41.9202 129.953 42.0282 129.953 44.8815V49.7424C129.953 52.6717 128.421 52.7812 126.869 52.7812H107.033V41.9202Z" fill="white"/>
</g>
<defs>
<clipPath id="clip0_16_40">
<rect width="300" height="300" fill="white"/>
</clipPath>
</defs>
</svg>
